M48
; DRILL file KiCad 10.0.4 date 2026-08-09T10:39:22
; FORMAT={-:-/ absolute / inch / decimal}
; #@! TF.CreationDate,2026-08-09T10:39:22+10:00
; #@! TF.GenerationSoftware,Kicad,Pcbnew,10.0.4
; #@! TF.FileFunction,Plated,1,2,PTH
FMAT,2
INCH
; #@! TA.AperFunction,Plated,PTH,ComponentDrill
T1C0.1260
; #@! TA.AperFunction,Plated,PTH,ComponentDrill
T2C0.2520
%
G90
G05
T2
X1.515Y-2.1358
X1.515Y-2.5295
X1.515Y-3.2776
X1.515Y-3.6713
X1.515Y-4.4193
X1.515Y-4.813
X2.0283Y-2.1358
X2.0283Y-2.5295
X2.0283Y-3.2776
X2.0283Y-3.6713
X2.0283Y-4.4193
X2.0283Y-4.813
T1
G00X1.4213Y-1.2992
M15
G01X1.5315Y-1.2992
M16
G05
G00X1.4213Y-6.122
M15
G01X1.5315Y-6.122
M16
G05
G00X2.0118Y-1.2992
M15
G01X2.122Y-1.2992
M16
G05
G00X2.0118Y-6.122
M15
G01X2.122Y-6.122
M16
G05
M30
