%TF.GenerationSoftware,KiCad,Pcbnew,10.0.4*%
%TF.CreationDate,2026-08-09T10:39:22+10:00*%
%TF.ProjectId,Faceplate,46616365-706c-4617-9465-2e6b69636164,rev?*%
%TF.SameCoordinates,Original*%
%TF.FileFunction,Legend,Top*%
%TF.FilePolarity,Positive*%
%FSLAX46Y46*%
G04 Gerber Fmt 4.6, Leading zero omitted, Abs format (unit mm)*
G04 Created by KiCad (PCBNEW 10.0.4) date 2026-08-09 10:39:22*
%MOMM*%
%LPD*%
G01*
G04 APERTURE LIST*
%ADD10C,0.238874*%
%ADD11C,0.300000*%
%ADD12C,0.250000*%
%ADD13C,0.000000*%
%ADD14C,0.463051*%
%ADD15C,0.100000*%
%ADD16C,0.694576*%
%ADD17C,0.150000*%
%ADD18C,0.375000*%
%ADD19C,6.800000*%
%ADD20C,3.200000*%
%ADD21O,6.400000X3.600000*%
G04 APERTURE END LIST*
D10*
X43410000Y-137766566D02*
X39826886Y-139856726D01*
X39826886Y-135676416D01*
X43410000Y-137766566D01*
X43410000Y-145530000D02*
X39826886Y-147620150D01*
X39826886Y-143439848D01*
X43410000Y-145530000D01*
X50576244Y-139856726D02*
X46993130Y-137766566D01*
X50576244Y-135676416D01*
X50576244Y-139856726D01*
X50576244Y-147620150D02*
X46993130Y-145530000D01*
X50576244Y-143439848D01*
X50576244Y-147620150D01*
D11*
G36*
X42863727Y-142315000D02*
G01*
X42706740Y-142315000D01*
X42706740Y-140972641D01*
X42209400Y-140972641D01*
X42209400Y-140826095D01*
X43361066Y-140826095D01*
X43361066Y-140972641D01*
X42863727Y-140972641D01*
X42863727Y-142315000D01*
G37*
G36*
X43743001Y-142168454D02*
G01*
X44435521Y-142168454D01*
X44435521Y-142315000D01*
X43586106Y-142315000D01*
X43586106Y-140826095D01*
X43743001Y-140826095D01*
X43743001Y-142168454D01*
G37*
G36*
X45124891Y-140805816D02*
G01*
X45210191Y-140830989D01*
X45279899Y-140870700D01*
X45341080Y-140924337D01*
X45392281Y-140986633D01*
X45434047Y-141058462D01*
X45479550Y-141176539D01*
X45507778Y-141307956D01*
X45522117Y-141442338D01*
X45526737Y-141567616D01*
X45522117Y-141692895D01*
X45507778Y-141827277D01*
X45479550Y-141958694D01*
X45434047Y-142076771D01*
X45392281Y-142148599D01*
X45341080Y-142210896D01*
X45279899Y-142264533D01*
X45210191Y-142304244D01*
X45124891Y-142329417D01*
X45020147Y-142338447D01*
X44915465Y-142329420D01*
X44830158Y-142304251D01*
X44760395Y-142264533D01*
X44699271Y-142210902D01*
X44648098Y-142148606D01*
X44606338Y-142076771D01*
X44560814Y-141958696D01*
X44532516Y-141827277D01*
X44518247Y-141692896D01*
X44513648Y-141567616D01*
X44670544Y-141567616D01*
X44679978Y-141763804D01*
X44696090Y-141869862D01*
X44724857Y-141967961D01*
X44769323Y-142056455D01*
X44829912Y-142127787D01*
X44879933Y-142162355D01*
X44942238Y-142184091D01*
X45020239Y-142191901D01*
X45098175Y-142184091D01*
X45160419Y-142162355D01*
X45210382Y-142127787D01*
X45271044Y-142056448D01*
X45315528Y-141967961D01*
X45344295Y-141869862D01*
X45360408Y-141763804D01*
X45369842Y-141567616D01*
X45360408Y-141371428D01*
X45344293Y-141265384D01*
X45315528Y-141167363D01*
X45271034Y-141078816D01*
X45210382Y-141007537D01*
X45160412Y-140972916D01*
X45098168Y-140951152D01*
X45020239Y-140943332D01*
X44942245Y-140951152D01*
X44879939Y-140972917D01*
X44829912Y-141007537D01*
X44769332Y-141078809D01*
X44724857Y-141167363D01*
X44696092Y-141265384D01*
X44679978Y-141371428D01*
X44670544Y-141567616D01*
X44513648Y-141567616D01*
X44518247Y-141442337D01*
X44532516Y-141307956D01*
X44560814Y-141176537D01*
X44606338Y-141058462D01*
X44648098Y-140986627D01*
X44699271Y-140924331D01*
X44760395Y-140870700D01*
X44830158Y-140830982D01*
X44915465Y-140805812D01*
X45020147Y-140796786D01*
X45124891Y-140805816D01*
G37*
G36*
X46600917Y-140970351D02*
G01*
X46001820Y-142315000D01*
X45825324Y-142315000D01*
X46436053Y-140972641D01*
X45713674Y-140972641D01*
X45713674Y-140826095D01*
X46600917Y-140826095D01*
X46600917Y-140970351D01*
G37*
G36*
X47645696Y-141816744D02*
G01*
X47859745Y-141816744D01*
X47859745Y-141963290D01*
X47645696Y-141963290D01*
X47645696Y-142315000D01*
X47488801Y-142315000D01*
X47488801Y-141963290D01*
X46846656Y-141963290D01*
X46846656Y-141816744D01*
X46980654Y-141816744D01*
X47488801Y-141816744D01*
X47488801Y-140983407D01*
X46980654Y-141816744D01*
X46846656Y-141816744D01*
X46846656Y-141785237D01*
X47448043Y-140826095D01*
X47645696Y-140826095D01*
X47645696Y-141816744D01*
G37*
D12*
G36*
X36841226Y-68523588D02*
G01*
X36954456Y-68547055D01*
X37057285Y-68585087D01*
X37153835Y-68637369D01*
X37238807Y-68699480D01*
X37313252Y-68771688D01*
X37405567Y-68897227D01*
X37474208Y-69043042D01*
X37516043Y-69200719D01*
X37530139Y-69367397D01*
X37516043Y-69534074D01*
X37474208Y-69691751D01*
X37405572Y-69837587D01*
X37313252Y-69963227D01*
X37238815Y-70035361D01*
X37153843Y-70097433D01*
X37057285Y-70149706D01*
X36954456Y-70187738D01*
X36841226Y-70211205D01*
X36715834Y-70219316D01*
X36590523Y-70211207D01*
X36477332Y-70187742D01*
X36374504Y-70149706D01*
X36277940Y-70097438D01*
X36192926Y-70035367D01*
X36118416Y-69963227D01*
X36026191Y-69837595D01*
X35957582Y-69691751D01*
X35915746Y-69534074D01*
X35901650Y-69367397D01*
X35915746Y-69200719D01*
X35957582Y-69043042D01*
X36026197Y-68897219D01*
X36118416Y-68771688D01*
X36192934Y-68699475D01*
X36277949Y-68637364D01*
X36374504Y-68585087D01*
X36477332Y-68547051D01*
X36590523Y-68523586D01*
X36715834Y-68515478D01*
X36841226Y-68523588D01*
G37*
G36*
X41593935Y-70629116D02*
G01*
X35461197Y-70629116D01*
X35461197Y-69367397D01*
X35683419Y-69367397D01*
X35692417Y-69516671D01*
X35718711Y-69654928D01*
X35761699Y-69783709D01*
X35821254Y-69905721D01*
X35893453Y-70014786D01*
X35978587Y-70112093D01*
X36075922Y-70197218D01*
X36184639Y-70269326D01*
X36305872Y-70328736D01*
X36433887Y-70371761D01*
X36570109Y-70397962D01*
X36715956Y-70406894D01*
X36861720Y-70397962D01*
X36997861Y-70371761D01*
X37125795Y-70328736D01*
X37247107Y-70269320D01*
X37355863Y-70197211D01*
X37453203Y-70112093D01*
X37538326Y-70014782D01*
X37610484Y-69905717D01*
X37669968Y-69783709D01*
X37713025Y-69654923D01*
X37719571Y-69620554D01*
X38119131Y-69620554D01*
X38126201Y-69744795D01*
X38148440Y-69881284D01*
X38190722Y-70013913D01*
X38258960Y-70136395D01*
X38318504Y-70208836D01*
X38391655Y-70273350D01*
X38480000Y-70330202D01*
X38576373Y-70370870D01*
X38695946Y-70397300D01*
X38843799Y-70406894D01*
X38989706Y-70397367D01*
X39108924Y-70370997D01*
X39206134Y-70330202D01*
X39295412Y-70273260D01*
X39368975Y-70208740D01*
X39428517Y-70136395D01*
X39496820Y-70013903D01*
X39539037Y-69881284D01*
X39561369Y-69744793D01*
X39568468Y-69620554D01*
X39568468Y-68570188D01*
X39843974Y-68570188D01*
X40507093Y-68570188D01*
X40507093Y-70360000D01*
X40708594Y-70360000D01*
X40708594Y-68570188D01*
X41371713Y-68570188D01*
X41371713Y-68382609D01*
X39843974Y-68382609D01*
X39843974Y-68570188D01*
X39568468Y-68570188D01*
X39568468Y-68382609D01*
X39366968Y-68382609D01*
X39366968Y-69596008D01*
X39359416Y-69732601D01*
X39339002Y-69839518D01*
X39305379Y-69935574D01*
X39264874Y-70010610D01*
X39214767Y-70074093D01*
X39161315Y-70120519D01*
X39102984Y-70156840D01*
X39046521Y-70183168D01*
X38934658Y-70212355D01*
X38843677Y-70219316D01*
X38751353Y-70212355D01*
X38640834Y-70183168D01*
X38584475Y-70156848D01*
X38526162Y-70120519D01*
X38472710Y-70074093D01*
X38422603Y-70010610D01*
X38382098Y-69935574D01*
X38348475Y-69839518D01*
X38328060Y-69732601D01*
X38320509Y-69596008D01*
X38320509Y-68382609D01*
X38119131Y-68382609D01*
X38119131Y-69620554D01*
X37719571Y-69620554D01*
X37739359Y-69516666D01*
X37748370Y-69367397D01*
X37739359Y-69218127D01*
X37713025Y-69079870D01*
X37669968Y-68951085D01*
X37610484Y-68829076D01*
X37538326Y-68720011D01*
X37453203Y-68622700D01*
X37355859Y-68537593D01*
X37247103Y-68465524D01*
X37125795Y-68406179D01*
X36997855Y-68363086D01*
X36861715Y-68336845D01*
X36715956Y-68327899D01*
X36570114Y-68336844D01*
X36433892Y-68363086D01*
X36305872Y-68406179D01*
X36184643Y-68465518D01*
X36075926Y-68537586D01*
X35978587Y-68622700D01*
X35893453Y-68720007D01*
X35821254Y-68829073D01*
X35761699Y-68951085D01*
X35718711Y-69079865D01*
X35692417Y-69218122D01*
X35683419Y-69367397D01*
X35461197Y-69367397D01*
X35461197Y-68105677D01*
X41593935Y-68105677D01*
X41593935Y-70629116D01*
G37*
G36*
X36841226Y-97523588D02*
G01*
X36954456Y-97547055D01*
X37057285Y-97585087D01*
X37153835Y-97637369D01*
X37238807Y-97699480D01*
X37313252Y-97771688D01*
X37405567Y-97897227D01*
X37474208Y-98043042D01*
X37516043Y-98200719D01*
X37530139Y-98367397D01*
X37516043Y-98534074D01*
X37474208Y-98691751D01*
X37405572Y-98837587D01*
X37313252Y-98963227D01*
X37238815Y-99035361D01*
X37153843Y-99097433D01*
X37057285Y-99149706D01*
X36954456Y-99187738D01*
X36841226Y-99211205D01*
X36715834Y-99219316D01*
X36590523Y-99211207D01*
X36477332Y-99187742D01*
X36374504Y-99149706D01*
X36277940Y-99097438D01*
X36192926Y-99035367D01*
X36118416Y-98963227D01*
X36026191Y-98837595D01*
X35957582Y-98691751D01*
X35915746Y-98534074D01*
X35901650Y-98367397D01*
X35915746Y-98200719D01*
X35957582Y-98043042D01*
X36026197Y-97897219D01*
X36118416Y-97771688D01*
X36192934Y-97699475D01*
X36277949Y-97637364D01*
X36374504Y-97585087D01*
X36477332Y-97547051D01*
X36590523Y-97523586D01*
X36715834Y-97515478D01*
X36841226Y-97523588D01*
G37*
G36*
X41593935Y-99629116D02*
G01*
X35461197Y-99629116D01*
X35461197Y-98367397D01*
X35683419Y-98367397D01*
X35692417Y-98516671D01*
X35718711Y-98654928D01*
X35761699Y-98783709D01*
X35821254Y-98905721D01*
X35893453Y-99014786D01*
X35978587Y-99112093D01*
X36075922Y-99197218D01*
X36184639Y-99269326D01*
X36305872Y-99328736D01*
X36433887Y-99371761D01*
X36570109Y-99397962D01*
X36715956Y-99406894D01*
X36861720Y-99397962D01*
X36997861Y-99371761D01*
X37125795Y-99328736D01*
X37247107Y-99269320D01*
X37355863Y-99197211D01*
X37453203Y-99112093D01*
X37538326Y-99014782D01*
X37610484Y-98905717D01*
X37669968Y-98783709D01*
X37713025Y-98654923D01*
X37719571Y-98620554D01*
X38119131Y-98620554D01*
X38126201Y-98744795D01*
X38148440Y-98881284D01*
X38190722Y-99013913D01*
X38258960Y-99136395D01*
X38318504Y-99208836D01*
X38391655Y-99273350D01*
X38480000Y-99330202D01*
X38576373Y-99370870D01*
X38695946Y-99397300D01*
X38843799Y-99406894D01*
X38989706Y-99397367D01*
X39108924Y-99370997D01*
X39206134Y-99330202D01*
X39295412Y-99273260D01*
X39368975Y-99208740D01*
X39428517Y-99136395D01*
X39496820Y-99013903D01*
X39539037Y-98881284D01*
X39561369Y-98744793D01*
X39568468Y-98620554D01*
X39568468Y-97570188D01*
X39843974Y-97570188D01*
X40507093Y-97570188D01*
X40507093Y-99360000D01*
X40708594Y-99360000D01*
X40708594Y-97570188D01*
X41371713Y-97570188D01*
X41371713Y-97382609D01*
X39843974Y-97382609D01*
X39843974Y-97570188D01*
X39568468Y-97570188D01*
X39568468Y-97382609D01*
X39366968Y-97382609D01*
X39366968Y-98596008D01*
X39359416Y-98732601D01*
X39339002Y-98839518D01*
X39305379Y-98935574D01*
X39264874Y-99010610D01*
X39214767Y-99074093D01*
X39161315Y-99120519D01*
X39102984Y-99156840D01*
X39046521Y-99183168D01*
X38934658Y-99212355D01*
X38843677Y-99219316D01*
X38751353Y-99212355D01*
X38640834Y-99183168D01*
X38584475Y-99156848D01*
X38526162Y-99120519D01*
X38472710Y-99074093D01*
X38422603Y-99010610D01*
X38382098Y-98935574D01*
X38348475Y-98839518D01*
X38328060Y-98732601D01*
X38320509Y-98596008D01*
X38320509Y-97382609D01*
X38119131Y-97382609D01*
X38119131Y-98620554D01*
X37719571Y-98620554D01*
X37739359Y-98516666D01*
X37748370Y-98367397D01*
X37739359Y-98218127D01*
X37713025Y-98079870D01*
X37669968Y-97951085D01*
X37610484Y-97829076D01*
X37538326Y-97720011D01*
X37453203Y-97622700D01*
X37355859Y-97537593D01*
X37247103Y-97465524D01*
X37125795Y-97406179D01*
X36997855Y-97363086D01*
X36861715Y-97336845D01*
X36715956Y-97327899D01*
X36570114Y-97336844D01*
X36433892Y-97363086D01*
X36305872Y-97406179D01*
X36184643Y-97465518D01*
X36075926Y-97537586D01*
X35978587Y-97622700D01*
X35893453Y-97720007D01*
X35821254Y-97829073D01*
X35761699Y-97951085D01*
X35718711Y-98079865D01*
X35692417Y-98218122D01*
X35683419Y-98367397D01*
X35461197Y-98367397D01*
X35461197Y-97105677D01*
X41593935Y-97105677D01*
X41593935Y-99629116D01*
G37*
G36*
X36841226Y-126523588D02*
G01*
X36954456Y-126547055D01*
X37057285Y-126585087D01*
X37153835Y-126637369D01*
X37238807Y-126699480D01*
X37313252Y-126771688D01*
X37405567Y-126897227D01*
X37474208Y-127043042D01*
X37516043Y-127200719D01*
X37530139Y-127367397D01*
X37516043Y-127534074D01*
X37474208Y-127691751D01*
X37405572Y-127837587D01*
X37313252Y-127963227D01*
X37238815Y-128035361D01*
X37153843Y-128097433D01*
X37057285Y-128149706D01*
X36954456Y-128187738D01*
X36841226Y-128211205D01*
X36715834Y-128219316D01*
X36590523Y-128211207D01*
X36477332Y-128187742D01*
X36374504Y-128149706D01*
X36277940Y-128097438D01*
X36192926Y-128035367D01*
X36118416Y-127963227D01*
X36026191Y-127837595D01*
X35957582Y-127691751D01*
X35915746Y-127534074D01*
X35901650Y-127367397D01*
X35915746Y-127200719D01*
X35957582Y-127043042D01*
X36026197Y-126897219D01*
X36118416Y-126771688D01*
X36192934Y-126699475D01*
X36277949Y-126637364D01*
X36374504Y-126585087D01*
X36477332Y-126547051D01*
X36590523Y-126523586D01*
X36715834Y-126515478D01*
X36841226Y-126523588D01*
G37*
G36*
X41593935Y-128629116D02*
G01*
X35461197Y-128629116D01*
X35461197Y-127367397D01*
X35683419Y-127367397D01*
X35692417Y-127516671D01*
X35718711Y-127654928D01*
X35761699Y-127783709D01*
X35821254Y-127905721D01*
X35893453Y-128014786D01*
X35978587Y-128112093D01*
X36075922Y-128197218D01*
X36184639Y-128269326D01*
X36305872Y-128328736D01*
X36433887Y-128371761D01*
X36570109Y-128397962D01*
X36715956Y-128406894D01*
X36861720Y-128397962D01*
X36997861Y-128371761D01*
X37125795Y-128328736D01*
X37247107Y-128269320D01*
X37355863Y-128197211D01*
X37453203Y-128112093D01*
X37538326Y-128014782D01*
X37610484Y-127905717D01*
X37669968Y-127783709D01*
X37713025Y-127654923D01*
X37719571Y-127620554D01*
X38119131Y-127620554D01*
X38126201Y-127744795D01*
X38148440Y-127881284D01*
X38190722Y-128013913D01*
X38258960Y-128136395D01*
X38318504Y-128208836D01*
X38391655Y-128273350D01*
X38480000Y-128330202D01*
X38576373Y-128370870D01*
X38695946Y-128397300D01*
X38843799Y-128406894D01*
X38989706Y-128397367D01*
X39108924Y-128370997D01*
X39206134Y-128330202D01*
X39295412Y-128273260D01*
X39368975Y-128208740D01*
X39428517Y-128136395D01*
X39496820Y-128013903D01*
X39539037Y-127881284D01*
X39561369Y-127744793D01*
X39568468Y-127620554D01*
X39568468Y-126570188D01*
X39843974Y-126570188D01*
X40507093Y-126570188D01*
X40507093Y-128360000D01*
X40708594Y-128360000D01*
X40708594Y-126570188D01*
X41371713Y-126570188D01*
X41371713Y-126382609D01*
X39843974Y-126382609D01*
X39843974Y-126570188D01*
X39568468Y-126570188D01*
X39568468Y-126382609D01*
X39366968Y-126382609D01*
X39366968Y-127596008D01*
X39359416Y-127732601D01*
X39339002Y-127839518D01*
X39305379Y-127935574D01*
X39264874Y-128010610D01*
X39214767Y-128074093D01*
X39161315Y-128120519D01*
X39102984Y-128156840D01*
X39046521Y-128183168D01*
X38934658Y-128212355D01*
X38843677Y-128219316D01*
X38751353Y-128212355D01*
X38640834Y-128183168D01*
X38584475Y-128156848D01*
X38526162Y-128120519D01*
X38472710Y-128074093D01*
X38422603Y-128010610D01*
X38382098Y-127935574D01*
X38348475Y-127839518D01*
X38328060Y-127732601D01*
X38320509Y-127596008D01*
X38320509Y-126382609D01*
X38119131Y-126382609D01*
X38119131Y-127620554D01*
X37719571Y-127620554D01*
X37739359Y-127516666D01*
X37748370Y-127367397D01*
X37739359Y-127218127D01*
X37713025Y-127079870D01*
X37669968Y-126951085D01*
X37610484Y-126829076D01*
X37538326Y-126720011D01*
X37453203Y-126622700D01*
X37355859Y-126537593D01*
X37247103Y-126465524D01*
X37125795Y-126406179D01*
X36997855Y-126363086D01*
X36861715Y-126336845D01*
X36715956Y-126327899D01*
X36570114Y-126336844D01*
X36433892Y-126363086D01*
X36305872Y-126406179D01*
X36184643Y-126465518D01*
X36075926Y-126537586D01*
X35978587Y-126622700D01*
X35893453Y-126720007D01*
X35821254Y-126829073D01*
X35761699Y-126951085D01*
X35718711Y-127079865D01*
X35692417Y-127218122D01*
X35683419Y-127367397D01*
X35461197Y-127367397D01*
X35461197Y-126105677D01*
X41593935Y-126105677D01*
X41593935Y-128629116D01*
G37*
G36*
X37492404Y-50060000D02*
G01*
X37291026Y-50060000D01*
X37291026Y-48082609D01*
X37492404Y-48082609D01*
X37492404Y-50060000D01*
G37*
G36*
X39462100Y-49758360D02*
G01*
X39467718Y-49758360D01*
X39467718Y-48082609D01*
X39669218Y-48082609D01*
X39669218Y-50060000D01*
X39417404Y-50060000D01*
X38236612Y-48367519D01*
X38230994Y-48367519D01*
X38230994Y-50060000D01*
X38029616Y-50060000D01*
X38029616Y-48082609D01*
X38281430Y-48082609D01*
X39462100Y-49758360D01*
G37*
G36*
X37492404Y-79060000D02*
G01*
X37291026Y-79060000D01*
X37291026Y-77082609D01*
X37492404Y-77082609D01*
X37492404Y-79060000D01*
G37*
G36*
X39462100Y-78758360D02*
G01*
X39467718Y-78758360D01*
X39467718Y-77082609D01*
X39669218Y-77082609D01*
X39669218Y-79060000D01*
X39417404Y-79060000D01*
X38236612Y-77367519D01*
X38230994Y-77367519D01*
X38230994Y-79060000D01*
X38029616Y-79060000D01*
X38029616Y-77082609D01*
X38281430Y-77082609D01*
X39462100Y-78758360D01*
G37*
G36*
X37492404Y-108060000D02*
G01*
X37291026Y-108060000D01*
X37291026Y-106082609D01*
X37492404Y-106082609D01*
X37492404Y-108060000D01*
G37*
G36*
X39462100Y-107758360D02*
G01*
X39467718Y-107758360D01*
X39467718Y-106082609D01*
X39669218Y-106082609D01*
X39669218Y-108060000D01*
X39417404Y-108060000D01*
X38236612Y-106367519D01*
X38230994Y-106367519D01*
X38230994Y-108060000D01*
X38029616Y-108060000D01*
X38029616Y-106082609D01*
X38281430Y-106082609D01*
X39462100Y-107758360D01*
G37*
G36*
X49881226Y-48223588D02*
G01*
X49994456Y-48247055D01*
X50097285Y-48285087D01*
X50193835Y-48337369D01*
X50278807Y-48399480D01*
X50353252Y-48471688D01*
X50445567Y-48597227D01*
X50514208Y-48743042D01*
X50556043Y-48900719D01*
X50570139Y-49067397D01*
X50556043Y-49234074D01*
X50514208Y-49391751D01*
X50445572Y-49537587D01*
X50353252Y-49663227D01*
X50278815Y-49735361D01*
X50193843Y-49797433D01*
X50097285Y-49849706D01*
X49994456Y-49887738D01*
X49881226Y-49911205D01*
X49755834Y-49919316D01*
X49630523Y-49911207D01*
X49517332Y-49887742D01*
X49414504Y-49849706D01*
X49317940Y-49797438D01*
X49232926Y-49735367D01*
X49158416Y-49663227D01*
X49066191Y-49537595D01*
X48997582Y-49391751D01*
X48955746Y-49234074D01*
X48941650Y-49067397D01*
X48955746Y-48900719D01*
X48997582Y-48743042D01*
X49066197Y-48597219D01*
X49158416Y-48471688D01*
X49232934Y-48399475D01*
X49317949Y-48337364D01*
X49414504Y-48285087D01*
X49517332Y-48247051D01*
X49630523Y-48223586D01*
X49755834Y-48215478D01*
X49881226Y-48223588D01*
G37*
G36*
X54633935Y-50329116D02*
G01*
X48501197Y-50329116D01*
X48501197Y-49067397D01*
X48723419Y-49067397D01*
X48732417Y-49216671D01*
X48758711Y-49354928D01*
X48801699Y-49483709D01*
X48861254Y-49605721D01*
X48933453Y-49714786D01*
X49018587Y-49812093D01*
X49115922Y-49897218D01*
X49224639Y-49969326D01*
X49345872Y-50028736D01*
X49473887Y-50071761D01*
X49610109Y-50097962D01*
X49755956Y-50106894D01*
X49901720Y-50097962D01*
X50037861Y-50071761D01*
X50165795Y-50028736D01*
X50287107Y-49969320D01*
X50395863Y-49897211D01*
X50493203Y-49812093D01*
X50578326Y-49714782D01*
X50650484Y-49605717D01*
X50709968Y-49483709D01*
X50753025Y-49354923D01*
X50759571Y-49320554D01*
X51159131Y-49320554D01*
X51166201Y-49444795D01*
X51188440Y-49581284D01*
X51230722Y-49713913D01*
X51298960Y-49836395D01*
X51358504Y-49908836D01*
X51431655Y-49973350D01*
X51520000Y-50030202D01*
X51616373Y-50070870D01*
X51735946Y-50097300D01*
X51883799Y-50106894D01*
X52029706Y-50097367D01*
X52148924Y-50070997D01*
X52246134Y-50030202D01*
X52335412Y-49973260D01*
X52408975Y-49908740D01*
X52468517Y-49836395D01*
X52536820Y-49713903D01*
X52579037Y-49581284D01*
X52601369Y-49444793D01*
X52608468Y-49320554D01*
X52608468Y-48270188D01*
X52883974Y-48270188D01*
X53547093Y-48270188D01*
X53547093Y-50060000D01*
X53748594Y-50060000D01*
X53748594Y-48270188D01*
X54411713Y-48270188D01*
X54411713Y-48082609D01*
X52883974Y-48082609D01*
X52883974Y-48270188D01*
X52608468Y-48270188D01*
X52608468Y-48082609D01*
X52406968Y-48082609D01*
X52406968Y-49296008D01*
X52399416Y-49432601D01*
X52379002Y-49539518D01*
X52345379Y-49635574D01*
X52304874Y-49710610D01*
X52254767Y-49774093D01*
X52201315Y-49820519D01*
X52142984Y-49856840D01*
X52086521Y-49883168D01*
X51974658Y-49912355D01*
X51883677Y-49919316D01*
X51791353Y-49912355D01*
X51680834Y-49883168D01*
X51624475Y-49856848D01*
X51566162Y-49820519D01*
X51512710Y-49774093D01*
X51462603Y-49710610D01*
X51422098Y-49635574D01*
X51388475Y-49539518D01*
X51368060Y-49432601D01*
X51360509Y-49296008D01*
X51360509Y-48082609D01*
X51159131Y-48082609D01*
X51159131Y-49320554D01*
X50759571Y-49320554D01*
X50779359Y-49216666D01*
X50788370Y-49067397D01*
X50779359Y-48918127D01*
X50753025Y-48779870D01*
X50709968Y-48651085D01*
X50650484Y-48529076D01*
X50578326Y-48420011D01*
X50493203Y-48322700D01*
X50395859Y-48237593D01*
X50287103Y-48165524D01*
X50165795Y-48106179D01*
X50037855Y-48063086D01*
X49901715Y-48036845D01*
X49755956Y-48027899D01*
X49610114Y-48036844D01*
X49473892Y-48063086D01*
X49345872Y-48106179D01*
X49224643Y-48165518D01*
X49115926Y-48237586D01*
X49018587Y-48322700D01*
X48933453Y-48420007D01*
X48861254Y-48529073D01*
X48801699Y-48651085D01*
X48758711Y-48779865D01*
X48732417Y-48918122D01*
X48723419Y-49067397D01*
X48501197Y-49067397D01*
X48501197Y-47805677D01*
X54633935Y-47805677D01*
X54633935Y-50329116D01*
G37*
G36*
X49881226Y-68523588D02*
G01*
X49994456Y-68547055D01*
X50097285Y-68585087D01*
X50193835Y-68637369D01*
X50278807Y-68699480D01*
X50353252Y-68771688D01*
X50445567Y-68897227D01*
X50514208Y-69043042D01*
X50556043Y-69200719D01*
X50570139Y-69367397D01*
X50556043Y-69534074D01*
X50514208Y-69691751D01*
X50445572Y-69837587D01*
X50353252Y-69963227D01*
X50278815Y-70035361D01*
X50193843Y-70097433D01*
X50097285Y-70149706D01*
X49994456Y-70187738D01*
X49881226Y-70211205D01*
X49755834Y-70219316D01*
X49630523Y-70211207D01*
X49517332Y-70187742D01*
X49414504Y-70149706D01*
X49317940Y-70097438D01*
X49232926Y-70035367D01*
X49158416Y-69963227D01*
X49066191Y-69837595D01*
X48997582Y-69691751D01*
X48955746Y-69534074D01*
X48941650Y-69367397D01*
X48955746Y-69200719D01*
X48997582Y-69043042D01*
X49066197Y-68897219D01*
X49158416Y-68771688D01*
X49232934Y-68699475D01*
X49317949Y-68637364D01*
X49414504Y-68585087D01*
X49517332Y-68547051D01*
X49630523Y-68523586D01*
X49755834Y-68515478D01*
X49881226Y-68523588D01*
G37*
G36*
X54633935Y-70629116D02*
G01*
X48501197Y-70629116D01*
X48501197Y-69367397D01*
X48723419Y-69367397D01*
X48732417Y-69516671D01*
X48758711Y-69654928D01*
X48801699Y-69783709D01*
X48861254Y-69905721D01*
X48933453Y-70014786D01*
X49018587Y-70112093D01*
X49115922Y-70197218D01*
X49224639Y-70269326D01*
X49345872Y-70328736D01*
X49473887Y-70371761D01*
X49610109Y-70397962D01*
X49755956Y-70406894D01*
X49901720Y-70397962D01*
X50037861Y-70371761D01*
X50165795Y-70328736D01*
X50287107Y-70269320D01*
X50395863Y-70197211D01*
X50493203Y-70112093D01*
X50578326Y-70014782D01*
X50650484Y-69905717D01*
X50709968Y-69783709D01*
X50753025Y-69654923D01*
X50759571Y-69620554D01*
X51159131Y-69620554D01*
X51166201Y-69744795D01*
X51188440Y-69881284D01*
X51230722Y-70013913D01*
X51298960Y-70136395D01*
X51358504Y-70208836D01*
X51431655Y-70273350D01*
X51520000Y-70330202D01*
X51616373Y-70370870D01*
X51735946Y-70397300D01*
X51883799Y-70406894D01*
X52029706Y-70397367D01*
X52148924Y-70370997D01*
X52246134Y-70330202D01*
X52335412Y-70273260D01*
X52408975Y-70208740D01*
X52468517Y-70136395D01*
X52536820Y-70013903D01*
X52579037Y-69881284D01*
X52601369Y-69744793D01*
X52608468Y-69620554D01*
X52608468Y-68570188D01*
X52883974Y-68570188D01*
X53547093Y-68570188D01*
X53547093Y-70360000D01*
X53748594Y-70360000D01*
X53748594Y-68570188D01*
X54411713Y-68570188D01*
X54411713Y-68382609D01*
X52883974Y-68382609D01*
X52883974Y-68570188D01*
X52608468Y-68570188D01*
X52608468Y-68382609D01*
X52406968Y-68382609D01*
X52406968Y-69596008D01*
X52399416Y-69732601D01*
X52379002Y-69839518D01*
X52345379Y-69935574D01*
X52304874Y-70010610D01*
X52254767Y-70074093D01*
X52201315Y-70120519D01*
X52142984Y-70156840D01*
X52086521Y-70183168D01*
X51974658Y-70212355D01*
X51883677Y-70219316D01*
X51791353Y-70212355D01*
X51680834Y-70183168D01*
X51624475Y-70156848D01*
X51566162Y-70120519D01*
X51512710Y-70074093D01*
X51462603Y-70010610D01*
X51422098Y-69935574D01*
X51388475Y-69839518D01*
X51368060Y-69732601D01*
X51360509Y-69596008D01*
X51360509Y-68382609D01*
X51159131Y-68382609D01*
X51159131Y-69620554D01*
X50759571Y-69620554D01*
X50779359Y-69516666D01*
X50788370Y-69367397D01*
X50779359Y-69218127D01*
X50753025Y-69079870D01*
X50709968Y-68951085D01*
X50650484Y-68829076D01*
X50578326Y-68720011D01*
X50493203Y-68622700D01*
X50395859Y-68537593D01*
X50287103Y-68465524D01*
X50165795Y-68406179D01*
X50037855Y-68363086D01*
X49901715Y-68336845D01*
X49755956Y-68327899D01*
X49610114Y-68336844D01*
X49473892Y-68363086D01*
X49345872Y-68406179D01*
X49224643Y-68465518D01*
X49115926Y-68537586D01*
X49018587Y-68622700D01*
X48933453Y-68720007D01*
X48861254Y-68829073D01*
X48801699Y-68951085D01*
X48758711Y-69079865D01*
X48732417Y-69218122D01*
X48723419Y-69367397D01*
X48501197Y-69367397D01*
X48501197Y-68105677D01*
X54633935Y-68105677D01*
X54633935Y-70629116D01*
G37*
G36*
X49881226Y-77223588D02*
G01*
X49994456Y-77247055D01*
X50097285Y-77285087D01*
X50193835Y-77337369D01*
X50278807Y-77399480D01*
X50353252Y-77471688D01*
X50445567Y-77597227D01*
X50514208Y-77743042D01*
X50556043Y-77900719D01*
X50570139Y-78067397D01*
X50556043Y-78234074D01*
X50514208Y-78391751D01*
X50445572Y-78537587D01*
X50353252Y-78663227D01*
X50278815Y-78735361D01*
X50193843Y-78797433D01*
X50097285Y-78849706D01*
X49994456Y-78887738D01*
X49881226Y-78911205D01*
X49755834Y-78919316D01*
X49630523Y-78911207D01*
X49517332Y-78887742D01*
X49414504Y-78849706D01*
X49317940Y-78797438D01*
X49232926Y-78735367D01*
X49158416Y-78663227D01*
X49066191Y-78537595D01*
X48997582Y-78391751D01*
X48955746Y-78234074D01*
X48941650Y-78067397D01*
X48955746Y-77900719D01*
X48997582Y-77743042D01*
X49066197Y-77597219D01*
X49158416Y-77471688D01*
X49232934Y-77399475D01*
X49317949Y-77337364D01*
X49414504Y-77285087D01*
X49517332Y-77247051D01*
X49630523Y-77223586D01*
X49755834Y-77215478D01*
X49881226Y-77223588D01*
G37*
G36*
X54633935Y-79329116D02*
G01*
X48501197Y-79329116D01*
X48501197Y-78067397D01*
X48723419Y-78067397D01*
X48732417Y-78216671D01*
X48758711Y-78354928D01*
X48801699Y-78483709D01*
X48861254Y-78605721D01*
X48933453Y-78714786D01*
X49018587Y-78812093D01*
X49115922Y-78897218D01*
X49224639Y-78969326D01*
X49345872Y-79028736D01*
X49473887Y-79071761D01*
X49610109Y-79097962D01*
X49755956Y-79106894D01*
X49901720Y-79097962D01*
X50037861Y-79071761D01*
X50165795Y-79028736D01*
X50287107Y-78969320D01*
X50395863Y-78897211D01*
X50493203Y-78812093D01*
X50578326Y-78714782D01*
X50650484Y-78605717D01*
X50709968Y-78483709D01*
X50753025Y-78354923D01*
X50759571Y-78320554D01*
X51159131Y-78320554D01*
X51166201Y-78444795D01*
X51188440Y-78581284D01*
X51230722Y-78713913D01*
X51298960Y-78836395D01*
X51358504Y-78908836D01*
X51431655Y-78973350D01*
X51520000Y-79030202D01*
X51616373Y-79070870D01*
X51735946Y-79097300D01*
X51883799Y-79106894D01*
X52029706Y-79097367D01*
X52148924Y-79070997D01*
X52246134Y-79030202D01*
X52335412Y-78973260D01*
X52408975Y-78908740D01*
X52468517Y-78836395D01*
X52536820Y-78713903D01*
X52579037Y-78581284D01*
X52601369Y-78444793D01*
X52608468Y-78320554D01*
X52608468Y-77270188D01*
X52883974Y-77270188D01*
X53547093Y-77270188D01*
X53547093Y-79060000D01*
X53748594Y-79060000D01*
X53748594Y-77270188D01*
X54411713Y-77270188D01*
X54411713Y-77082609D01*
X52883974Y-77082609D01*
X52883974Y-77270188D01*
X52608468Y-77270188D01*
X52608468Y-77082609D01*
X52406968Y-77082609D01*
X52406968Y-78296008D01*
X52399416Y-78432601D01*
X52379002Y-78539518D01*
X52345379Y-78635574D01*
X52304874Y-78710610D01*
X52254767Y-78774093D01*
X52201315Y-78820519D01*
X52142984Y-78856840D01*
X52086521Y-78883168D01*
X51974658Y-78912355D01*
X51883677Y-78919316D01*
X51791353Y-78912355D01*
X51680834Y-78883168D01*
X51624475Y-78856848D01*
X51566162Y-78820519D01*
X51512710Y-78774093D01*
X51462603Y-78710610D01*
X51422098Y-78635574D01*
X51388475Y-78539518D01*
X51368060Y-78432601D01*
X51360509Y-78296008D01*
X51360509Y-77082609D01*
X51159131Y-77082609D01*
X51159131Y-78320554D01*
X50759571Y-78320554D01*
X50779359Y-78216666D01*
X50788370Y-78067397D01*
X50779359Y-77918127D01*
X50753025Y-77779870D01*
X50709968Y-77651085D01*
X50650484Y-77529076D01*
X50578326Y-77420011D01*
X50493203Y-77322700D01*
X50395859Y-77237593D01*
X50287103Y-77165524D01*
X50165795Y-77106179D01*
X50037855Y-77063086D01*
X49901715Y-77036845D01*
X49755956Y-77027899D01*
X49610114Y-77036844D01*
X49473892Y-77063086D01*
X49345872Y-77106179D01*
X49224643Y-77165518D01*
X49115926Y-77237586D01*
X49018587Y-77322700D01*
X48933453Y-77420007D01*
X48861254Y-77529073D01*
X48801699Y-77651085D01*
X48758711Y-77779865D01*
X48732417Y-77918122D01*
X48723419Y-78067397D01*
X48501197Y-78067397D01*
X48501197Y-76805677D01*
X54633935Y-76805677D01*
X54633935Y-79329116D01*
G37*
G36*
X49881226Y-97523588D02*
G01*
X49994456Y-97547055D01*
X50097285Y-97585087D01*
X50193835Y-97637369D01*
X50278807Y-97699480D01*
X50353252Y-97771688D01*
X50445567Y-97897227D01*
X50514208Y-98043042D01*
X50556043Y-98200719D01*
X50570139Y-98367397D01*
X50556043Y-98534074D01*
X50514208Y-98691751D01*
X50445572Y-98837587D01*
X50353252Y-98963227D01*
X50278815Y-99035361D01*
X50193843Y-99097433D01*
X50097285Y-99149706D01*
X49994456Y-99187738D01*
X49881226Y-99211205D01*
X49755834Y-99219316D01*
X49630523Y-99211207D01*
X49517332Y-99187742D01*
X49414504Y-99149706D01*
X49317940Y-99097438D01*
X49232926Y-99035367D01*
X49158416Y-98963227D01*
X49066191Y-98837595D01*
X48997582Y-98691751D01*
X48955746Y-98534074D01*
X48941650Y-98367397D01*
X48955746Y-98200719D01*
X48997582Y-98043042D01*
X49066197Y-97897219D01*
X49158416Y-97771688D01*
X49232934Y-97699475D01*
X49317949Y-97637364D01*
X49414504Y-97585087D01*
X49517332Y-97547051D01*
X49630523Y-97523586D01*
X49755834Y-97515478D01*
X49881226Y-97523588D01*
G37*
G36*
X54633935Y-99629116D02*
G01*
X48501197Y-99629116D01*
X48501197Y-98367397D01*
X48723419Y-98367397D01*
X48732417Y-98516671D01*
X48758711Y-98654928D01*
X48801699Y-98783709D01*
X48861254Y-98905721D01*
X48933453Y-99014786D01*
X49018587Y-99112093D01*
X49115922Y-99197218D01*
X49224639Y-99269326D01*
X49345872Y-99328736D01*
X49473887Y-99371761D01*
X49610109Y-99397962D01*
X49755956Y-99406894D01*
X49901720Y-99397962D01*
X50037861Y-99371761D01*
X50165795Y-99328736D01*
X50287107Y-99269320D01*
X50395863Y-99197211D01*
X50493203Y-99112093D01*
X50578326Y-99014782D01*
X50650484Y-98905717D01*
X50709968Y-98783709D01*
X50753025Y-98654923D01*
X50759571Y-98620554D01*
X51159131Y-98620554D01*
X51166201Y-98744795D01*
X51188440Y-98881284D01*
X51230722Y-99013913D01*
X51298960Y-99136395D01*
X51358504Y-99208836D01*
X51431655Y-99273350D01*
X51520000Y-99330202D01*
X51616373Y-99370870D01*
X51735946Y-99397300D01*
X51883799Y-99406894D01*
X52029706Y-99397367D01*
X52148924Y-99370997D01*
X52246134Y-99330202D01*
X52335412Y-99273260D01*
X52408975Y-99208740D01*
X52468517Y-99136395D01*
X52536820Y-99013903D01*
X52579037Y-98881284D01*
X52601369Y-98744793D01*
X52608468Y-98620554D01*
X52608468Y-97570188D01*
X52883974Y-97570188D01*
X53547093Y-97570188D01*
X53547093Y-99360000D01*
X53748594Y-99360000D01*
X53748594Y-97570188D01*
X54411713Y-97570188D01*
X54411713Y-97382609D01*
X52883974Y-97382609D01*
X52883974Y-97570188D01*
X52608468Y-97570188D01*
X52608468Y-97382609D01*
X52406968Y-97382609D01*
X52406968Y-98596008D01*
X52399416Y-98732601D01*
X52379002Y-98839518D01*
X52345379Y-98935574D01*
X52304874Y-99010610D01*
X52254767Y-99074093D01*
X52201315Y-99120519D01*
X52142984Y-99156840D01*
X52086521Y-99183168D01*
X51974658Y-99212355D01*
X51883677Y-99219316D01*
X51791353Y-99212355D01*
X51680834Y-99183168D01*
X51624475Y-99156848D01*
X51566162Y-99120519D01*
X51512710Y-99074093D01*
X51462603Y-99010610D01*
X51422098Y-98935574D01*
X51388475Y-98839518D01*
X51368060Y-98732601D01*
X51360509Y-98596008D01*
X51360509Y-97382609D01*
X51159131Y-97382609D01*
X51159131Y-98620554D01*
X50759571Y-98620554D01*
X50779359Y-98516666D01*
X50788370Y-98367397D01*
X50779359Y-98218127D01*
X50753025Y-98079870D01*
X50709968Y-97951085D01*
X50650484Y-97829076D01*
X50578326Y-97720011D01*
X50493203Y-97622700D01*
X50395859Y-97537593D01*
X50287103Y-97465524D01*
X50165795Y-97406179D01*
X50037855Y-97363086D01*
X49901715Y-97336845D01*
X49755956Y-97327899D01*
X49610114Y-97336844D01*
X49473892Y-97363086D01*
X49345872Y-97406179D01*
X49224643Y-97465518D01*
X49115926Y-97537586D01*
X49018587Y-97622700D01*
X48933453Y-97720007D01*
X48861254Y-97829073D01*
X48801699Y-97951085D01*
X48758711Y-98079865D01*
X48732417Y-98218122D01*
X48723419Y-98367397D01*
X48501197Y-98367397D01*
X48501197Y-97105677D01*
X54633935Y-97105677D01*
X54633935Y-99629116D01*
G37*
G36*
X49881226Y-106223588D02*
G01*
X49994456Y-106247055D01*
X50097285Y-106285087D01*
X50193835Y-106337369D01*
X50278807Y-106399480D01*
X50353252Y-106471688D01*
X50445567Y-106597227D01*
X50514208Y-106743042D01*
X50556043Y-106900719D01*
X50570139Y-107067397D01*
X50556043Y-107234074D01*
X50514208Y-107391751D01*
X50445572Y-107537587D01*
X50353252Y-107663227D01*
X50278815Y-107735361D01*
X50193843Y-107797433D01*
X50097285Y-107849706D01*
X49994456Y-107887738D01*
X49881226Y-107911205D01*
X49755834Y-107919316D01*
X49630523Y-107911207D01*
X49517332Y-107887742D01*
X49414504Y-107849706D01*
X49317940Y-107797438D01*
X49232926Y-107735367D01*
X49158416Y-107663227D01*
X49066191Y-107537595D01*
X48997582Y-107391751D01*
X48955746Y-107234074D01*
X48941650Y-107067397D01*
X48955746Y-106900719D01*
X48997582Y-106743042D01*
X49066197Y-106597219D01*
X49158416Y-106471688D01*
X49232934Y-106399475D01*
X49317949Y-106337364D01*
X49414504Y-106285087D01*
X49517332Y-106247051D01*
X49630523Y-106223586D01*
X49755834Y-106215478D01*
X49881226Y-106223588D01*
G37*
G36*
X54633935Y-108329116D02*
G01*
X48501197Y-108329116D01*
X48501197Y-107067397D01*
X48723419Y-107067397D01*
X48732417Y-107216671D01*
X48758711Y-107354928D01*
X48801699Y-107483709D01*
X48861254Y-107605721D01*
X48933453Y-107714786D01*
X49018587Y-107812093D01*
X49115922Y-107897218D01*
X49224639Y-107969326D01*
X49345872Y-108028736D01*
X49473887Y-108071761D01*
X49610109Y-108097962D01*
X49755956Y-108106894D01*
X49901720Y-108097962D01*
X50037861Y-108071761D01*
X50165795Y-108028736D01*
X50287107Y-107969320D01*
X50395863Y-107897211D01*
X50493203Y-107812093D01*
X50578326Y-107714782D01*
X50650484Y-107605717D01*
X50709968Y-107483709D01*
X50753025Y-107354923D01*
X50759571Y-107320554D01*
X51159131Y-107320554D01*
X51166201Y-107444795D01*
X51188440Y-107581284D01*
X51230722Y-107713913D01*
X51298960Y-107836395D01*
X51358504Y-107908836D01*
X51431655Y-107973350D01*
X51520000Y-108030202D01*
X51616373Y-108070870D01*
X51735946Y-108097300D01*
X51883799Y-108106894D01*
X52029706Y-108097367D01*
X52148924Y-108070997D01*
X52246134Y-108030202D01*
X52335412Y-107973260D01*
X52408975Y-107908740D01*
X52468517Y-107836395D01*
X52536820Y-107713903D01*
X52579037Y-107581284D01*
X52601369Y-107444793D01*
X52608468Y-107320554D01*
X52608468Y-106270188D01*
X52883974Y-106270188D01*
X53547093Y-106270188D01*
X53547093Y-108060000D01*
X53748594Y-108060000D01*
X53748594Y-106270188D01*
X54411713Y-106270188D01*
X54411713Y-106082609D01*
X52883974Y-106082609D01*
X52883974Y-106270188D01*
X52608468Y-106270188D01*
X52608468Y-106082609D01*
X52406968Y-106082609D01*
X52406968Y-107296008D01*
X52399416Y-107432601D01*
X52379002Y-107539518D01*
X52345379Y-107635574D01*
X52304874Y-107710610D01*
X52254767Y-107774093D01*
X52201315Y-107820519D01*
X52142984Y-107856840D01*
X52086521Y-107883168D01*
X51974658Y-107912355D01*
X51883677Y-107919316D01*
X51791353Y-107912355D01*
X51680834Y-107883168D01*
X51624475Y-107856848D01*
X51566162Y-107820519D01*
X51512710Y-107774093D01*
X51462603Y-107710610D01*
X51422098Y-107635574D01*
X51388475Y-107539518D01*
X51368060Y-107432601D01*
X51360509Y-107296008D01*
X51360509Y-106082609D01*
X51159131Y-106082609D01*
X51159131Y-107320554D01*
X50759571Y-107320554D01*
X50779359Y-107216666D01*
X50788370Y-107067397D01*
X50779359Y-106918127D01*
X50753025Y-106779870D01*
X50709968Y-106651085D01*
X50650484Y-106529076D01*
X50578326Y-106420011D01*
X50493203Y-106322700D01*
X50395859Y-106237593D01*
X50287103Y-106165524D01*
X50165795Y-106106179D01*
X50037855Y-106063086D01*
X49901715Y-106036845D01*
X49755956Y-106027899D01*
X49610114Y-106036844D01*
X49473892Y-106063086D01*
X49345872Y-106106179D01*
X49224643Y-106165518D01*
X49115926Y-106237586D01*
X49018587Y-106322700D01*
X48933453Y-106420007D01*
X48861254Y-106529073D01*
X48801699Y-106651085D01*
X48758711Y-106779865D01*
X48732417Y-106918122D01*
X48723419Y-107067397D01*
X48501197Y-107067397D01*
X48501197Y-105805677D01*
X54633935Y-105805677D01*
X54633935Y-108329116D01*
G37*
G36*
X49881226Y-126523588D02*
G01*
X49994456Y-126547055D01*
X50097285Y-126585087D01*
X50193835Y-126637369D01*
X50278807Y-126699480D01*
X50353252Y-126771688D01*
X50445567Y-126897227D01*
X50514208Y-127043042D01*
X50556043Y-127200719D01*
X50570139Y-127367397D01*
X50556043Y-127534074D01*
X50514208Y-127691751D01*
X50445572Y-127837587D01*
X50353252Y-127963227D01*
X50278815Y-128035361D01*
X50193843Y-128097433D01*
X50097285Y-128149706D01*
X49994456Y-128187738D01*
X49881226Y-128211205D01*
X49755834Y-128219316D01*
X49630523Y-128211207D01*
X49517332Y-128187742D01*
X49414504Y-128149706D01*
X49317940Y-128097438D01*
X49232926Y-128035367D01*
X49158416Y-127963227D01*
X49066191Y-127837595D01*
X48997582Y-127691751D01*
X48955746Y-127534074D01*
X48941650Y-127367397D01*
X48955746Y-127200719D01*
X48997582Y-127043042D01*
X49066197Y-126897219D01*
X49158416Y-126771688D01*
X49232934Y-126699475D01*
X49317949Y-126637364D01*
X49414504Y-126585087D01*
X49517332Y-126547051D01*
X49630523Y-126523586D01*
X49755834Y-126515478D01*
X49881226Y-126523588D01*
G37*
G36*
X54633935Y-128629116D02*
G01*
X48501197Y-128629116D01*
X48501197Y-127367397D01*
X48723419Y-127367397D01*
X48732417Y-127516671D01*
X48758711Y-127654928D01*
X48801699Y-127783709D01*
X48861254Y-127905721D01*
X48933453Y-128014786D01*
X49018587Y-128112093D01*
X49115922Y-128197218D01*
X49224639Y-128269326D01*
X49345872Y-128328736D01*
X49473887Y-128371761D01*
X49610109Y-128397962D01*
X49755956Y-128406894D01*
X49901720Y-128397962D01*
X50037861Y-128371761D01*
X50165795Y-128328736D01*
X50287107Y-128269320D01*
X50395863Y-128197211D01*
X50493203Y-128112093D01*
X50578326Y-128014782D01*
X50650484Y-127905717D01*
X50709968Y-127783709D01*
X50753025Y-127654923D01*
X50759571Y-127620554D01*
X51159131Y-127620554D01*
X51166201Y-127744795D01*
X51188440Y-127881284D01*
X51230722Y-128013913D01*
X51298960Y-128136395D01*
X51358504Y-128208836D01*
X51431655Y-128273350D01*
X51520000Y-128330202D01*
X51616373Y-128370870D01*
X51735946Y-128397300D01*
X51883799Y-128406894D01*
X52029706Y-128397367D01*
X52148924Y-128370997D01*
X52246134Y-128330202D01*
X52335412Y-128273260D01*
X52408975Y-128208740D01*
X52468517Y-128136395D01*
X52536820Y-128013903D01*
X52579037Y-127881284D01*
X52601369Y-127744793D01*
X52608468Y-127620554D01*
X52608468Y-126570188D01*
X52883974Y-126570188D01*
X53547093Y-126570188D01*
X53547093Y-128360000D01*
X53748594Y-128360000D01*
X53748594Y-126570188D01*
X54411713Y-126570188D01*
X54411713Y-126382609D01*
X52883974Y-126382609D01*
X52883974Y-126570188D01*
X52608468Y-126570188D01*
X52608468Y-126382609D01*
X52406968Y-126382609D01*
X52406968Y-127596008D01*
X52399416Y-127732601D01*
X52379002Y-127839518D01*
X52345379Y-127935574D01*
X52304874Y-128010610D01*
X52254767Y-128074093D01*
X52201315Y-128120519D01*
X52142984Y-128156840D01*
X52086521Y-128183168D01*
X51974658Y-128212355D01*
X51883677Y-128219316D01*
X51791353Y-128212355D01*
X51680834Y-128183168D01*
X51624475Y-128156848D01*
X51566162Y-128120519D01*
X51512710Y-128074093D01*
X51462603Y-128010610D01*
X51422098Y-127935574D01*
X51388475Y-127839518D01*
X51368060Y-127732601D01*
X51360509Y-127596008D01*
X51360509Y-126382609D01*
X51159131Y-126382609D01*
X51159131Y-127620554D01*
X50759571Y-127620554D01*
X50779359Y-127516666D01*
X50788370Y-127367397D01*
X50779359Y-127218127D01*
X50753025Y-127079870D01*
X50709968Y-126951085D01*
X50650484Y-126829076D01*
X50578326Y-126720011D01*
X50493203Y-126622700D01*
X50395859Y-126537593D01*
X50287103Y-126465524D01*
X50165795Y-126406179D01*
X50037855Y-126363086D01*
X49901715Y-126336845D01*
X49755956Y-126327899D01*
X49610114Y-126336844D01*
X49473892Y-126363086D01*
X49345872Y-126406179D01*
X49224643Y-126465518D01*
X49115926Y-126537586D01*
X49018587Y-126622700D01*
X48933453Y-126720007D01*
X48861254Y-126829073D01*
X48801699Y-126951085D01*
X48758711Y-127079865D01*
X48732417Y-127218122D01*
X48723419Y-127367397D01*
X48501197Y-127367397D01*
X48501197Y-126105677D01*
X54633935Y-126105677D01*
X54633935Y-128629116D01*
G37*
%LPC*%
D13*
G36*
X40509277Y-133376175D02*
G01*
X40538669Y-133378409D01*
X40567637Y-133382090D01*
X40596144Y-133387183D01*
X40624146Y-133393644D01*
X40651611Y-133401443D01*
X40678508Y-133410543D01*
X40704791Y-133420908D01*
X40730432Y-133432501D01*
X40755387Y-133445280D01*
X40779627Y-133459221D01*
X40803111Y-133474271D01*
X40825805Y-133490411D01*
X40847670Y-133507593D01*
X40868675Y-133525788D01*
X40888773Y-133544951D01*
X40907940Y-133565050D01*
X40926129Y-133586058D01*
X40943315Y-133607917D01*
X40959450Y-133630614D01*
X40974507Y-133654099D01*
X40988443Y-133678339D01*
X41001228Y-133703298D01*
X41012819Y-133728933D01*
X41023181Y-133755220D01*
X41032282Y-133782115D01*
X41040081Y-133809581D01*
X41046544Y-133837585D01*
X41051633Y-133866089D01*
X41055315Y-133895054D01*
X41057551Y-133924452D01*
X41058306Y-133954236D01*
X41057551Y-133984023D01*
X41055315Y-134013416D01*
X41051633Y-134042386D01*
X41046544Y-134070886D01*
X41040081Y-134098891D01*
X41032282Y-134126360D01*
X41023181Y-134153254D01*
X41012819Y-134179537D01*
X41001228Y-134205179D01*
X40988443Y-134230134D01*
X40974507Y-134254372D01*
X40959450Y-134277856D01*
X40943315Y-134300548D01*
X40926129Y-134322416D01*
X40907940Y-134343417D01*
X40888773Y-134363520D01*
X40868675Y-134382682D01*
X40847670Y-134400873D01*
X40825805Y-134418059D01*
X40803111Y-134434200D01*
X40779627Y-134449254D01*
X40755387Y-134463189D01*
X40730432Y-134475974D01*
X40704791Y-134487562D01*
X40678508Y-134497928D01*
X40651611Y-134507029D01*
X40624146Y-134514827D01*
X40596144Y-134521288D01*
X40567637Y-134526378D01*
X40538669Y-134530061D01*
X40509277Y-134532297D01*
X40479491Y-134533049D01*
X40449704Y-134532297D01*
X40420309Y-134530061D01*
X40391342Y-134526378D01*
X40362843Y-134521288D01*
X40334836Y-134514827D01*
X40307369Y-134507029D01*
X40280477Y-134497928D01*
X40254190Y-134487562D01*
X40228549Y-134475974D01*
X40203593Y-134463189D01*
X40179353Y-134449254D01*
X40155869Y-134434200D01*
X40133175Y-134418059D01*
X40111312Y-134400873D01*
X40090308Y-134382682D01*
X40070209Y-134363520D01*
X40051043Y-134343417D01*
X40032850Y-134322416D01*
X40015668Y-134300548D01*
X39999529Y-134277856D01*
X39984477Y-134254372D01*
X39970536Y-134230134D01*
X39957754Y-134205179D01*
X39946165Y-134179537D01*
X39935798Y-134153254D01*
X39926699Y-134126360D01*
X39918898Y-134098891D01*
X39912435Y-134070886D01*
X39907346Y-134042386D01*
X39903665Y-134013416D01*
X39901426Y-133984023D01*
X39900676Y-133954236D01*
X39901426Y-133924452D01*
X39903665Y-133895054D01*
X39907346Y-133866089D01*
X39912435Y-133837585D01*
X39918898Y-133809581D01*
X39926699Y-133782115D01*
X39935798Y-133755220D01*
X39946165Y-133728933D01*
X39957754Y-133703298D01*
X39970536Y-133678339D01*
X39984477Y-133654099D01*
X39999529Y-133630614D01*
X40015668Y-133607917D01*
X40032850Y-133586058D01*
X40051043Y-133565050D01*
X40070209Y-133544951D01*
X40090308Y-133525788D01*
X40111312Y-133507593D01*
X40133175Y-133490411D01*
X40155869Y-133474271D01*
X40179353Y-133459221D01*
X40203593Y-133445280D01*
X40228549Y-133432501D01*
X40254190Y-133420908D01*
X40280477Y-133410543D01*
X40307369Y-133401443D01*
X40334836Y-133393644D01*
X40362843Y-133387183D01*
X40391342Y-133382090D01*
X40420309Y-133378409D01*
X40449704Y-133376175D01*
X40479491Y-133375422D01*
X40509277Y-133376175D01*
G37*
D14*
X51616540Y-131639582D02*
X51640058Y-131641372D01*
X51663233Y-131644316D01*
X51686034Y-131648388D01*
X51708437Y-131653559D01*
X51730412Y-131659798D01*
X51751928Y-131667079D01*
X51772952Y-131675370D01*
X51793466Y-131684644D01*
X51813432Y-131694867D01*
X51832823Y-131706023D01*
X51851610Y-131718064D01*
X51869765Y-131730972D01*
X51887257Y-131744722D01*
X51904060Y-131759273D01*
X51920143Y-131774605D01*
X51935472Y-131790685D01*
X51950027Y-131807487D01*
X51963774Y-131824980D01*
X51976684Y-131843135D01*
X51988729Y-131861924D01*
X51999875Y-131881314D01*
X52010102Y-131901279D01*
X52019378Y-131921792D01*
X52027666Y-131942818D01*
X52034949Y-131964334D01*
X52041189Y-131986309D01*
X52046357Y-132008711D01*
X52050427Y-132031511D01*
X52053377Y-132054688D01*
X52055163Y-132078205D01*
X52055765Y-132102033D01*
X52055765Y-149697968D01*
X52055163Y-149721796D01*
X52053377Y-149745313D01*
X52050427Y-149768490D01*
X52046357Y-149791289D01*
X52041189Y-149813691D01*
X52034949Y-149835667D01*
X52027666Y-149857182D01*
X52019378Y-149878208D01*
X52010102Y-149898721D01*
X51999875Y-149918686D01*
X51988729Y-149938076D01*
X51976684Y-149956865D01*
X51963774Y-149975020D01*
X51950027Y-149992513D01*
X51935472Y-150009315D01*
X51920143Y-150025395D01*
X51904060Y-150040728D01*
X51887257Y-150055278D01*
X51869765Y-150069028D01*
X51851610Y-150081937D01*
X51832823Y-150093979D01*
X51813432Y-150105134D01*
X51793466Y-150115357D01*
X51772952Y-150124631D01*
X51751928Y-150132922D01*
X51730412Y-150140203D01*
X51708437Y-150146441D01*
X51686034Y-150151613D01*
X51663233Y-150155684D01*
X51640058Y-150158630D01*
X51616540Y-150160420D01*
X51592715Y-150161021D01*
X38627286Y-150161021D01*
X38603460Y-150160420D01*
X38579944Y-150158630D01*
X38556768Y-150155684D01*
X38533966Y-150151613D01*
X38511564Y-150146441D01*
X38489589Y-150140203D01*
X38468073Y-150132922D01*
X38447049Y-150124631D01*
X38426536Y-150115357D01*
X38406569Y-150105134D01*
X38387177Y-150093979D01*
X38368391Y-150081937D01*
X38350236Y-150069028D01*
X38332743Y-150055278D01*
X38315941Y-150040728D01*
X38299859Y-150025395D01*
X38284530Y-150009315D01*
X38269973Y-149992513D01*
X38256228Y-149975020D01*
X38243319Y-149956865D01*
X38231271Y-149938076D01*
X38220126Y-149918686D01*
X38209899Y-149898721D01*
X38200623Y-149878208D01*
X38192336Y-149857182D01*
X38185052Y-149835667D01*
X38178813Y-149813691D01*
X38173645Y-149791289D01*
X38169573Y-149768490D01*
X38166625Y-149745313D01*
X38164838Y-149721796D01*
X38164236Y-149697968D01*
X38164236Y-132102033D01*
X38164838Y-132078205D01*
X38166625Y-132054688D01*
X38169573Y-132031511D01*
X38173645Y-132008711D01*
X38178813Y-131986309D01*
X38185052Y-131964334D01*
X38192336Y-131942818D01*
X38200623Y-131921792D01*
X38209899Y-131901279D01*
X38220126Y-131881314D01*
X38231271Y-131861924D01*
X38243319Y-131843135D01*
X38256228Y-131824980D01*
X38269973Y-131807487D01*
X38284530Y-131790685D01*
X38299859Y-131774605D01*
X38315941Y-131759273D01*
X38332743Y-131744722D01*
X38350236Y-131730972D01*
X38368391Y-131718064D01*
X38387177Y-131706023D01*
X38406569Y-131694867D01*
X38426536Y-131684644D01*
X38447049Y-131675370D01*
X38468073Y-131667079D01*
X38489589Y-131659798D01*
X38511564Y-131653559D01*
X38533966Y-131648388D01*
X38556768Y-131644316D01*
X38579944Y-131641372D01*
X38603460Y-131639582D01*
X38627286Y-131638980D01*
X51592715Y-131638980D01*
X51616540Y-131639582D01*
D11*
X35000000Y-72300000D02*
X55000000Y-72300000D01*
X35000000Y-101300000D02*
X55000000Y-101300000D01*
D15*
X35848980Y-133954236D02*
X38048471Y-133954236D01*
D16*
X35848980Y-133954236D02*
X38048471Y-133954236D01*
D15*
X35848980Y-136269490D02*
X38048471Y-136269490D01*
D16*
X35848980Y-136269490D02*
X38048471Y-136269490D01*
D15*
X35848980Y-138584746D02*
X38048471Y-138584746D01*
D16*
X35848980Y-138584746D02*
X38048471Y-138584746D01*
D15*
X35848980Y-140900001D02*
X38048471Y-140900001D01*
D16*
X35848980Y-140900001D02*
X38048471Y-140900001D01*
D15*
X35848980Y-143215253D02*
X38048471Y-143215253D01*
D16*
X35848980Y-143215253D02*
X38048471Y-143215253D01*
D15*
X35848980Y-145530510D02*
X38048471Y-145530510D01*
D16*
X35848980Y-145530510D02*
X38048471Y-145530510D01*
D15*
X35848980Y-147845763D02*
X38048471Y-147845763D01*
D16*
X35848980Y-147845763D02*
X38048471Y-147845763D01*
D14*
X42794746Y-131638980D02*
X42794786Y-131652614D01*
X42794906Y-131666246D01*
X42795106Y-131679873D01*
X42795385Y-131693497D01*
X42795745Y-131707116D01*
X42796184Y-131720731D01*
X42796704Y-131734340D01*
X42797303Y-131747945D01*
X42797982Y-131761543D01*
X42798740Y-131775136D01*
X42799578Y-131788722D01*
X42800496Y-131802301D01*
X42801494Y-131815873D01*
X42802571Y-131829438D01*
X42803728Y-131842994D01*
X42804964Y-131856543D01*
X42806280Y-131870082D01*
X42807675Y-131883613D01*
X42809150Y-131897134D01*
X42810704Y-131910646D01*
X42812338Y-131924147D01*
X42814050Y-131937638D01*
X42815842Y-131951117D01*
X42817713Y-131964586D01*
X42819663Y-131978042D01*
X42821692Y-131991487D01*
X42823800Y-132004919D01*
X42825987Y-132018338D01*
X42828253Y-132031744D01*
X42830597Y-132045135D01*
X42833021Y-132058513D01*
X42835523Y-132071876D01*
X42838103Y-132085225D01*
X42840762Y-132098558D01*
X42843499Y-132111875D01*
X42846315Y-132125175D01*
X42849209Y-132138460D01*
X42852181Y-132151727D01*
X42855231Y-132164976D01*
X42858359Y-132178208D01*
X42861564Y-132191422D01*
X42864848Y-132204616D01*
X42868209Y-132217792D01*
X42871647Y-132230948D01*
X42875164Y-132244084D01*
X42878757Y-132257199D01*
X42882427Y-132270294D01*
X42886175Y-132283367D01*
X42890000Y-132296418D01*
X42893901Y-132309447D01*
X42897879Y-132322454D01*
X42901934Y-132335437D01*
X42906065Y-132348397D01*
X42910272Y-132361333D01*
X42914556Y-132374244D01*
X42918915Y-132387131D01*
X42923351Y-132399992D01*
X42927862Y-132412828D01*
X42932449Y-132425637D01*
X42937111Y-132438420D01*
X42941848Y-132451176D01*
X42946661Y-132463904D01*
X42951548Y-132476604D01*
X42956510Y-132489276D01*
X42961547Y-132501919D01*
X42966658Y-132514533D01*
X42971844Y-132527117D01*
X42977103Y-132539670D01*
X42982437Y-132552193D01*
X42987844Y-132564685D01*
X42993325Y-132577145D01*
X42998878Y-132589574D01*
X43004505Y-132601970D01*
X43010205Y-132614333D01*
X43015978Y-132626663D01*
X43021823Y-132638959D01*
X43027741Y-132651220D01*
X43033730Y-132663447D01*
X43039792Y-132675639D01*
X43045925Y-132687796D01*
X43052129Y-132699916D01*
X43058405Y-132712000D01*
X43064752Y-132724047D01*
X43071169Y-132736057D01*
X43077657Y-132748029D01*
X43084216Y-132759963D01*
X43090844Y-132771859D01*
X43097543Y-132783715D01*
X43104310Y-132795532D01*
X43107720Y-132801425D01*
X43111148Y-132807309D01*
X43114592Y-132813182D01*
X43118054Y-132819045D01*
X43121533Y-132824898D01*
X43125029Y-132830741D01*
X43128542Y-132836574D01*
X43132073Y-132842396D01*
X43135620Y-132848207D01*
X43139185Y-132854009D01*
X43142766Y-132859800D01*
X43146365Y-132865580D01*
X43149980Y-132871349D01*
X43153613Y-132877108D01*
X43157262Y-132882856D01*
X43160928Y-132888594D01*
X43164611Y-132894321D01*
X43168311Y-132900036D01*
X43172027Y-132905741D01*
X43175760Y-132911435D01*
X43179510Y-132917118D01*
X43183277Y-132922790D01*
X43187060Y-132928450D01*
X43190860Y-132934100D01*
X43194676Y-132939738D01*
X43198509Y-132945365D01*
X43202358Y-132950980D01*
X43206224Y-132956585D01*
X43210106Y-132962177D01*
X43214005Y-132967759D01*
X43217920Y-132973328D01*
X43221851Y-132978886D01*
X43225798Y-132984433D01*
X43229762Y-132989968D01*
X43233742Y-132995491D01*
X43237738Y-133001002D01*
X43241750Y-133006501D01*
X43245779Y-133011989D01*
X43249823Y-133017465D01*
X43253883Y-133022928D01*
X43257959Y-133028380D01*
X43262052Y-133033820D01*
X43266160Y-133039247D01*
X43270284Y-133044662D01*
X43274424Y-133050065D01*
X43278580Y-133055456D01*
X43282751Y-133060834D01*
X43286938Y-133066201D01*
X43291141Y-133071554D01*
X43295360Y-133076896D01*
X43299594Y-133082224D01*
X43303844Y-133087540D01*
X43308109Y-133092844D01*
X43312390Y-133098135D01*
X43316686Y-133103413D01*
X43320998Y-133108678D01*
X43325324Y-133113931D01*
X43329667Y-133119171D01*
X43334024Y-133124398D01*
X43338398Y-133129612D01*
X43342785Y-133134813D01*
X43347189Y-133140001D01*
X43351607Y-133145176D01*
X43356041Y-133150338D01*
X43360490Y-133155486D01*
X43364954Y-133160622D01*
X43369432Y-133165744D01*
X43373926Y-133170854D01*
X43378435Y-133175949D01*
X43382959Y-133181032D01*
X43387497Y-133186100D01*
X43392050Y-133191156D01*
X43396618Y-133196198D01*
X43401201Y-133201227D01*
X43405798Y-133206241D01*
X43410410Y-133211243D01*
X43415037Y-133216230D01*
X43419678Y-133221204D01*
X43424334Y-133226164D01*
X43429004Y-133231111D01*
X43433689Y-133236043D01*
X43438388Y-133240962D01*
X43443101Y-133245866D01*
X43447829Y-133250757D01*
X43452571Y-133255634D01*
X43457328Y-133260497D01*
X43462098Y-133265345D01*
X43466883Y-133270180D01*
X43471682Y-133275000D01*
X43476495Y-133279807D01*
X43481322Y-133284598D01*
X43486164Y-133289376D01*
X43491018Y-133294139D01*
X43495888Y-133298889D01*
X43500770Y-133303623D01*
X43505667Y-133308343D01*
X43510578Y-133313048D01*
X43515502Y-133317740D01*
X43520440Y-133322416D01*
X43525392Y-133327079D01*
X43530357Y-133331726D01*
X43535337Y-133336359D01*
X43540329Y-133340977D01*
X43545336Y-133345581D01*
X43550355Y-133350169D01*
X43555389Y-133354743D01*
X43560435Y-133359301D01*
X43565495Y-133363846D01*
X43570568Y-133368375D01*
X43575655Y-133372889D01*
X43580755Y-133377388D01*
X43585868Y-133381873D01*
X43590994Y-133386341D01*
X43596134Y-133390796D01*
X43601286Y-133395234D01*
X43606452Y-133399659D01*
X43611630Y-133404067D01*
X43616823Y-133408461D01*
X43622026Y-133412838D01*
X43627245Y-133417202D01*
X43632474Y-133421549D01*
X43637718Y-133425881D01*
X43642973Y-133430197D01*
X43648243Y-133434499D01*
X43653523Y-133438785D01*
X43658818Y-133443056D01*
X43664124Y-133447310D01*
X43669444Y-133451550D01*
X43674775Y-133455773D01*
X43680120Y-133459981D01*
X43685476Y-133464173D01*
X43690846Y-133468351D01*
X43696227Y-133472511D01*
X43701622Y-133476657D01*
X43707027Y-133480786D01*
X43712446Y-133484900D01*
X43717877Y-133488997D01*
X43723320Y-133493080D01*
X43728775Y-133497145D01*
X43734243Y-133501196D01*
X43739721Y-133505230D01*
X43745213Y-133509249D01*
X43750716Y-133513250D01*
X43756232Y-133517237D01*
X43761758Y-133521207D01*
X43767298Y-133525161D01*
X43772849Y-133529098D01*
X43778412Y-133533021D01*
X43783986Y-133536926D01*
X43789573Y-133540816D01*
X43795170Y-133544688D01*
X43800781Y-133548545D01*
X43806401Y-133552385D01*
X43812035Y-133556210D01*
X43817678Y-133560017D01*
X43823335Y-133563809D01*
X43829002Y-133567584D01*
X43834681Y-133571343D01*
X43840371Y-133575085D01*
X43846073Y-133578811D01*
X43851785Y-133582519D01*
X43857510Y-133586213D01*
X43863245Y-133589888D01*
X43868992Y-133593548D01*
X43874749Y-133597190D01*
X43880519Y-133600817D01*
X43886298Y-133604426D01*
X43892090Y-133608020D01*
X43897891Y-133611595D01*
X43903705Y-133615155D01*
X43909528Y-133618697D01*
X43915364Y-133622224D01*
X43921209Y-133625732D01*
X43927066Y-133629225D01*
X43932933Y-133632700D01*
X43938812Y-133636159D01*
X43944700Y-133639600D01*
X43950601Y-133643025D01*
X43952374Y-133644050D01*
X43952374Y-133644050D02*
X43964202Y-133650833D01*
X43976067Y-133657544D01*
X43987968Y-133664185D01*
X43999907Y-133670755D01*
X44011881Y-133677253D01*
X44023892Y-133683680D01*
X44035937Y-133690035D01*
X44048019Y-133696318D01*
X44060135Y-133702529D01*
X44072285Y-133708669D01*
X44084470Y-133714736D01*
X44096689Y-133720730D01*
X44108942Y-133726652D01*
X44121228Y-133732502D01*
X44133547Y-133738278D01*
X44145898Y-133743982D01*
X44158282Y-133749612D01*
X44170697Y-133755169D01*
X44183144Y-133760652D01*
X44195622Y-133766062D01*
X44208132Y-133771398D01*
X44220671Y-133776661D01*
X44233241Y-133781849D01*
X44245840Y-133786962D01*
X44258469Y-133792002D01*
X44271127Y-133796967D01*
X44283814Y-133801857D01*
X44296528Y-133806673D01*
X44309271Y-133811413D01*
X44322041Y-133816079D01*
X44334838Y-133820669D01*
X44347662Y-133825184D01*
X44360512Y-133829623D01*
X44373388Y-133833987D01*
X44386290Y-133838275D01*
X44399216Y-133842487D01*
X44412168Y-133846623D01*
X44425143Y-133850683D01*
X44438143Y-133854666D01*
X44451166Y-133858573D01*
X44464212Y-133862404D01*
X44477281Y-133866158D01*
X44490372Y-133869835D01*
X44503484Y-133873435D01*
X44516618Y-133876957D01*
X44529773Y-133880403D01*
X44542949Y-133883772D01*
X44556144Y-133887063D01*
X44569359Y-133890276D01*
X44582594Y-133893412D01*
X44595847Y-133896470D01*
X44609118Y-133899450D01*
X44622407Y-133902353D01*
X44635714Y-133905177D01*
X44649037Y-133907923D01*
X44662377Y-133910591D01*
X44675733Y-133913180D01*
X44689105Y-133915691D01*
X44702491Y-133918124D01*
X44715893Y-133920477D01*
X44729308Y-133922753D01*
X44742737Y-133924949D01*
X44756180Y-133927066D01*
X44769635Y-133929105D01*
X44783102Y-133931064D01*
X44796582Y-133932945D01*
X44810072Y-133934746D01*
X44823574Y-133936468D01*
X44837086Y-133938110D01*
X44850608Y-133939674D01*
X44864139Y-133941158D01*
X44877679Y-133942562D01*
X44891228Y-133943887D01*
X44904785Y-133945132D01*
X44918349Y-133946297D01*
X44931920Y-133947383D01*
X44945498Y-133948390D01*
X44959082Y-133949316D01*
X44972671Y-133950163D01*
X44986265Y-133950929D01*
X44999864Y-133951616D01*
X45013467Y-133952223D01*
X45027074Y-133952750D01*
X45040683Y-133953198D01*
X45054296Y-133953565D01*
X45067910Y-133953852D01*
X45081526Y-133954059D01*
X45095143Y-133954187D01*
X45108760Y-133954234D01*
X45115569Y-133954228D01*
X45122378Y-133954201D01*
X45129187Y-133954155D01*
X45135996Y-133954088D01*
X45142804Y-133954002D01*
X45149612Y-133953896D01*
X45156420Y-133953769D01*
X45163227Y-133953623D01*
X45170034Y-133953457D01*
X45176840Y-133953270D01*
X45183646Y-133953064D01*
X45190451Y-133952838D01*
X45197255Y-133952591D01*
X45204059Y-133952325D01*
X45210862Y-133952039D01*
X45217664Y-133951733D01*
X45224465Y-133951406D01*
X45231265Y-133951060D01*
X45238063Y-133950694D01*
X45244861Y-133950308D01*
X45251657Y-133949902D01*
X45258453Y-133949476D01*
X45265246Y-133949030D01*
X45272039Y-133948564D01*
X45278830Y-133948078D01*
X45285619Y-133947572D01*
X45292407Y-133947046D01*
X45299194Y-133946500D01*
X45305978Y-133945934D01*
X45312761Y-133945349D01*
X45319542Y-133944743D01*
X45326321Y-133944118D01*
X45333098Y-133943473D01*
X45339873Y-133942807D01*
X45346646Y-133942122D01*
X45353417Y-133941417D01*
X45360186Y-133940692D01*
X45366953Y-133939947D01*
X45373717Y-133939183D01*
X45380479Y-133938398D01*
X45387238Y-133937594D01*
X45393995Y-133936769D01*
X45400749Y-133935925D01*
X45407501Y-133935061D01*
X45414250Y-133934178D01*
X45420997Y-133933274D01*
X45427740Y-133932351D01*
X45434481Y-133931407D01*
X45441219Y-133930445D01*
X45447954Y-133929462D01*
X45454686Y-133928459D01*
X45461415Y-133927437D01*
X45468140Y-133926395D01*
X45474863Y-133925333D01*
X45481582Y-133924252D01*
X45488298Y-133923150D01*
X45495010Y-133922029D01*
X45501719Y-133920889D01*
X45508424Y-133919728D01*
X45515127Y-133918548D01*
X45521825Y-133917348D01*
X45528520Y-133916129D01*
X45535210Y-133914890D01*
X45541898Y-133913631D01*
X45548581Y-133912353D01*
X45555261Y-133911055D01*
X45561936Y-133909737D01*
X45568608Y-133908400D01*
X45575275Y-133907043D01*
X45581938Y-133905667D01*
X45588597Y-133904271D01*
X45595252Y-133902856D01*
X45601902Y-133901421D01*
X45608549Y-133899966D01*
X45615190Y-133898492D01*
X45621828Y-133896999D01*
X45628460Y-133895486D01*
X45635089Y-133893953D01*
X45641712Y-133892401D01*
X45648331Y-133890830D01*
X45654945Y-133889239D01*
X45661554Y-133887629D01*
X45668158Y-133885999D01*
X45674758Y-133884350D01*
X45681352Y-133882681D01*
X45687942Y-133880994D01*
X45694526Y-133879287D01*
X45701106Y-133877560D01*
X45707679Y-133875814D01*
X45714249Y-133874049D01*
X45720812Y-133872265D01*
X45727370Y-133870461D01*
X45733922Y-133868638D01*
X45740470Y-133866796D01*
X45747012Y-133864934D01*
X45753548Y-133863053D01*
X45760078Y-133861154D01*
X45766604Y-133859235D01*
X45773122Y-133857297D01*
X45779636Y-133855339D01*
X45786143Y-133853363D01*
X45792646Y-133851367D01*
X45799141Y-133849352D01*
X45805631Y-133847318D01*
X45812114Y-133845265D01*
X45818593Y-133843193D01*
X45825063Y-133841102D01*
X45831529Y-133838992D01*
X45837988Y-133836863D01*
X45844441Y-133834715D01*
X45850887Y-133832548D01*
X45857328Y-133830362D01*
X45863761Y-133828157D01*
X45870188Y-133825933D01*
X45876608Y-133823691D01*
X45883023Y-133821429D01*
X45889429Y-133819149D01*
X45895831Y-133816849D01*
X45902224Y-133814531D01*
X45908612Y-133812194D01*
X45914991Y-133809838D01*
X45921365Y-133807463D01*
X45927731Y-133805070D01*
X45934091Y-133802658D01*
X45940443Y-133800227D01*
X45946789Y-133797777D01*
X45953126Y-133795309D01*
X45959458Y-133792822D01*
X45965781Y-133790316D01*
X45972098Y-133787792D01*
X45978406Y-133785249D01*
X45984709Y-133782687D01*
X45991003Y-133780108D01*
X45997290Y-133777509D01*
X46003569Y-133774892D01*
X46009842Y-133772256D01*
X46016105Y-133769602D01*
X46022363Y-133766929D01*
X46028611Y-133764238D01*
X46034853Y-133761528D01*
X46041085Y-133758800D01*
X46047312Y-133756053D01*
X46053529Y-133753288D01*
X46059739Y-133750505D01*
X46065940Y-133747703D01*
X46072135Y-133744883D01*
X46078320Y-133742045D01*
X46084499Y-133739188D01*
X46090667Y-133736313D01*
X46096830Y-133733420D01*
X46102982Y-133730509D01*
X46109128Y-133727578D01*
X46115264Y-133724631D01*
X46121393Y-133721664D01*
X46127512Y-133718680D01*
X46133624Y-133715678D01*
X46139726Y-133712657D01*
X46145822Y-133709618D01*
X46151907Y-133706562D01*
X46157985Y-133703487D01*
X46164053Y-133700394D01*
X46170114Y-133697283D01*
X46176164Y-133694154D01*
X46182207Y-133691007D01*
X46188240Y-133687842D01*
X46194266Y-133684659D01*
X46200281Y-133681458D01*
X46206289Y-133678239D01*
X46212286Y-133675003D01*
X46218276Y-133671748D01*
X46224256Y-133668476D01*
X46230228Y-133665185D01*
X46236189Y-133661878D01*
X46242142Y-133658551D01*
X46248085Y-133655208D01*
X46254020Y-133651846D01*
X46259944Y-133648467D01*
X46265861Y-133645070D01*
X46267629Y-133644050D01*
X46267629Y-133644050D02*
X46279417Y-133637198D01*
X46291162Y-133630279D01*
X46302864Y-133623292D01*
X46314522Y-133616238D01*
X46326137Y-133609117D01*
X46337708Y-133601929D01*
X46349235Y-133594674D01*
X46360717Y-133587353D01*
X46372154Y-133579966D01*
X46383546Y-133572513D01*
X46394893Y-133564994D01*
X46406194Y-133557409D01*
X46417449Y-133549759D01*
X46428657Y-133542044D01*
X46439819Y-133534264D01*
X46450934Y-133526419D01*
X46462002Y-133518510D01*
X46473022Y-133510536D01*
X46483995Y-133502498D01*
X46494919Y-133494397D01*
X46505795Y-133486232D01*
X46516622Y-133478003D01*
X46527399Y-133469711D01*
X46538128Y-133461357D01*
X46548807Y-133452940D01*
X46559435Y-133444460D01*
X46570014Y-133435919D01*
X46580541Y-133427315D01*
X46591018Y-133418650D01*
X46601444Y-133409924D01*
X46611818Y-133401136D01*
X46622139Y-133392288D01*
X46632409Y-133383379D01*
X46642626Y-133374410D01*
X46652790Y-133365381D01*
X46662902Y-133356292D01*
X46672959Y-133347144D01*
X46682963Y-133337936D01*
X46692912Y-133328670D01*
X46702807Y-133319345D01*
X46712648Y-133309962D01*
X46722433Y-133300521D01*
X46732163Y-133291023D01*
X46741837Y-133281467D01*
X46751455Y-133271854D01*
X46761016Y-133262184D01*
X46770521Y-133252458D01*
X46779969Y-133242676D01*
X46789359Y-133232838D01*
X46798692Y-133222945D01*
X46807967Y-133212997D01*
X46817184Y-133202993D01*
X46826342Y-133192936D01*
X46835441Y-133182824D01*
X46844481Y-133172659D01*
X46853461Y-133162440D01*
X46862382Y-133152168D01*
X46871242Y-133141843D01*
X46880042Y-133131466D01*
X46888781Y-133121037D01*
X46897459Y-133110557D01*
X46906076Y-133100025D01*
X46914631Y-133089442D01*
X46923124Y-133078809D01*
X46931554Y-133068126D01*
X46939922Y-133057392D01*
X46948228Y-133046610D01*
X46956470Y-133035778D01*
X46964648Y-133024897D01*
X46972763Y-133013969D01*
X46980814Y-133002992D01*
X46988800Y-132991968D01*
X46996722Y-132980897D01*
X47004578Y-132969779D01*
X47012370Y-132958615D01*
X47020096Y-132947405D01*
X47027756Y-132936150D01*
X47035350Y-132924849D01*
X47042878Y-132913504D01*
X47050339Y-132902114D01*
X47057734Y-132890680D01*
X47065061Y-132879203D01*
X47072321Y-132867683D01*
X47079513Y-132856121D01*
X47086637Y-132844516D01*
X47093693Y-132832869D01*
X47100680Y-132821181D01*
X47107599Y-132809452D01*
X47114449Y-132797682D01*
X47117847Y-132791783D01*
X47121229Y-132785873D01*
X47124593Y-132779953D01*
X47127940Y-132774023D01*
X47131269Y-132768084D01*
X47134581Y-132762135D01*
X47137876Y-132756176D01*
X47141153Y-132750208D01*
X47144412Y-132744230D01*
X47147654Y-132738242D01*
X47150878Y-132732245D01*
X47154085Y-132726238D01*
X47157273Y-132720222D01*
X47160445Y-132714197D01*
X47163598Y-132708163D01*
X47166734Y-132702119D01*
X47169852Y-132696066D01*
X47172952Y-132690004D01*
X47176034Y-132683933D01*
X47179099Y-132677853D01*
X47182145Y-132671764D01*
X47185174Y-132665666D01*
X47188184Y-132659560D01*
X47191177Y-132653444D01*
X47194151Y-132647320D01*
X47197108Y-132641187D01*
X47200047Y-132635046D01*
X47202967Y-132628896D01*
X47205869Y-132622738D01*
X47208754Y-132616571D01*
X47211620Y-132610395D01*
X47214468Y-132604212D01*
X47217297Y-132598020D01*
X47220109Y-132591820D01*
X47222902Y-132585612D01*
X47225677Y-132579395D01*
X47228433Y-132573171D01*
X47231172Y-132566938D01*
X47233891Y-132560698D01*
X47236593Y-132554450D01*
X47239276Y-132548194D01*
X47241941Y-132541930D01*
X47244587Y-132535659D01*
X47247215Y-132529379D01*
X47249824Y-132523093D01*
X47252415Y-132516798D01*
X47254987Y-132510497D01*
X47257540Y-132504187D01*
X47260075Y-132497871D01*
X47262592Y-132491546D01*
X47265089Y-132485216D01*
X47267568Y-132478877D01*
X47270029Y-132472532D01*
X47272470Y-132466179D01*
X47274893Y-132459819D01*
X47277298Y-132453452D01*
X47279683Y-132447079D01*
X47282050Y-132440698D01*
X47284397Y-132434311D01*
X47286726Y-132427916D01*
X47289036Y-132421516D01*
X47291328Y-132415108D01*
X47293600Y-132408694D01*
X47295854Y-132402273D01*
X47298088Y-132395847D01*
X47300304Y-132389413D01*
X47302501Y-132382973D01*
X47304678Y-132376527D01*
X47306837Y-132370075D01*
X47308977Y-132363615D01*
X47311097Y-132357151D01*
X47313199Y-132350680D01*
X47315281Y-132344203D01*
X47317345Y-132337720D01*
X47319389Y-132331231D01*
X47321414Y-132324736D01*
X47323420Y-132318236D01*
X47325407Y-132311729D01*
X47327375Y-132305217D01*
X47329323Y-132298699D01*
X47331253Y-132292176D01*
X47333163Y-132285647D01*
X47335054Y-132279113D01*
X47336925Y-132272573D01*
X47338777Y-132266028D01*
X47340611Y-132259477D01*
X47342424Y-132252922D01*
X47344219Y-132246360D01*
X47345994Y-132239794D01*
X47347750Y-132233222D01*
X47349486Y-132226647D01*
X47351203Y-132220065D01*
X47352900Y-132213479D01*
X47354579Y-132206887D01*
X47356238Y-132200292D01*
X47357877Y-132193690D01*
X47359497Y-132187085D01*
X47361098Y-132180474D01*
X47362678Y-132173860D01*
X47364240Y-132167240D01*
X47365782Y-132160617D01*
X47367305Y-132153988D01*
X47368808Y-132147356D01*
X47370291Y-132140718D01*
X47371755Y-132134077D01*
X47373200Y-132127430D01*
X47374624Y-132120781D01*
X47376030Y-132114126D01*
X47377415Y-132107469D01*
X47378782Y-132100806D01*
X47380128Y-132094140D01*
X47381455Y-132087469D01*
X47382762Y-132080796D01*
X47384050Y-132074117D01*
X47385318Y-132067436D01*
X47386566Y-132060750D01*
X47387795Y-132054062D01*
X47389004Y-132047368D01*
X47390193Y-132040673D01*
X47391363Y-132033972D01*
X47392512Y-132027269D01*
X47393643Y-132020562D01*
X47394753Y-132013852D01*
X47395844Y-132007138D01*
X47396915Y-132000422D01*
X47397966Y-131993701D01*
X47398997Y-131986979D01*
X47400009Y-131980252D01*
X47401001Y-131973524D01*
X47401973Y-131966790D01*
X47402925Y-131960056D01*
X47403858Y-131953317D01*
X47404771Y-131946576D01*
X47405664Y-131939832D01*
X47406537Y-131933086D01*
X47407390Y-131926335D01*
X47408223Y-131919584D01*
X47409037Y-131912828D01*
X47409831Y-131906072D01*
X47410605Y-131899311D01*
X47411359Y-131892550D01*
X47412093Y-131885784D01*
X47412807Y-131879018D01*
X47413502Y-131872247D01*
X47414176Y-131865477D01*
X47414831Y-131858702D01*
X47415466Y-131851926D01*
X47416081Y-131845147D01*
X47416676Y-131838367D01*
X47417251Y-131831584D01*
X47417806Y-131824800D01*
X47418341Y-131818013D01*
X47418857Y-131811225D01*
X47419352Y-131804434D01*
X47419827Y-131797643D01*
X47420283Y-131790848D01*
X47420719Y-131784053D01*
X47421134Y-131777255D01*
X47421530Y-131770457D01*
X47421906Y-131763655D01*
X47422261Y-131756854D01*
X47422597Y-131750050D01*
X47422913Y-131743246D01*
X47423209Y-131736438D01*
X47423485Y-131729631D01*
X47423741Y-131722821D01*
X47423977Y-131716012D01*
X47424193Y-131709199D01*
X47424389Y-131702387D01*
X47424565Y-131695572D01*
X47424721Y-131688758D01*
X47424857Y-131681941D01*
X47424973Y-131675125D01*
X47425069Y-131668306D01*
X47425145Y-131661488D01*
X47425201Y-131654666D01*
X47425237Y-131647847D01*
X47425253Y-131641024D01*
X47425254Y-131638979D01*
D15*
X52171529Y-133954236D02*
X54371020Y-133954236D01*
D16*
X52171529Y-133954236D02*
X54371020Y-133954236D01*
D15*
X52171529Y-136269490D02*
X54371020Y-136269490D01*
D16*
X52171529Y-136269490D02*
X54371020Y-136269490D01*
D15*
X52171529Y-138584746D02*
X54371020Y-138584746D01*
D16*
X52171529Y-138584746D02*
X54371020Y-138584746D01*
D15*
X52171529Y-140900001D02*
X54371020Y-140900001D01*
D16*
X52171529Y-140900001D02*
X54371020Y-140900001D01*
D15*
X52171529Y-143215253D02*
X54371020Y-143215253D01*
D16*
X52171529Y-143215253D02*
X54371020Y-143215253D01*
D15*
X52171529Y-145530510D02*
X54371020Y-145530510D01*
D16*
X52171529Y-145530510D02*
X54371020Y-145530510D01*
D15*
X52171529Y-147845763D02*
X54371020Y-147845763D01*
D16*
X52171529Y-147845763D02*
X54371020Y-147845763D01*
D17*
X40126779Y-136848866D02*
X40888684Y-136848866D01*
X40507731Y-137229819D02*
X40507731Y-136467914D01*
X40126779Y-138708866D02*
X40888684Y-138708866D01*
X40126779Y-144718866D02*
X40888684Y-144718866D01*
X40507731Y-145099819D02*
X40507731Y-144337914D01*
X40126779Y-146488866D02*
X40888684Y-146488866D01*
X49546779Y-136848866D02*
X50308684Y-136848866D01*
X49927731Y-137229819D02*
X49927731Y-136467914D01*
X49546779Y-138708866D02*
X50308684Y-138708866D01*
X49546779Y-144718866D02*
X50308684Y-144718866D01*
X49927731Y-145099819D02*
X49927731Y-144337914D01*
X49546779Y-146488866D02*
X50308684Y-146488866D01*
D18*
G36*
X33421009Y-37883456D02*
G01*
X33595158Y-37911650D01*
X33759615Y-37962698D01*
X33901622Y-38037496D01*
X34022022Y-38138828D01*
X34115579Y-38267939D01*
X34158523Y-38366038D01*
X34185759Y-38482180D01*
X34195446Y-38620015D01*
X34179671Y-38777325D01*
X34134073Y-38914985D01*
X34058975Y-39037121D01*
X33957884Y-39138179D01*
X33830284Y-39215680D01*
X33670812Y-39269579D01*
X33670812Y-39278005D01*
X33871910Y-39315565D01*
X34033627Y-39389207D01*
X34163939Y-39497824D01*
X34239828Y-39599765D01*
X34295264Y-39718370D01*
X34330069Y-39856806D01*
X34342358Y-40019160D01*
X34334941Y-40098026D01*
X34306638Y-40228721D01*
X34253667Y-40362571D01*
X34157711Y-40502944D01*
X34025213Y-40625734D01*
X33830181Y-40739616D01*
X33683876Y-40792190D01*
X33496704Y-40827127D01*
X33259569Y-40840000D01*
X32353000Y-40840000D01*
X32353000Y-40558632D01*
X32655068Y-40558632D01*
X33234289Y-40558632D01*
X33394905Y-40550065D01*
X33540753Y-40525293D01*
X33676409Y-40481938D01*
X33788415Y-40422894D01*
X33882724Y-40344549D01*
X33954195Y-40249237D01*
X33999074Y-40137226D01*
X34015012Y-39998461D01*
X34001836Y-39854332D01*
X33965048Y-39737171D01*
X33906733Y-39641497D01*
X33826151Y-39563586D01*
X33692497Y-39489272D01*
X33512291Y-39439883D01*
X33272025Y-39421437D01*
X32655068Y-39421437D01*
X32655068Y-40558632D01*
X32353000Y-40558632D01*
X32353000Y-39175240D01*
X32655068Y-39175240D01*
X33263599Y-39175240D01*
X33372086Y-39168480D01*
X33479754Y-39148129D01*
X33582062Y-39111783D01*
X33672827Y-39058187D01*
X33750586Y-38987180D01*
X33813511Y-38897353D01*
X33853629Y-38791606D01*
X33868100Y-38656835D01*
X33849232Y-38527325D01*
X33819903Y-38446046D01*
X33765151Y-38360263D01*
X33688282Y-38284885D01*
X33574275Y-38215915D01*
X33435882Y-38172200D01*
X33234289Y-38155282D01*
X32655068Y-38155282D01*
X32655068Y-39175240D01*
X32353000Y-39175240D01*
X32353000Y-37873914D01*
X33238503Y-37873914D01*
X33421009Y-37883456D01*
G37*
G36*
X36314497Y-40840000D02*
G01*
X36303872Y-40680814D01*
X36301857Y-40521446D01*
X36293431Y-40521446D01*
X36241387Y-40597606D01*
X36175828Y-40668541D01*
X36100614Y-40730728D01*
X36016460Y-40783946D01*
X35925905Y-40826953D01*
X35829614Y-40859600D01*
X35730886Y-40880165D01*
X35634525Y-40886894D01*
X35445140Y-40872385D01*
X35293593Y-40832406D01*
X35172531Y-40770461D01*
X35076369Y-40687409D01*
X35001064Y-40583367D01*
X34944877Y-40457018D01*
X34908866Y-40303818D01*
X34895935Y-40118079D01*
X34895935Y-38870425D01*
X35172906Y-38870425D01*
X35172906Y-39962008D01*
X35179592Y-40121664D01*
X35198002Y-40252901D01*
X35233248Y-40371968D01*
X35284098Y-40465758D01*
X35354823Y-40541224D01*
X35447679Y-40596550D01*
X35558239Y-40628699D01*
X35705966Y-40640697D01*
X35823386Y-40623845D01*
X35918711Y-40593967D01*
X36026901Y-40531154D01*
X36124825Y-40440399D01*
X36217960Y-40303642D01*
X36261716Y-40198796D01*
X36290979Y-40060986D01*
X36301857Y-39881957D01*
X36301857Y-38870425D01*
X36578829Y-38870425D01*
X36578829Y-40406591D01*
X36585057Y-40608640D01*
X36599895Y-40840000D01*
X36314497Y-40840000D01*
G37*
G36*
X38143754Y-39116622D02*
G01*
X37677922Y-39116622D01*
X37677922Y-40840000D01*
X37400950Y-40840000D01*
X37400950Y-39116622D01*
X36985493Y-39116622D01*
X36985493Y-38870425D01*
X37400950Y-38870425D01*
X37400950Y-38335167D01*
X37414707Y-38137473D01*
X37451879Y-37985128D01*
X37508041Y-37868815D01*
X37581385Y-37781224D01*
X37710543Y-37691556D01*
X37867500Y-37635818D01*
X38059856Y-37615994D01*
X38179474Y-37624237D01*
X38299092Y-37644754D01*
X38248717Y-37891683D01*
X38143754Y-37870617D01*
X38034760Y-37862191D01*
X37927816Y-37872522D01*
X37849930Y-37900109D01*
X37786877Y-37945895D01*
X37740753Y-38007271D01*
X37709827Y-38080621D01*
X37690378Y-38169021D01*
X37677922Y-38366308D01*
X37677922Y-38870425D01*
X38143754Y-38870425D01*
X38143754Y-39116622D01*
G37*
G36*
X39310258Y-39116622D02*
G01*
X38844426Y-39116622D01*
X38844426Y-40840000D01*
X38567454Y-40840000D01*
X38567454Y-39116622D01*
X38151997Y-39116622D01*
X38151997Y-38870425D01*
X38567454Y-38870425D01*
X38567454Y-38335167D01*
X38581210Y-38137473D01*
X38618382Y-37985128D01*
X38674545Y-37868815D01*
X38747889Y-37781224D01*
X38877046Y-37691556D01*
X39034004Y-37635818D01*
X39226360Y-37615994D01*
X39345978Y-37624237D01*
X39465596Y-37644754D01*
X39415221Y-37891683D01*
X39310258Y-37870617D01*
X39201264Y-37862191D01*
X39094320Y-37872522D01*
X39016434Y-37900109D01*
X38953381Y-37945895D01*
X38907257Y-38007271D01*
X38876331Y-38080621D01*
X38856882Y-38169021D01*
X38844426Y-38366308D01*
X38844426Y-38870425D01*
X39310258Y-38870425D01*
X39310258Y-39116622D01*
G37*
G36*
X40742180Y-38844057D02*
G01*
X40926474Y-38902848D01*
X41090206Y-38996307D01*
X41222496Y-39113691D01*
X41327279Y-39255631D01*
X41404945Y-39422719D01*
X41451969Y-39604345D01*
X41467960Y-39800258D01*
X41467960Y-39925554D01*
X39831228Y-39925554D01*
X39855507Y-40070841D01*
X39902486Y-40206556D01*
X39971287Y-40330253D01*
X40057824Y-40434251D01*
X40161545Y-40519837D01*
X40280207Y-40585376D01*
X40410372Y-40626646D01*
X40553148Y-40640697D01*
X40698410Y-40628631D01*
X40825296Y-40594013D01*
X40937098Y-40537932D01*
X41082178Y-40424305D01*
X41182562Y-40300711D01*
X41396702Y-40475284D01*
X41270914Y-40612437D01*
X41141817Y-40716426D01*
X41008539Y-40791273D01*
X40864611Y-40844147D01*
X40713355Y-40876076D01*
X40553148Y-40886894D01*
X40340782Y-40867159D01*
X40147950Y-40809408D01*
X39973454Y-40715954D01*
X39827015Y-40593436D01*
X39707617Y-40443518D01*
X39615073Y-40266273D01*
X39557224Y-40071198D01*
X39537404Y-39855212D01*
X39551005Y-39702805D01*
X39839471Y-39702805D01*
X41165893Y-39702805D01*
X41146022Y-39520991D01*
X41089672Y-39370638D01*
X40997915Y-39244849D01*
X40875654Y-39150082D01*
X40722045Y-39090957D01*
X40527869Y-39069727D01*
X40395932Y-39082861D01*
X40267568Y-39122484D01*
X40148864Y-39184659D01*
X40047199Y-39263900D01*
X39962096Y-39359086D01*
X39896074Y-39466500D01*
X39853487Y-39583108D01*
X39839471Y-39702805D01*
X39551005Y-39702805D01*
X39556686Y-39639150D01*
X39612875Y-39444335D01*
X39703873Y-39267041D01*
X39822801Y-39117172D01*
X39968274Y-38994170D01*
X40137508Y-38901200D01*
X40323736Y-38843264D01*
X40527869Y-38823531D01*
X40742180Y-38844057D01*
G37*
G36*
X42000471Y-39484818D02*
G01*
X41994059Y-39219754D01*
X41983618Y-38870425D01*
X42256559Y-38870425D01*
X42256559Y-39239354D01*
X42264986Y-39239354D01*
X42300243Y-39161770D01*
X42348883Y-39086031D01*
X42408742Y-39016739D01*
X42481140Y-38953773D01*
X42563858Y-38901385D01*
X42661575Y-38859251D01*
X42768547Y-38832867D01*
X42894399Y-38823531D01*
X43007945Y-38830363D01*
X43100113Y-38849176D01*
X43045525Y-39125964D01*
X42984435Y-39111011D01*
X42885973Y-39104898D01*
X42734416Y-39120937D01*
X42613215Y-39165715D01*
X42508588Y-39235364D01*
X42424354Y-39320687D01*
X42358471Y-39419330D01*
X42313162Y-39524019D01*
X42286083Y-39632614D01*
X42277442Y-39733579D01*
X42277442Y-40840000D01*
X42000471Y-40840000D01*
X42000471Y-39484818D01*
G37*
G36*
X44391168Y-38844057D02*
G01*
X44575462Y-38902848D01*
X44739195Y-38996307D01*
X44871484Y-39113691D01*
X44976267Y-39255631D01*
X45053934Y-39422719D01*
X45100957Y-39604345D01*
X45116948Y-39800258D01*
X45116948Y-39925554D01*
X43480216Y-39925554D01*
X43504495Y-40070841D01*
X43551474Y-40206556D01*
X43620275Y-40330253D01*
X43706812Y-40434251D01*
X43810533Y-40519837D01*
X43929195Y-40585376D01*
X44059360Y-40626646D01*
X44202137Y-40640697D01*
X44347399Y-40628631D01*
X44474284Y-40594013D01*
X44586086Y-40537932D01*
X44731166Y-40424305D01*
X44831550Y-40300711D01*
X45045690Y-40475284D01*
X44919902Y-40612437D01*
X44790805Y-40716426D01*
X44657527Y-40791273D01*
X44513599Y-40844147D01*
X44362343Y-40876076D01*
X44202137Y-40886894D01*
X43989770Y-40867159D01*
X43796938Y-40809408D01*
X43622442Y-40715954D01*
X43476003Y-40593436D01*
X43356605Y-40443518D01*
X43264061Y-40266273D01*
X43206212Y-40071198D01*
X43186392Y-39855212D01*
X43199993Y-39702805D01*
X43488459Y-39702805D01*
X44814881Y-39702805D01*
X44795010Y-39520991D01*
X44738660Y-39370638D01*
X44646903Y-39244849D01*
X44524642Y-39150082D01*
X44371033Y-39090957D01*
X44176857Y-39069727D01*
X44044920Y-39082861D01*
X43916556Y-39122484D01*
X43797852Y-39184659D01*
X43696188Y-39263900D01*
X43611084Y-39359086D01*
X43545062Y-39466500D01*
X43502475Y-39583108D01*
X43488459Y-39702805D01*
X43199993Y-39702805D01*
X43205674Y-39639150D01*
X43261863Y-39444335D01*
X43352861Y-39267041D01*
X43471789Y-39117172D01*
X43617262Y-38994170D01*
X43786496Y-38901200D01*
X43972724Y-38843264D01*
X44176857Y-38823531D01*
X44391168Y-38844057D01*
G37*
G36*
X47580198Y-40840000D02*
G01*
X47303044Y-40840000D01*
X47303044Y-40509539D01*
X47294617Y-40509539D01*
X47220885Y-40603172D01*
X47135066Y-40681547D01*
X47040041Y-40746892D01*
X46941992Y-40798967D01*
X46839618Y-40838722D01*
X46734263Y-40865828D01*
X46530748Y-40886894D01*
X46306948Y-40866981D01*
X46108879Y-40809408D01*
X45930069Y-40715903D01*
X45779518Y-40593436D01*
X45656774Y-40443216D01*
X45563363Y-40266273D01*
X45505514Y-40071198D01*
X45485694Y-39855212D01*
X45787944Y-39855212D01*
X45801280Y-40016022D01*
X45840334Y-40163508D01*
X45904509Y-40298614D01*
X45989445Y-40412636D01*
X46095295Y-40506664D01*
X46222269Y-40579515D01*
X46364951Y-40624866D01*
X46530748Y-40640697D01*
X46694184Y-40625151D01*
X46843440Y-40579515D01*
X46979166Y-40506537D01*
X47093117Y-40412636D01*
X47186124Y-40298229D01*
X47256882Y-40163508D01*
X47300770Y-40015740D01*
X47315683Y-39855212D01*
X47300770Y-39694685D01*
X47256882Y-39546917D01*
X47186124Y-39412195D01*
X47093117Y-39297789D01*
X46979159Y-39203928D01*
X46843440Y-39131093D01*
X46694175Y-39085318D01*
X46530748Y-39069727D01*
X46364961Y-39085604D01*
X46222269Y-39131093D01*
X46095302Y-39203801D01*
X45989445Y-39297789D01*
X45904509Y-39411810D01*
X45840334Y-39546917D01*
X45801280Y-39694403D01*
X45787944Y-39855212D01*
X45485694Y-39855212D01*
X45505518Y-39639252D01*
X45563363Y-39444335D01*
X45656794Y-39267271D01*
X45779518Y-39117172D01*
X45930089Y-38994600D01*
X46108879Y-38901200D01*
X46306957Y-38843489D01*
X46530748Y-38823531D01*
X46734263Y-38844596D01*
X46839609Y-38871745D01*
X46941992Y-38911641D01*
X47040021Y-38963612D01*
X47135066Y-39029061D01*
X47220875Y-39107289D01*
X47294617Y-39200886D01*
X47303044Y-39200886D01*
X47303044Y-37662889D01*
X47580198Y-37662889D01*
X47580198Y-40840000D01*
G37*
G36*
X50916678Y-40286973D02*
G01*
X51919783Y-37873914D01*
X52381402Y-37873914D01*
X52381402Y-40840000D01*
X52079152Y-40840000D01*
X52079152Y-38276182D01*
X52070725Y-38276182D01*
X50996362Y-40840000D01*
X50836994Y-40840000D01*
X49762447Y-38276182D01*
X49754021Y-38276182D01*
X49754021Y-40840000D01*
X49451953Y-40840000D01*
X49451953Y-37873914D01*
X49913572Y-37873914D01*
X50916678Y-40286973D01*
G37*
G36*
X54506681Y-40840000D02*
G01*
X54496057Y-40680814D01*
X54494042Y-40521446D01*
X54485615Y-40521446D01*
X54433571Y-40597606D01*
X54368012Y-40668541D01*
X54292799Y-40730728D01*
X54208644Y-40783946D01*
X54118090Y-40826953D01*
X54021798Y-40859600D01*
X53923071Y-40880165D01*
X53826709Y-40886894D01*
X53637324Y-40872385D01*
X53485778Y-40832406D01*
X53364715Y-40770461D01*
X53268553Y-40687409D01*
X53193248Y-40583367D01*
X53137061Y-40457018D01*
X53101050Y-40303818D01*
X53088119Y-40118079D01*
X53088119Y-38870425D01*
X53365090Y-38870425D01*
X53365090Y-39962008D01*
X53371776Y-40121664D01*
X53390186Y-40252901D01*
X53425432Y-40371968D01*
X53476282Y-40465758D01*
X53547008Y-40541224D01*
X53639863Y-40596550D01*
X53750423Y-40628699D01*
X53898150Y-40640697D01*
X54015570Y-40623845D01*
X54110896Y-40593967D01*
X54219085Y-40531154D01*
X54317010Y-40440399D01*
X54410144Y-40303642D01*
X54453901Y-40198796D01*
X54483163Y-40060986D01*
X54494042Y-39881957D01*
X54494042Y-38870425D01*
X54771013Y-38870425D01*
X54771013Y-40406591D01*
X54777241Y-40608640D01*
X54792079Y-40840000D01*
X54506681Y-40840000D01*
G37*
G36*
X55761113Y-40840000D02*
G01*
X55483958Y-40840000D01*
X55483958Y-37662889D01*
X55761113Y-37662889D01*
X55761113Y-40840000D01*
G37*
G36*
X57441992Y-39116622D02*
G01*
X56875409Y-39116622D01*
X56875409Y-40285141D01*
X56881217Y-40390051D01*
X56896292Y-40465026D01*
X56922699Y-40529025D01*
X56955094Y-40572920D01*
X56996559Y-40605164D01*
X57045403Y-40625860D01*
X57160807Y-40640697D01*
X57307719Y-40619815D01*
X57446205Y-40565226D01*
X57458845Y-40817102D01*
X57293696Y-40868323D01*
X57085336Y-40886894D01*
X56919373Y-40865828D01*
X56837523Y-40835508D01*
X56762020Y-40785778D01*
X56698393Y-40718100D01*
X56644600Y-40625676D01*
X56611192Y-40515390D01*
X56598438Y-40360062D01*
X56598438Y-39116622D01*
X56182981Y-39116622D01*
X56182981Y-38870425D01*
X56598438Y-38870425D01*
X56598438Y-38319413D01*
X56875409Y-38319413D01*
X56875409Y-38870425D01*
X57441992Y-38870425D01*
X57441992Y-39116622D01*
G37*
D19*
%TO.C,H14*%
X51520000Y-54250000D03*
%TD*%
%TO.C,H16*%
X51520000Y-64250000D03*
%TD*%
D20*
%TO.C,H3*%
X35770000Y-46250000D03*
%TD*%
%TO.C,H7*%
X35770000Y-104250000D03*
%TD*%
D19*
%TO.C,H13*%
X38480000Y-112250000D03*
%TD*%
%TO.C,H15*%
X38480000Y-64250000D03*
%TD*%
D21*
%TO.C,H10*%
X52500000Y-155500000D03*
%TD*%
D19*
%TO.C,H17*%
X51520000Y-83250000D03*
%TD*%
D21*
%TO.C,H9*%
X52500000Y-33000000D03*
%TD*%
D19*
%TO.C,H12*%
X38480000Y-83250000D03*
%TD*%
%TO.C,H18*%
X38480000Y-93250000D03*
%TD*%
%TO.C,H19*%
X51520000Y-93250000D03*
%TD*%
%TO.C,H11*%
X38480000Y-54250000D03*
%TD*%
D20*
%TO.C,H5*%
X35770000Y-75250000D03*
%TD*%
D19*
%TO.C,H21*%
X38480000Y-122250000D03*
%TD*%
D20*
%TO.C,H8*%
X41270000Y-104250000D03*
%TD*%
D21*
%TO.C,H1*%
X37500000Y-33000000D03*
%TD*%
D19*
%TO.C,H22*%
X51520000Y-122250000D03*
%TD*%
D20*
%TO.C,H6*%
X41270000Y-75250000D03*
%TD*%
D21*
%TO.C,H2*%
X37500000Y-155500000D03*
%TD*%
D20*
%TO.C,H4*%
X41270000Y-46250000D03*
%TD*%
D19*
%TO.C,H20*%
X51520000Y-112250000D03*
%TD*%
%LPD*%
M02*
