%TF.GenerationSoftware,KiCad,Pcbnew,10.0.4*%
%TF.CreationDate,2026-08-01T21:16:21+10:00*%
%TF.ProjectId,Buffered-Mult,42756666-6572-4656-942d-4d756c742e6b,rev?*%
%TF.SameCoordinates,Original*%
%TF.FileFunction,Legend,Bot*%
%TF.FilePolarity,Positive*%
%FSLAX46Y46*%
G04 Gerber Fmt 4.6, Leading zero omitted, Abs format (unit mm)*
G04 Created by KiCad (PCBNEW 10.0.4) date 2026-08-01 21:16:21*
%MOMM*%
%LPD*%
G01*
G04 APERTURE LIST*
G04 Aperture macros list*
%AMRoundRect*
0 Rectangle with rounded corners*
0 $1 Rounding radius*
0 $2 $3 $4 $5 $6 $7 $8 $9 X,Y pos of 4 corners*
0 Add a 4 corners polygon primitive as box body*
4,1,4,$2,$3,$4,$5,$6,$7,$8,$9,$2,$3,0*
0 Add four circle primitives for the rounded corners*
1,1,$1+$1,$2,$3*
1,1,$1+$1,$4,$5*
1,1,$1+$1,$6,$7*
1,1,$1+$1,$8,$9*
0 Add four rect primitives between the rounded corners*
20,1,$1+$1,$2,$3,$4,$5,0*
20,1,$1+$1,$4,$5,$6,$7,0*
20,1,$1+$1,$6,$7,$8,$9,0*
20,1,$1+$1,$8,$9,$2,$3,0*%
G04 Aperture macros list end*
%ADD10C,0.100000*%
%ADD11C,0.150000*%
%ADD12C,0.120000*%
%ADD13RoundRect,0.250000X0.600000X0.600000X-0.600000X0.600000X-0.600000X-0.600000X0.600000X-0.600000X0*%
%ADD14C,1.700000*%
%ADD15R,1.800000X1.800000*%
%ADD16C,1.800000*%
%ADD17R,1.830000X1.930000*%
%ADD18C,2.130000*%
G04 APERTURE END LIST*
D10*
X52500000Y-132500000D02*
X57500000Y-132500000D01*
X57500000Y-137500000D01*
X52500000Y-137500000D01*
X52500000Y-132500000D01*
G36*
X52500000Y-132500000D02*
G01*
X57500000Y-132500000D01*
X57500000Y-137500000D01*
X52500000Y-137500000D01*
X52500000Y-132500000D01*
G37*
D11*
X49468094Y-34494819D02*
X49468094Y-33494819D01*
X49468094Y-33494819D02*
X49229999Y-33494819D01*
X49229999Y-33494819D02*
X49087142Y-33542438D01*
X49087142Y-33542438D02*
X48991904Y-33637676D01*
X48991904Y-33637676D02*
X48944285Y-33732914D01*
X48944285Y-33732914D02*
X48896666Y-33923390D01*
X48896666Y-33923390D02*
X48896666Y-34066247D01*
X48896666Y-34066247D02*
X48944285Y-34256723D01*
X48944285Y-34256723D02*
X48991904Y-34351961D01*
X48991904Y-34351961D02*
X49087142Y-34447200D01*
X49087142Y-34447200D02*
X49229999Y-34494819D01*
X49229999Y-34494819D02*
X49468094Y-34494819D01*
X48515713Y-33590057D02*
X48468094Y-33542438D01*
X48468094Y-33542438D02*
X48372856Y-33494819D01*
X48372856Y-33494819D02*
X48134761Y-33494819D01*
X48134761Y-33494819D02*
X48039523Y-33542438D01*
X48039523Y-33542438D02*
X47991904Y-33590057D01*
X47991904Y-33590057D02*
X47944285Y-33685295D01*
X47944285Y-33685295D02*
X47944285Y-33780533D01*
X47944285Y-33780533D02*
X47991904Y-33923390D01*
X47991904Y-33923390D02*
X48563332Y-34494819D01*
X48563332Y-34494819D02*
X47944285Y-34494819D01*
X54968094Y-63494819D02*
X54968094Y-62494819D01*
X54968094Y-62494819D02*
X54729999Y-62494819D01*
X54729999Y-62494819D02*
X54587142Y-62542438D01*
X54587142Y-62542438D02*
X54491904Y-62637676D01*
X54491904Y-62637676D02*
X54444285Y-62732914D01*
X54444285Y-62732914D02*
X54396666Y-62923390D01*
X54396666Y-62923390D02*
X54396666Y-63066247D01*
X54396666Y-63066247D02*
X54444285Y-63256723D01*
X54444285Y-63256723D02*
X54491904Y-63351961D01*
X54491904Y-63351961D02*
X54587142Y-63447200D01*
X54587142Y-63447200D02*
X54729999Y-63494819D01*
X54729999Y-63494819D02*
X54968094Y-63494819D01*
X54063332Y-62494819D02*
X53444285Y-62494819D01*
X53444285Y-62494819D02*
X53777618Y-62875771D01*
X53777618Y-62875771D02*
X53634761Y-62875771D01*
X53634761Y-62875771D02*
X53539523Y-62923390D01*
X53539523Y-62923390D02*
X53491904Y-62971009D01*
X53491904Y-62971009D02*
X53444285Y-63066247D01*
X53444285Y-63066247D02*
X53444285Y-63304342D01*
X53444285Y-63304342D02*
X53491904Y-63399580D01*
X53491904Y-63399580D02*
X53539523Y-63447200D01*
X53539523Y-63447200D02*
X53634761Y-63494819D01*
X53634761Y-63494819D02*
X53920475Y-63494819D01*
X53920475Y-63494819D02*
X54015713Y-63447200D01*
X54015713Y-63447200D02*
X54063332Y-63399580D01*
X54968094Y-92494819D02*
X54968094Y-91494819D01*
X54968094Y-91494819D02*
X54729999Y-91494819D01*
X54729999Y-91494819D02*
X54587142Y-91542438D01*
X54587142Y-91542438D02*
X54491904Y-91637676D01*
X54491904Y-91637676D02*
X54444285Y-91732914D01*
X54444285Y-91732914D02*
X54396666Y-91923390D01*
X54396666Y-91923390D02*
X54396666Y-92066247D01*
X54396666Y-92066247D02*
X54444285Y-92256723D01*
X54444285Y-92256723D02*
X54491904Y-92351961D01*
X54491904Y-92351961D02*
X54587142Y-92447200D01*
X54587142Y-92447200D02*
X54729999Y-92494819D01*
X54729999Y-92494819D02*
X54968094Y-92494819D01*
X53491904Y-91494819D02*
X53968094Y-91494819D01*
X53968094Y-91494819D02*
X54015713Y-91971009D01*
X54015713Y-91971009D02*
X53968094Y-91923390D01*
X53968094Y-91923390D02*
X53872856Y-91875771D01*
X53872856Y-91875771D02*
X53634761Y-91875771D01*
X53634761Y-91875771D02*
X53539523Y-91923390D01*
X53539523Y-91923390D02*
X53491904Y-91971009D01*
X53491904Y-91971009D02*
X53444285Y-92066247D01*
X53444285Y-92066247D02*
X53444285Y-92304342D01*
X53444285Y-92304342D02*
X53491904Y-92399580D01*
X53491904Y-92399580D02*
X53539523Y-92447200D01*
X53539523Y-92447200D02*
X53634761Y-92494819D01*
X53634761Y-92494819D02*
X53872856Y-92494819D01*
X53872856Y-92494819D02*
X53968094Y-92447200D01*
X53968094Y-92447200D02*
X54015713Y-92399580D01*
X56374819Y-77696666D02*
X57089104Y-77696666D01*
X57089104Y-77696666D02*
X57231961Y-77649047D01*
X57231961Y-77649047D02*
X57327200Y-77553809D01*
X57327200Y-77553809D02*
X57374819Y-77410952D01*
X57374819Y-77410952D02*
X57374819Y-77315714D01*
X56374819Y-78077619D02*
X56374819Y-78696666D01*
X56374819Y-78696666D02*
X56755771Y-78363333D01*
X56755771Y-78363333D02*
X56755771Y-78506190D01*
X56755771Y-78506190D02*
X56803390Y-78601428D01*
X56803390Y-78601428D02*
X56851009Y-78649047D01*
X56851009Y-78649047D02*
X56946247Y-78696666D01*
X56946247Y-78696666D02*
X57184342Y-78696666D01*
X57184342Y-78696666D02*
X57279580Y-78649047D01*
X57279580Y-78649047D02*
X57327200Y-78601428D01*
X57327200Y-78601428D02*
X57374819Y-78506190D01*
X57374819Y-78506190D02*
X57374819Y-78220476D01*
X57374819Y-78220476D02*
X57327200Y-78125238D01*
X57327200Y-78125238D02*
X57279580Y-78077619D01*
X56374819Y-48696666D02*
X57089104Y-48696666D01*
X57089104Y-48696666D02*
X57231961Y-48649047D01*
X57231961Y-48649047D02*
X57327200Y-48553809D01*
X57327200Y-48553809D02*
X57374819Y-48410952D01*
X57374819Y-48410952D02*
X57374819Y-48315714D01*
X56470057Y-49125238D02*
X56422438Y-49172857D01*
X56422438Y-49172857D02*
X56374819Y-49268095D01*
X56374819Y-49268095D02*
X56374819Y-49506190D01*
X56374819Y-49506190D02*
X56422438Y-49601428D01*
X56422438Y-49601428D02*
X56470057Y-49649047D01*
X56470057Y-49649047D02*
X56565295Y-49696666D01*
X56565295Y-49696666D02*
X56660533Y-49696666D01*
X56660533Y-49696666D02*
X56803390Y-49649047D01*
X56803390Y-49649047D02*
X57374819Y-49077619D01*
X57374819Y-49077619D02*
X57374819Y-49696666D01*
X32534819Y-50636666D02*
X33249104Y-50636666D01*
X33249104Y-50636666D02*
X33391961Y-50589047D01*
X33391961Y-50589047D02*
X33487200Y-50493809D01*
X33487200Y-50493809D02*
X33534819Y-50350952D01*
X33534819Y-50350952D02*
X33534819Y-50255714D01*
X32534819Y-51017619D02*
X32534819Y-51684285D01*
X32534819Y-51684285D02*
X33534819Y-51255714D01*
X56374819Y-116220476D02*
X57089104Y-116220476D01*
X57089104Y-116220476D02*
X57231961Y-116172857D01*
X57231961Y-116172857D02*
X57327200Y-116077619D01*
X57327200Y-116077619D02*
X57374819Y-115934762D01*
X57374819Y-115934762D02*
X57374819Y-115839524D01*
X57374819Y-117220476D02*
X57374819Y-116649048D01*
X57374819Y-116934762D02*
X56374819Y-116934762D01*
X56374819Y-116934762D02*
X56517676Y-116839524D01*
X56517676Y-116839524D02*
X56612914Y-116744286D01*
X56612914Y-116744286D02*
X56660533Y-116649048D01*
X56470057Y-117601429D02*
X56422438Y-117649048D01*
X56422438Y-117649048D02*
X56374819Y-117744286D01*
X56374819Y-117744286D02*
X56374819Y-117982381D01*
X56374819Y-117982381D02*
X56422438Y-118077619D01*
X56422438Y-118077619D02*
X56470057Y-118125238D01*
X56470057Y-118125238D02*
X56565295Y-118172857D01*
X56565295Y-118172857D02*
X56660533Y-118172857D01*
X56660533Y-118172857D02*
X56803390Y-118125238D01*
X56803390Y-118125238D02*
X57374819Y-117553810D01*
X57374819Y-117553810D02*
X57374819Y-118172857D01*
X56374819Y-87696666D02*
X57089104Y-87696666D01*
X57089104Y-87696666D02*
X57231961Y-87649047D01*
X57231961Y-87649047D02*
X57327200Y-87553809D01*
X57327200Y-87553809D02*
X57374819Y-87410952D01*
X57374819Y-87410952D02*
X57374819Y-87315714D01*
X57374819Y-88220476D02*
X57374819Y-88410952D01*
X57374819Y-88410952D02*
X57327200Y-88506190D01*
X57327200Y-88506190D02*
X57279580Y-88553809D01*
X57279580Y-88553809D02*
X57136723Y-88649047D01*
X57136723Y-88649047D02*
X56946247Y-88696666D01*
X56946247Y-88696666D02*
X56565295Y-88696666D01*
X56565295Y-88696666D02*
X56470057Y-88649047D01*
X56470057Y-88649047D02*
X56422438Y-88601428D01*
X56422438Y-88601428D02*
X56374819Y-88506190D01*
X56374819Y-88506190D02*
X56374819Y-88315714D01*
X56374819Y-88315714D02*
X56422438Y-88220476D01*
X56422438Y-88220476D02*
X56470057Y-88172857D01*
X56470057Y-88172857D02*
X56565295Y-88125238D01*
X56565295Y-88125238D02*
X56803390Y-88125238D01*
X56803390Y-88125238D02*
X56898628Y-88172857D01*
X56898628Y-88172857D02*
X56946247Y-88220476D01*
X56946247Y-88220476D02*
X56993866Y-88315714D01*
X56993866Y-88315714D02*
X56993866Y-88506190D01*
X56993866Y-88506190D02*
X56946247Y-88601428D01*
X56946247Y-88601428D02*
X56898628Y-88649047D01*
X56898628Y-88649047D02*
X56803390Y-88696666D01*
X56374819Y-58696666D02*
X57089104Y-58696666D01*
X57089104Y-58696666D02*
X57231961Y-58649047D01*
X57231961Y-58649047D02*
X57327200Y-58553809D01*
X57327200Y-58553809D02*
X57374819Y-58410952D01*
X57374819Y-58410952D02*
X57374819Y-58315714D01*
X56374819Y-59601428D02*
X56374819Y-59410952D01*
X56374819Y-59410952D02*
X56422438Y-59315714D01*
X56422438Y-59315714D02*
X56470057Y-59268095D01*
X56470057Y-59268095D02*
X56612914Y-59172857D01*
X56612914Y-59172857D02*
X56803390Y-59125238D01*
X56803390Y-59125238D02*
X57184342Y-59125238D01*
X57184342Y-59125238D02*
X57279580Y-59172857D01*
X57279580Y-59172857D02*
X57327200Y-59220476D01*
X57327200Y-59220476D02*
X57374819Y-59315714D01*
X57374819Y-59315714D02*
X57374819Y-59506190D01*
X57374819Y-59506190D02*
X57327200Y-59601428D01*
X57327200Y-59601428D02*
X57279580Y-59649047D01*
X57279580Y-59649047D02*
X57184342Y-59696666D01*
X57184342Y-59696666D02*
X56946247Y-59696666D01*
X56946247Y-59696666D02*
X56851009Y-59649047D01*
X56851009Y-59649047D02*
X56803390Y-59601428D01*
X56803390Y-59601428D02*
X56755771Y-59506190D01*
X56755771Y-59506190D02*
X56755771Y-59315714D01*
X56755771Y-59315714D02*
X56803390Y-59220476D01*
X56803390Y-59220476D02*
X56851009Y-59172857D01*
X56851009Y-59172857D02*
X56946247Y-59125238D01*
X32534819Y-40636666D02*
X33249104Y-40636666D01*
X33249104Y-40636666D02*
X33391961Y-40589047D01*
X33391961Y-40589047D02*
X33487200Y-40493809D01*
X33487200Y-40493809D02*
X33534819Y-40350952D01*
X33534819Y-40350952D02*
X33534819Y-40255714D01*
X32534819Y-41589047D02*
X32534819Y-41112857D01*
X32534819Y-41112857D02*
X33011009Y-41065238D01*
X33011009Y-41065238D02*
X32963390Y-41112857D01*
X32963390Y-41112857D02*
X32915771Y-41208095D01*
X32915771Y-41208095D02*
X32915771Y-41446190D01*
X32915771Y-41446190D02*
X32963390Y-41541428D01*
X32963390Y-41541428D02*
X33011009Y-41589047D01*
X33011009Y-41589047D02*
X33106247Y-41636666D01*
X33106247Y-41636666D02*
X33344342Y-41636666D01*
X33344342Y-41636666D02*
X33439580Y-41589047D01*
X33439580Y-41589047D02*
X33487200Y-41541428D01*
X33487200Y-41541428D02*
X33534819Y-41446190D01*
X33534819Y-41446190D02*
X33534819Y-41208095D01*
X33534819Y-41208095D02*
X33487200Y-41112857D01*
X33487200Y-41112857D02*
X33439580Y-41065238D01*
X54968094Y-34494819D02*
X54968094Y-33494819D01*
X54968094Y-33494819D02*
X54729999Y-33494819D01*
X54729999Y-33494819D02*
X54587142Y-33542438D01*
X54587142Y-33542438D02*
X54491904Y-33637676D01*
X54491904Y-33637676D02*
X54444285Y-33732914D01*
X54444285Y-33732914D02*
X54396666Y-33923390D01*
X54396666Y-33923390D02*
X54396666Y-34066247D01*
X54396666Y-34066247D02*
X54444285Y-34256723D01*
X54444285Y-34256723D02*
X54491904Y-34351961D01*
X54491904Y-34351961D02*
X54587142Y-34447200D01*
X54587142Y-34447200D02*
X54729999Y-34494819D01*
X54729999Y-34494819D02*
X54968094Y-34494819D01*
X53444285Y-34494819D02*
X54015713Y-34494819D01*
X53729999Y-34494819D02*
X53729999Y-33494819D01*
X53729999Y-33494819D02*
X53825237Y-33637676D01*
X53825237Y-33637676D02*
X53920475Y-33732914D01*
X53920475Y-33732914D02*
X54015713Y-33780533D01*
X49468094Y-92494819D02*
X49468094Y-91494819D01*
X49468094Y-91494819D02*
X49229999Y-91494819D01*
X49229999Y-91494819D02*
X49087142Y-91542438D01*
X49087142Y-91542438D02*
X48991904Y-91637676D01*
X48991904Y-91637676D02*
X48944285Y-91732914D01*
X48944285Y-91732914D02*
X48896666Y-91923390D01*
X48896666Y-91923390D02*
X48896666Y-92066247D01*
X48896666Y-92066247D02*
X48944285Y-92256723D01*
X48944285Y-92256723D02*
X48991904Y-92351961D01*
X48991904Y-92351961D02*
X49087142Y-92447200D01*
X49087142Y-92447200D02*
X49229999Y-92494819D01*
X49229999Y-92494819D02*
X49468094Y-92494819D01*
X48039523Y-91494819D02*
X48229999Y-91494819D01*
X48229999Y-91494819D02*
X48325237Y-91542438D01*
X48325237Y-91542438D02*
X48372856Y-91590057D01*
X48372856Y-91590057D02*
X48468094Y-91732914D01*
X48468094Y-91732914D02*
X48515713Y-91923390D01*
X48515713Y-91923390D02*
X48515713Y-92304342D01*
X48515713Y-92304342D02*
X48468094Y-92399580D01*
X48468094Y-92399580D02*
X48420475Y-92447200D01*
X48420475Y-92447200D02*
X48325237Y-92494819D01*
X48325237Y-92494819D02*
X48134761Y-92494819D01*
X48134761Y-92494819D02*
X48039523Y-92447200D01*
X48039523Y-92447200D02*
X47991904Y-92399580D01*
X47991904Y-92399580D02*
X47944285Y-92304342D01*
X47944285Y-92304342D02*
X47944285Y-92066247D01*
X47944285Y-92066247D02*
X47991904Y-91971009D01*
X47991904Y-91971009D02*
X48039523Y-91923390D01*
X48039523Y-91923390D02*
X48134761Y-91875771D01*
X48134761Y-91875771D02*
X48325237Y-91875771D01*
X48325237Y-91875771D02*
X48420475Y-91923390D01*
X48420475Y-91923390D02*
X48468094Y-91971009D01*
X48468094Y-91971009D02*
X48515713Y-92066247D01*
X32534819Y-69636666D02*
X33249104Y-69636666D01*
X33249104Y-69636666D02*
X33391961Y-69589047D01*
X33391961Y-69589047D02*
X33487200Y-69493809D01*
X33487200Y-69493809D02*
X33534819Y-69350952D01*
X33534819Y-69350952D02*
X33534819Y-69255714D01*
X32963390Y-70255714D02*
X32915771Y-70160476D01*
X32915771Y-70160476D02*
X32868152Y-70112857D01*
X32868152Y-70112857D02*
X32772914Y-70065238D01*
X32772914Y-70065238D02*
X32725295Y-70065238D01*
X32725295Y-70065238D02*
X32630057Y-70112857D01*
X32630057Y-70112857D02*
X32582438Y-70160476D01*
X32582438Y-70160476D02*
X32534819Y-70255714D01*
X32534819Y-70255714D02*
X32534819Y-70446190D01*
X32534819Y-70446190D02*
X32582438Y-70541428D01*
X32582438Y-70541428D02*
X32630057Y-70589047D01*
X32630057Y-70589047D02*
X32725295Y-70636666D01*
X32725295Y-70636666D02*
X32772914Y-70636666D01*
X32772914Y-70636666D02*
X32868152Y-70589047D01*
X32868152Y-70589047D02*
X32915771Y-70541428D01*
X32915771Y-70541428D02*
X32963390Y-70446190D01*
X32963390Y-70446190D02*
X32963390Y-70255714D01*
X32963390Y-70255714D02*
X33011009Y-70160476D01*
X33011009Y-70160476D02*
X33058628Y-70112857D01*
X33058628Y-70112857D02*
X33153866Y-70065238D01*
X33153866Y-70065238D02*
X33344342Y-70065238D01*
X33344342Y-70065238D02*
X33439580Y-70112857D01*
X33439580Y-70112857D02*
X33487200Y-70160476D01*
X33487200Y-70160476D02*
X33534819Y-70255714D01*
X33534819Y-70255714D02*
X33534819Y-70446190D01*
X33534819Y-70446190D02*
X33487200Y-70541428D01*
X33487200Y-70541428D02*
X33439580Y-70589047D01*
X33439580Y-70589047D02*
X33344342Y-70636666D01*
X33344342Y-70636666D02*
X33153866Y-70636666D01*
X33153866Y-70636666D02*
X33058628Y-70589047D01*
X33058628Y-70589047D02*
X33011009Y-70541428D01*
X33011009Y-70541428D02*
X32963390Y-70446190D01*
X32534819Y-79160476D02*
X33249104Y-79160476D01*
X33249104Y-79160476D02*
X33391961Y-79112857D01*
X33391961Y-79112857D02*
X33487200Y-79017619D01*
X33487200Y-79017619D02*
X33534819Y-78874762D01*
X33534819Y-78874762D02*
X33534819Y-78779524D01*
X33534819Y-80160476D02*
X33534819Y-79589048D01*
X33534819Y-79874762D02*
X32534819Y-79874762D01*
X32534819Y-79874762D02*
X32677676Y-79779524D01*
X32677676Y-79779524D02*
X32772914Y-79684286D01*
X32772914Y-79684286D02*
X32820533Y-79589048D01*
X32534819Y-80779524D02*
X32534819Y-80874762D01*
X32534819Y-80874762D02*
X32582438Y-80970000D01*
X32582438Y-80970000D02*
X32630057Y-81017619D01*
X32630057Y-81017619D02*
X32725295Y-81065238D01*
X32725295Y-81065238D02*
X32915771Y-81112857D01*
X32915771Y-81112857D02*
X33153866Y-81112857D01*
X33153866Y-81112857D02*
X33344342Y-81065238D01*
X33344342Y-81065238D02*
X33439580Y-81017619D01*
X33439580Y-81017619D02*
X33487200Y-80970000D01*
X33487200Y-80970000D02*
X33534819Y-80874762D01*
X33534819Y-80874762D02*
X33534819Y-80779524D01*
X33534819Y-80779524D02*
X33487200Y-80684286D01*
X33487200Y-80684286D02*
X33439580Y-80636667D01*
X33439580Y-80636667D02*
X33344342Y-80589048D01*
X33344342Y-80589048D02*
X33153866Y-80541429D01*
X33153866Y-80541429D02*
X32915771Y-80541429D01*
X32915771Y-80541429D02*
X32725295Y-80589048D01*
X32725295Y-80589048D02*
X32630057Y-80636667D01*
X32630057Y-80636667D02*
X32582438Y-80684286D01*
X32582438Y-80684286D02*
X32534819Y-80779524D01*
X49468094Y-63494819D02*
X49468094Y-62494819D01*
X49468094Y-62494819D02*
X49229999Y-62494819D01*
X49229999Y-62494819D02*
X49087142Y-62542438D01*
X49087142Y-62542438D02*
X48991904Y-62637676D01*
X48991904Y-62637676D02*
X48944285Y-62732914D01*
X48944285Y-62732914D02*
X48896666Y-62923390D01*
X48896666Y-62923390D02*
X48896666Y-63066247D01*
X48896666Y-63066247D02*
X48944285Y-63256723D01*
X48944285Y-63256723D02*
X48991904Y-63351961D01*
X48991904Y-63351961D02*
X49087142Y-63447200D01*
X49087142Y-63447200D02*
X49229999Y-63494819D01*
X49229999Y-63494819D02*
X49468094Y-63494819D01*
X48039523Y-62828152D02*
X48039523Y-63494819D01*
X48277618Y-62447200D02*
X48515713Y-63161485D01*
X48515713Y-63161485D02*
X47896666Y-63161485D01*
X32534819Y-108160476D02*
X33249104Y-108160476D01*
X33249104Y-108160476D02*
X33391961Y-108112857D01*
X33391961Y-108112857D02*
X33487200Y-108017619D01*
X33487200Y-108017619D02*
X33534819Y-107874762D01*
X33534819Y-107874762D02*
X33534819Y-107779524D01*
X33534819Y-109160476D02*
X33534819Y-108589048D01*
X33534819Y-108874762D02*
X32534819Y-108874762D01*
X32534819Y-108874762D02*
X32677676Y-108779524D01*
X32677676Y-108779524D02*
X32772914Y-108684286D01*
X32772914Y-108684286D02*
X32820533Y-108589048D01*
X32534819Y-109493810D02*
X32534819Y-110112857D01*
X32534819Y-110112857D02*
X32915771Y-109779524D01*
X32915771Y-109779524D02*
X32915771Y-109922381D01*
X32915771Y-109922381D02*
X32963390Y-110017619D01*
X32963390Y-110017619D02*
X33011009Y-110065238D01*
X33011009Y-110065238D02*
X33106247Y-110112857D01*
X33106247Y-110112857D02*
X33344342Y-110112857D01*
X33344342Y-110112857D02*
X33439580Y-110065238D01*
X33439580Y-110065238D02*
X33487200Y-110017619D01*
X33487200Y-110017619D02*
X33534819Y-109922381D01*
X33534819Y-109922381D02*
X33534819Y-109636667D01*
X33534819Y-109636667D02*
X33487200Y-109541429D01*
X33487200Y-109541429D02*
X33439580Y-109493810D01*
X56374819Y-106696666D02*
X57089104Y-106696666D01*
X57089104Y-106696666D02*
X57231961Y-106649047D01*
X57231961Y-106649047D02*
X57327200Y-106553809D01*
X57327200Y-106553809D02*
X57374819Y-106410952D01*
X57374819Y-106410952D02*
X57374819Y-106315714D01*
X56708152Y-107601428D02*
X57374819Y-107601428D01*
X56327200Y-107363333D02*
X57041485Y-107125238D01*
X57041485Y-107125238D02*
X57041485Y-107744285D01*
X32534819Y-98160476D02*
X33249104Y-98160476D01*
X33249104Y-98160476D02*
X33391961Y-98112857D01*
X33391961Y-98112857D02*
X33487200Y-98017619D01*
X33487200Y-98017619D02*
X33534819Y-97874762D01*
X33534819Y-97874762D02*
X33534819Y-97779524D01*
X33534819Y-99160476D02*
X33534819Y-98589048D01*
X33534819Y-98874762D02*
X32534819Y-98874762D01*
X32534819Y-98874762D02*
X32677676Y-98779524D01*
X32677676Y-98779524D02*
X32772914Y-98684286D01*
X32772914Y-98684286D02*
X32820533Y-98589048D01*
X33534819Y-100112857D02*
X33534819Y-99541429D01*
X33534819Y-99827143D02*
X32534819Y-99827143D01*
X32534819Y-99827143D02*
X32677676Y-99731905D01*
X32677676Y-99731905D02*
X32772914Y-99636667D01*
X32772914Y-99636667D02*
X32820533Y-99541429D01*
%TO.C,D2*%
D12*
X50290000Y-35764000D02*
X50290000Y-35920000D01*
X50290000Y-38080000D02*
X50290000Y-38236000D01*
X47058563Y-35920000D02*
G75*
G02*
X50290000Y-35764484I1671437J-1080000D01*
G01*
X47689039Y-35920000D02*
G75*
G02*
X49770961Y-35920000I1040961J-1080000D01*
G01*
X49770961Y-38080000D02*
G75*
G02*
X47689039Y-38080000I-1040961J1080000D01*
G01*
X50290000Y-38235516D02*
G75*
G02*
X47058563Y-38080000I-1560000J1235516D01*
G01*
%TO.C,D3*%
X55790000Y-64764000D02*
X55790000Y-64920000D01*
X55790000Y-67080000D02*
X55790000Y-67236000D01*
X52558563Y-64920000D02*
G75*
G02*
X55790000Y-64764484I1671437J-1080000D01*
G01*
X53189039Y-64920000D02*
G75*
G02*
X55270961Y-64920000I1040961J-1080000D01*
G01*
X55270961Y-67080000D02*
G75*
G02*
X53189039Y-67080000I-1040961J1080000D01*
G01*
X55790000Y-67235516D02*
G75*
G02*
X52558563Y-67080000I-1560000J1235516D01*
G01*
%TO.C,D5*%
X55790000Y-93764000D02*
X55790000Y-93920000D01*
X55790000Y-96080000D02*
X55790000Y-96236000D01*
X52558563Y-93920000D02*
G75*
G02*
X55790000Y-93764484I1671437J-1080000D01*
G01*
X53189039Y-93920000D02*
G75*
G02*
X55270961Y-93920000I1040961J-1080000D01*
G01*
X55270961Y-96080000D02*
G75*
G02*
X53189039Y-96080000I-1040961J1080000D01*
G01*
X55790000Y-96235516D02*
G75*
G02*
X52558563Y-96080000I-1560000J1235516D01*
G01*
%TO.C,J3*%
X45520000Y-69500000D02*
X45520000Y-73200000D01*
X45520000Y-74800000D02*
X45520000Y-78500000D01*
X56020000Y-69500000D02*
X45520000Y-69500000D01*
X56020000Y-69500000D02*
X56020000Y-73280000D01*
X56020000Y-74720000D02*
X56020000Y-78500000D01*
X56020000Y-78500000D02*
X45520000Y-78500000D01*
X59170000Y-75230000D02*
X58370000Y-75230000D01*
X59170000Y-75230000D02*
X59170000Y-74370000D01*
X53320000Y-74000000D02*
G75*
G02*
X49720000Y-74000000I-1800000J0D01*
G01*
X49720000Y-74000000D02*
G75*
G02*
X53320000Y-74000000I1800000J0D01*
G01*
%TO.C,J2*%
X45520000Y-40500000D02*
X45520000Y-44200000D01*
X45520000Y-45800000D02*
X45520000Y-49500000D01*
X56020000Y-40500000D02*
X45520000Y-40500000D01*
X56020000Y-40500000D02*
X56020000Y-44280000D01*
X56020000Y-45720000D02*
X56020000Y-49500000D01*
X56020000Y-49500000D02*
X45520000Y-49500000D01*
X59170000Y-46230000D02*
X58370000Y-46230000D01*
X59170000Y-46230000D02*
X59170000Y-45370000D01*
X53320000Y-45000000D02*
G75*
G02*
X49720000Y-45000000I-1800000J0D01*
G01*
X49720000Y-45000000D02*
G75*
G02*
X53320000Y-45000000I1800000J0D01*
G01*
%TO.C,J7*%
X30830000Y-53770000D02*
X30830000Y-54630000D01*
X30830000Y-53770000D02*
X31630000Y-53770000D01*
X33980000Y-50500000D02*
X44480000Y-50500000D01*
X33980000Y-54280000D02*
X33980000Y-50500000D01*
X33980000Y-59500000D02*
X33980000Y-55720000D01*
X33980000Y-59500000D02*
X44480000Y-59500000D01*
X44480000Y-54200000D02*
X44480000Y-50500000D01*
X44480000Y-59500000D02*
X44480000Y-55800000D01*
X40280000Y-55000000D02*
G75*
G02*
X36680000Y-55000000I-1800000J0D01*
G01*
X36680000Y-55000000D02*
G75*
G02*
X40280000Y-55000000I1800000J0D01*
G01*
%TO.C,J12*%
X45520000Y-108500000D02*
X45520000Y-112200000D01*
X45520000Y-113800000D02*
X45520000Y-117500000D01*
X56020000Y-108500000D02*
X45520000Y-108500000D01*
X56020000Y-108500000D02*
X56020000Y-112280000D01*
X56020000Y-113720000D02*
X56020000Y-117500000D01*
X56020000Y-117500000D02*
X45520000Y-117500000D01*
X59170000Y-114230000D02*
X58370000Y-114230000D01*
X59170000Y-114230000D02*
X59170000Y-113370000D01*
X53320000Y-113000000D02*
G75*
G02*
X49720000Y-113000000I-1800000J0D01*
G01*
X49720000Y-113000000D02*
G75*
G02*
X53320000Y-113000000I1800000J0D01*
G01*
%TO.C,J9*%
X45520000Y-79500000D02*
X45520000Y-83200000D01*
X45520000Y-84800000D02*
X45520000Y-88500000D01*
X56020000Y-79500000D02*
X45520000Y-79500000D01*
X56020000Y-79500000D02*
X56020000Y-83280000D01*
X56020000Y-84720000D02*
X56020000Y-88500000D01*
X56020000Y-88500000D02*
X45520000Y-88500000D01*
X59170000Y-85230000D02*
X58370000Y-85230000D01*
X59170000Y-85230000D02*
X59170000Y-84370000D01*
X53320000Y-84000000D02*
G75*
G02*
X49720000Y-84000000I-1800000J0D01*
G01*
X49720000Y-84000000D02*
G75*
G02*
X53320000Y-84000000I1800000J0D01*
G01*
%TO.C,J6*%
X45520000Y-50500000D02*
X45520000Y-54200000D01*
X45520000Y-55800000D02*
X45520000Y-59500000D01*
X56020000Y-50500000D02*
X45520000Y-50500000D01*
X56020000Y-50500000D02*
X56020000Y-54280000D01*
X56020000Y-55720000D02*
X56020000Y-59500000D01*
X56020000Y-59500000D02*
X45520000Y-59500000D01*
X59170000Y-56230000D02*
X58370000Y-56230000D01*
X59170000Y-56230000D02*
X59170000Y-55370000D01*
X53320000Y-55000000D02*
G75*
G02*
X49720000Y-55000000I-1800000J0D01*
G01*
X49720000Y-55000000D02*
G75*
G02*
X53320000Y-55000000I1800000J0D01*
G01*
%TO.C,J5*%
X30830000Y-43770000D02*
X30830000Y-44630000D01*
X30830000Y-43770000D02*
X31630000Y-43770000D01*
X33980000Y-40500000D02*
X44480000Y-40500000D01*
X33980000Y-44280000D02*
X33980000Y-40500000D01*
X33980000Y-49500000D02*
X33980000Y-45720000D01*
X33980000Y-49500000D02*
X44480000Y-49500000D01*
X44480000Y-44200000D02*
X44480000Y-40500000D01*
X44480000Y-49500000D02*
X44480000Y-45800000D01*
X40280000Y-45000000D02*
G75*
G02*
X36680000Y-45000000I-1800000J0D01*
G01*
X36680000Y-45000000D02*
G75*
G02*
X40280000Y-45000000I1800000J0D01*
G01*
%TO.C,D1*%
X55790000Y-35764000D02*
X55790000Y-35920000D01*
X55790000Y-38080000D02*
X55790000Y-38236000D01*
X52558563Y-35920000D02*
G75*
G02*
X55790000Y-35764484I1671437J-1080000D01*
G01*
X53189039Y-35920000D02*
G75*
G02*
X55270961Y-35920000I1040961J-1080000D01*
G01*
X55270961Y-38080000D02*
G75*
G02*
X53189039Y-38080000I-1040961J1080000D01*
G01*
X55790000Y-38235516D02*
G75*
G02*
X52558563Y-38080000I-1560000J1235516D01*
G01*
%TO.C,D6*%
X50290000Y-93764000D02*
X50290000Y-93920000D01*
X50290000Y-96080000D02*
X50290000Y-96236000D01*
X47058563Y-93920000D02*
G75*
G02*
X50290000Y-93764484I1671437J-1080000D01*
G01*
X47689039Y-93920000D02*
G75*
G02*
X49770961Y-93920000I1040961J-1080000D01*
G01*
X49770961Y-96080000D02*
G75*
G02*
X47689039Y-96080000I-1040961J1080000D01*
G01*
X50290000Y-96235516D02*
G75*
G02*
X47058563Y-96080000I-1560000J1235516D01*
G01*
%TO.C,J8*%
X30830000Y-72770000D02*
X30830000Y-73630000D01*
X30830000Y-72770000D02*
X31630000Y-72770000D01*
X33980000Y-69500000D02*
X44480000Y-69500000D01*
X33980000Y-73280000D02*
X33980000Y-69500000D01*
X33980000Y-78500000D02*
X33980000Y-74720000D01*
X33980000Y-78500000D02*
X44480000Y-78500000D01*
X44480000Y-73200000D02*
X44480000Y-69500000D01*
X44480000Y-78500000D02*
X44480000Y-74800000D01*
X40280000Y-74000000D02*
G75*
G02*
X36680000Y-74000000I-1800000J0D01*
G01*
X36680000Y-74000000D02*
G75*
G02*
X40280000Y-74000000I1800000J0D01*
G01*
%TO.C,J10*%
X30830000Y-82770000D02*
X30830000Y-83630000D01*
X30830000Y-82770000D02*
X31630000Y-82770000D01*
X33980000Y-79500000D02*
X44480000Y-79500000D01*
X33980000Y-83280000D02*
X33980000Y-79500000D01*
X33980000Y-88500000D02*
X33980000Y-84720000D01*
X33980000Y-88500000D02*
X44480000Y-88500000D01*
X44480000Y-83200000D02*
X44480000Y-79500000D01*
X44480000Y-88500000D02*
X44480000Y-84800000D01*
X40280000Y-84000000D02*
G75*
G02*
X36680000Y-84000000I-1800000J0D01*
G01*
X36680000Y-84000000D02*
G75*
G02*
X40280000Y-84000000I1800000J0D01*
G01*
%TO.C,D4*%
X50290000Y-64764000D02*
X50290000Y-64920000D01*
X50290000Y-67080000D02*
X50290000Y-67236000D01*
X47058563Y-64920000D02*
G75*
G02*
X50290000Y-64764484I1671437J-1080000D01*
G01*
X47689039Y-64920000D02*
G75*
G02*
X49770961Y-64920000I1040961J-1080000D01*
G01*
X49770961Y-67080000D02*
G75*
G02*
X47689039Y-67080000I-1040961J1080000D01*
G01*
X50290000Y-67235516D02*
G75*
G02*
X47058563Y-67080000I-1560000J1235516D01*
G01*
%TO.C,J13*%
X30830000Y-111770000D02*
X30830000Y-112630000D01*
X30830000Y-111770000D02*
X31630000Y-111770000D01*
X33980000Y-108500000D02*
X44480000Y-108500000D01*
X33980000Y-112280000D02*
X33980000Y-108500000D01*
X33980000Y-117500000D02*
X33980000Y-113720000D01*
X33980000Y-117500000D02*
X44480000Y-117500000D01*
X44480000Y-112200000D02*
X44480000Y-108500000D01*
X44480000Y-117500000D02*
X44480000Y-113800000D01*
X40280000Y-113000000D02*
G75*
G02*
X36680000Y-113000000I-1800000J0D01*
G01*
X36680000Y-113000000D02*
G75*
G02*
X40280000Y-113000000I1800000J0D01*
G01*
%TO.C,J4*%
X45520000Y-98500000D02*
X45520000Y-102200000D01*
X45520000Y-103800000D02*
X45520000Y-107500000D01*
X56020000Y-98500000D02*
X45520000Y-98500000D01*
X56020000Y-98500000D02*
X56020000Y-102280000D01*
X56020000Y-103720000D02*
X56020000Y-107500000D01*
X56020000Y-107500000D02*
X45520000Y-107500000D01*
X59170000Y-104230000D02*
X58370000Y-104230000D01*
X59170000Y-104230000D02*
X59170000Y-103370000D01*
X53320000Y-103000000D02*
G75*
G02*
X49720000Y-103000000I-1800000J0D01*
G01*
X49720000Y-103000000D02*
G75*
G02*
X53320000Y-103000000I1800000J0D01*
G01*
%TO.C,J11*%
X30830000Y-101770000D02*
X30830000Y-102630000D01*
X30830000Y-101770000D02*
X31630000Y-101770000D01*
X33980000Y-98500000D02*
X44480000Y-98500000D01*
X33980000Y-102280000D02*
X33980000Y-98500000D01*
X33980000Y-107500000D02*
X33980000Y-103720000D01*
X33980000Y-107500000D02*
X44480000Y-107500000D01*
X44480000Y-102200000D02*
X44480000Y-98500000D01*
X44480000Y-107500000D02*
X44480000Y-103800000D01*
X40280000Y-103000000D02*
G75*
G02*
X36680000Y-103000000I-1800000J0D01*
G01*
X36680000Y-103000000D02*
G75*
G02*
X40280000Y-103000000I1800000J0D01*
G01*
%TD*%
%LPC*%
D13*
%TO.C,J1*%
X37500000Y-132000000D03*
D14*
X34960000Y-132000000D03*
X37500000Y-129460000D03*
X34960000Y-129460000D03*
X37500000Y-126920000D03*
X34960000Y-126920000D03*
X37500000Y-124380000D03*
X34960000Y-124380000D03*
X37500000Y-121840000D03*
X34960000Y-121840000D03*
%TD*%
D15*
%TO.C,D2*%
X50000000Y-37000000D03*
D16*
X47460000Y-37000000D03*
%TD*%
D15*
%TO.C,D3*%
X55500000Y-66000000D03*
D16*
X52960000Y-66000000D03*
%TD*%
D15*
%TO.C,D5*%
X55500000Y-95000000D03*
D16*
X52960000Y-95000000D03*
%TD*%
D17*
%TO.C,J3*%
X58000000Y-74000000D03*
D18*
X46600000Y-74000000D03*
X54900000Y-74000000D03*
%TD*%
D17*
%TO.C,J2*%
X58000000Y-45000000D03*
D18*
X46600000Y-45000000D03*
X54900000Y-45000000D03*
%TD*%
D17*
%TO.C,J7*%
X32000000Y-55000000D03*
D18*
X43400000Y-55000000D03*
X35100000Y-55000000D03*
%TD*%
D17*
%TO.C,J12*%
X58000000Y-113000000D03*
D18*
X46600000Y-113000000D03*
X54900000Y-113000000D03*
%TD*%
D17*
%TO.C,J9*%
X58000000Y-84000000D03*
D18*
X46600000Y-84000000D03*
X54900000Y-84000000D03*
%TD*%
D17*
%TO.C,J6*%
X58000000Y-55000000D03*
D18*
X46600000Y-55000000D03*
X54900000Y-55000000D03*
%TD*%
D17*
%TO.C,J5*%
X32000000Y-45000000D03*
D18*
X43400000Y-45000000D03*
X35100000Y-45000000D03*
%TD*%
D15*
%TO.C,D1*%
X55500000Y-37000000D03*
D16*
X52960000Y-37000000D03*
%TD*%
D15*
%TO.C,D6*%
X50000000Y-95000000D03*
D16*
X47460000Y-95000000D03*
%TD*%
D17*
%TO.C,J8*%
X32000000Y-74000000D03*
D18*
X43400000Y-74000000D03*
X35100000Y-74000000D03*
%TD*%
D17*
%TO.C,J10*%
X32000000Y-84000000D03*
D18*
X43400000Y-84000000D03*
X35100000Y-84000000D03*
%TD*%
D15*
%TO.C,D4*%
X50000000Y-66000000D03*
D16*
X47460000Y-66000000D03*
%TD*%
D17*
%TO.C,J13*%
X32000000Y-113000000D03*
D18*
X43400000Y-113000000D03*
X35100000Y-113000000D03*
%TD*%
D17*
%TO.C,J4*%
X58000000Y-103000000D03*
D18*
X46600000Y-103000000D03*
X54900000Y-103000000D03*
%TD*%
D17*
%TO.C,J11*%
X32000000Y-103000000D03*
D18*
X43400000Y-103000000D03*
X35100000Y-103000000D03*
%TD*%
%LPD*%
M02*
