%TF.GenerationSoftware,KiCad,Pcbnew,10.0.4*%
%TF.CreationDate,2026-08-01T21:16:21+10:00*%
%TF.ProjectId,Buffered-Mult,42756666-6572-4656-942d-4d756c742e6b,rev?*%
%TF.SameCoordinates,Original*%
%TF.FileFunction,Soldermask,Bot*%
%TF.FilePolarity,Negative*%
%FSLAX46Y46*%
G04 Gerber Fmt 4.6, Leading zero omitted, Abs format (unit mm)*
G04 Created by KiCad (PCBNEW 10.0.4) date 2026-08-01 21:16:21*
%MOMM*%
%LPD*%
G01*
G04 APERTURE LIST*
G04 Aperture macros list*
%AMRoundRect*
0 Rectangle with rounded corners*
0 $1 Rounding radius*
0 $2 $3 $4 $5 $6 $7 $8 $9 X,Y pos of 4 corners*
0 Add a 4 corners polygon primitive as box body*
4,1,4,$2,$3,$4,$5,$6,$7,$8,$9,$2,$3,0*
0 Add four circle primitives for the rounded corners*
1,1,$1+$1,$2,$3*
1,1,$1+$1,$4,$5*
1,1,$1+$1,$6,$7*
1,1,$1+$1,$8,$9*
0 Add four rect primitives between the rounded corners*
20,1,$1+$1,$2,$3,$4,$5,0*
20,1,$1+$1,$4,$5,$6,$7,0*
20,1,$1+$1,$6,$7,$8,$9,0*
20,1,$1+$1,$8,$9,$2,$3,0*%
G04 Aperture macros list end*
%ADD10RoundRect,0.250000X0.600000X0.600000X-0.600000X0.600000X-0.600000X-0.600000X0.600000X-0.600000X0*%
%ADD11C,1.700000*%
%ADD12R,1.800000X1.800000*%
%ADD13C,1.800000*%
%ADD14R,1.830000X1.930000*%
%ADD15C,2.130000*%
G04 APERTURE END LIST*
D10*
%TO.C,J1*%
X37500000Y-132000000D03*
D11*
X34960000Y-132000000D03*
X37500000Y-129460000D03*
X34960000Y-129460000D03*
X37500000Y-126920000D03*
X34960000Y-126920000D03*
X37500000Y-124380000D03*
X34960000Y-124380000D03*
X37500000Y-121840000D03*
X34960000Y-121840000D03*
%TD*%
D12*
%TO.C,D2*%
X50000000Y-37000000D03*
D13*
X47460000Y-37000000D03*
%TD*%
D12*
%TO.C,D3*%
X55500000Y-66000000D03*
D13*
X52960000Y-66000000D03*
%TD*%
D12*
%TO.C,D5*%
X55500000Y-95000000D03*
D13*
X52960000Y-95000000D03*
%TD*%
D14*
%TO.C,J3*%
X58000000Y-74000000D03*
D15*
X46600000Y-74000000D03*
X54900000Y-74000000D03*
%TD*%
D14*
%TO.C,J2*%
X58000000Y-45000000D03*
D15*
X46600000Y-45000000D03*
X54900000Y-45000000D03*
%TD*%
D14*
%TO.C,J7*%
X32000000Y-55000000D03*
D15*
X43400000Y-55000000D03*
X35100000Y-55000000D03*
%TD*%
D14*
%TO.C,J12*%
X58000000Y-113000000D03*
D15*
X46600000Y-113000000D03*
X54900000Y-113000000D03*
%TD*%
D14*
%TO.C,J9*%
X58000000Y-84000000D03*
D15*
X46600000Y-84000000D03*
X54900000Y-84000000D03*
%TD*%
D14*
%TO.C,J6*%
X58000000Y-55000000D03*
D15*
X46600000Y-55000000D03*
X54900000Y-55000000D03*
%TD*%
D14*
%TO.C,J5*%
X32000000Y-45000000D03*
D15*
X43400000Y-45000000D03*
X35100000Y-45000000D03*
%TD*%
D12*
%TO.C,D1*%
X55500000Y-37000000D03*
D13*
X52960000Y-37000000D03*
%TD*%
D12*
%TO.C,D6*%
X50000000Y-95000000D03*
D13*
X47460000Y-95000000D03*
%TD*%
D14*
%TO.C,J8*%
X32000000Y-74000000D03*
D15*
X43400000Y-74000000D03*
X35100000Y-74000000D03*
%TD*%
D14*
%TO.C,J10*%
X32000000Y-84000000D03*
D15*
X43400000Y-84000000D03*
X35100000Y-84000000D03*
%TD*%
D12*
%TO.C,D4*%
X50000000Y-66000000D03*
D13*
X47460000Y-66000000D03*
%TD*%
D14*
%TO.C,J13*%
X32000000Y-113000000D03*
D15*
X43400000Y-113000000D03*
X35100000Y-113000000D03*
%TD*%
D14*
%TO.C,J4*%
X58000000Y-103000000D03*
D15*
X46600000Y-103000000D03*
X54900000Y-103000000D03*
%TD*%
D14*
%TO.C,J11*%
X32000000Y-103000000D03*
D15*
X43400000Y-103000000D03*
X35100000Y-103000000D03*
%TD*%
M02*
