M48
; DRILL file KiCad 10.0.4 date 2026-08-01T21:03:34
; FORMAT={-:-/ absolute / inch / decimal}
; #@! TF.CreationDate,2026-08-01T21:03:34+10:00
; #@! TF.GenerationSoftware,Kicad,Pcbnew,10.0.4
; #@! TF.FileFunction,Plated,1,2,PTH
FMAT,2
INCH
; #@! TA.AperFunction,Plated,PTH,ViaDrill
T1C0.0118
; #@! TA.AperFunction,Plated,PTH,ComponentDrill
T2C0.0354
; #@! TA.AperFunction,Plated,PTH,ComponentDrill
T3C0.0394
; #@! TA.AperFunction,Plated,PTH,ComponentDrill
T4C0.0480
; #@! TA.AperFunction,Plated,PTH,ComponentDrill
T5C0.0559
; #@! TA.AperFunction,Plated,PTH,ComponentDrill
T6C0.0563
%
G90
G05
T1
X1.248Y-1.4409
X1.2795Y-3.6614
X1.2835Y-2.5197
X1.3307Y-1.437
X1.3307Y-1.5049
X1.3425Y-2.5197
X1.3425Y-2.5876
X1.3425Y-3.6614
X1.3425Y-3.7293
X1.4961Y-1.6929
X1.6329Y-1.587
X1.6329Y-2.6697
X1.6329Y-3.1575
X1.6329Y-3.8114
X1.6373Y-2.0118
X1.6378Y-4.3031
X1.7165Y-3.9291
X1.7205Y-2.5197
X1.7205Y-3.6614
X1.7244Y-1.4331
X1.7362Y-1.3701
X1.7362Y-1.6575
X1.7362Y-2.4567
X1.7362Y-2.7874
X1.7638Y-2.0827
X1.7717Y-4.3701
X1.7746Y-3.0197
X1.7746Y-4.1575
X1.7835Y-3.7313
X1.7874Y-2.5896
X1.7913Y-1.503
X1.8858Y-2.7323
X1.9055Y-1.8071
X1.9124Y-3.0197
X1.9208Y-1.8937
X1.9331Y-3.8858
X1.9862Y-1.6713
X2.1024Y-2.7244
T2
X1.8685Y-1.4567
X1.8685Y-2.5984
X1.8685Y-3.7402
X1.9685Y-1.4567
X1.9685Y-2.5984
X1.9685Y-3.7402
X2.085Y-1.4567
X2.085Y-2.5984
X2.085Y-3.7402
X2.185Y-1.4567
X2.185Y-2.5984
X2.185Y-3.7402
T3
X1.3764Y-4.7969
X1.3764Y-4.8969
X1.3764Y-4.9969
X1.3764Y-5.0969
X1.3764Y-5.1969
X1.4764Y-4.7969
X1.4764Y-4.8969
X1.4764Y-4.9969
X1.4764Y-5.0969
X1.4764Y-5.1969
T4
X1.2598Y-1.7717
X1.2598Y-2.1654
X1.2598Y-2.9134
X1.2598Y-3.3071
X1.2598Y-4.0551
X1.2598Y-4.4488
X2.2835Y-1.7717
X2.2835Y-2.1654
X2.2835Y-2.9134
X2.2835Y-3.3071
X2.2835Y-4.0551
X2.2835Y-4.4488
T5
X1.3819Y-1.7717
X1.3819Y-2.1654
X1.3819Y-2.9134
X1.3819Y-3.3071
X1.3819Y-4.0551
X1.3819Y-4.4488
X2.1614Y-1.7717
X2.1614Y-2.1654
X2.1614Y-2.9134
X2.1614Y-3.3071
X2.1614Y-4.0551
X2.1614Y-4.4488
T6
X1.7087Y-1.7717
X1.7087Y-2.1654
X1.7087Y-2.9134
X1.7087Y-3.3071
X1.7087Y-4.0551
X1.7087Y-4.4488
X1.8346Y-1.7717
X1.8346Y-2.1654
X1.8346Y-2.9134
X1.8346Y-3.3071
X1.8346Y-4.0551
X1.8346Y-4.4488
M30
