%TF.GenerationSoftware,KiCad,Pcbnew,10.0.4*%
%TF.CreationDate,2026-08-01T21:16:21+10:00*%
%TF.ProjectId,Buffered-Mult,42756666-6572-4656-942d-4d756c742e6b,rev?*%
%TF.SameCoordinates,Original*%
%TF.FileFunction,Legend,Top*%
%TF.FilePolarity,Positive*%
%FSLAX46Y46*%
G04 Gerber Fmt 4.6, Leading zero omitted, Abs format (unit mm)*
G04 Created by KiCad (PCBNEW 10.0.4) date 2026-08-01 21:16:21*
%MOMM*%
%LPD*%
G01*
G04 APERTURE LIST*
G04 Aperture macros list*
%AMRoundRect*
0 Rectangle with rounded corners*
0 $1 Rounding radius*
0 $2 $3 $4 $5 $6 $7 $8 $9 X,Y pos of 4 corners*
0 Add a 4 corners polygon primitive as box body*
4,1,4,$2,$3,$4,$5,$6,$7,$8,$9,$2,$3,0*
0 Add four circle primitives for the rounded corners*
1,1,$1+$1,$2,$3*
1,1,$1+$1,$4,$5*
1,1,$1+$1,$6,$7*
1,1,$1+$1,$8,$9*
0 Add four rect primitives between the rounded corners*
20,1,$1+$1,$2,$3,$4,$5,0*
20,1,$1+$1,$4,$5,$6,$7,0*
20,1,$1+$1,$6,$7,$8,$9,0*
20,1,$1+$1,$8,$9,$2,$3,0*%
G04 Aperture macros list end*
%ADD10C,0.200000*%
%ADD11C,0.150000*%
%ADD12C,0.120000*%
%ADD13RoundRect,0.237500X0.250000X0.237500X-0.250000X0.237500X-0.250000X-0.237500X0.250000X-0.237500X0*%
%ADD14RoundRect,0.237500X0.237500X-0.300000X0.237500X0.300000X-0.237500X0.300000X-0.237500X-0.300000X0*%
%ADD15RoundRect,0.237500X-0.237500X0.300000X-0.237500X-0.300000X0.237500X-0.300000X0.237500X0.300000X0*%
%ADD16RoundRect,0.237500X-0.237500X0.250000X-0.237500X-0.250000X0.237500X-0.250000X0.237500X0.250000X0*%
%ADD17RoundRect,0.250000X-0.550000X1.250000X-0.550000X-1.250000X0.550000X-1.250000X0.550000X1.250000X0*%
%ADD18RoundRect,0.150000X-0.825000X-0.150000X0.825000X-0.150000X0.825000X0.150000X-0.825000X0.150000X0*%
%ADD19RoundRect,0.250000X-0.650000X1.500000X-0.650000X-1.500000X0.650000X-1.500000X0.650000X1.500000X0*%
%ADD20RoundRect,0.237500X0.300000X0.237500X-0.300000X0.237500X-0.300000X-0.237500X0.300000X-0.237500X0*%
%ADD21RoundRect,0.237500X-0.250000X-0.237500X0.250000X-0.237500X0.250000X0.237500X-0.250000X0.237500X0*%
%ADD22RoundRect,0.250000X0.600000X0.600000X-0.600000X0.600000X-0.600000X-0.600000X0.600000X-0.600000X0*%
%ADD23C,1.700000*%
%ADD24R,1.800000X1.800000*%
%ADD25C,1.800000*%
%ADD26R,1.830000X1.930000*%
%ADD27C,2.130000*%
G04 APERTURE END LIST*
D10*
G36*
X38871309Y-138288451D02*
G01*
X38898588Y-138305071D01*
X38922775Y-138334797D01*
X38939397Y-138370745D01*
X38950253Y-138416269D01*
X38954221Y-138473649D01*
X38950154Y-138531950D01*
X38939056Y-138577917D01*
X38922103Y-138613967D01*
X38897436Y-138643606D01*
X38869478Y-138660275D01*
X38836863Y-138665868D01*
X38805238Y-138660303D01*
X38778188Y-138643682D01*
X38754370Y-138613967D01*
X38738192Y-138578019D01*
X38727560Y-138532052D01*
X38723656Y-138473649D01*
X38727609Y-138414301D01*
X38738282Y-138368465D01*
X38754370Y-138333393D01*
X38778167Y-138304779D01*
X38806079Y-138288453D01*
X38839610Y-138282896D01*
X38871309Y-138288451D01*
G37*
G36*
X34102399Y-138262419D02*
G01*
X34137386Y-138282834D01*
X34155844Y-138302687D01*
X34166289Y-138323642D01*
X34169748Y-138346460D01*
X34164802Y-138363984D01*
X34157719Y-138367256D01*
X34138852Y-138368869D01*
X33981254Y-138368869D01*
X33958797Y-138366937D01*
X33951700Y-138363251D01*
X33947487Y-138349269D01*
X33952430Y-138327089D01*
X33970019Y-138298893D01*
X33995981Y-138274689D01*
X34025988Y-138260442D01*
X34061427Y-138255540D01*
X34102399Y-138262419D01*
G37*
G36*
X34856780Y-138296587D02*
G01*
X34890232Y-138313686D01*
X34918902Y-138342979D01*
X34939393Y-138379646D01*
X34952471Y-138425044D01*
X34957187Y-138481343D01*
X34952444Y-138539520D01*
X34939323Y-138586293D01*
X34918841Y-138623920D01*
X34890058Y-138654248D01*
X34857331Y-138671678D01*
X34819129Y-138677592D01*
X34784529Y-138672120D01*
X34755493Y-138656079D01*
X34730530Y-138628194D01*
X34713256Y-138593663D01*
X34701951Y-138549309D01*
X34697801Y-138492639D01*
X34697801Y-138474260D01*
X34701992Y-138418599D01*
X34713456Y-138374688D01*
X34731079Y-138340170D01*
X34756286Y-138311989D01*
X34784452Y-138296056D01*
X34816870Y-138290711D01*
X34856780Y-138296587D01*
G37*
G36*
X39648666Y-138262419D02*
G01*
X39683653Y-138282834D01*
X39702111Y-138302687D01*
X39712556Y-138323642D01*
X39716015Y-138346460D01*
X39711069Y-138363984D01*
X39703986Y-138367256D01*
X39685118Y-138368869D01*
X39527520Y-138368869D01*
X39505063Y-138366937D01*
X39497967Y-138363251D01*
X39493754Y-138349269D01*
X39498696Y-138327089D01*
X39516285Y-138298893D01*
X39542248Y-138274689D01*
X39572255Y-138260442D01*
X39607693Y-138255540D01*
X39648666Y-138262419D01*
G37*
G36*
X33206192Y-138083997D02*
G01*
X33241640Y-138096742D01*
X33264925Y-138115590D01*
X33278877Y-138140820D01*
X33283879Y-138174635D01*
X33277592Y-138210970D01*
X33259465Y-138239150D01*
X33227701Y-138261220D01*
X33177149Y-138276721D01*
X33100209Y-138282834D01*
X33073435Y-138279877D01*
X33059970Y-138273004D01*
X33052656Y-138259761D01*
X33049406Y-138230872D01*
X33049406Y-138146547D01*
X33053362Y-138117567D01*
X33063820Y-138098372D01*
X33080425Y-138086158D01*
X33102292Y-138081380D01*
X33153881Y-138079075D01*
X33206192Y-138083997D01*
G37*
G36*
X40051097Y-139183399D02*
G01*
X32512336Y-139183399D01*
X32512336Y-137995361D01*
X32623447Y-137995361D01*
X32629020Y-138031865D01*
X32645001Y-138061001D01*
X32669465Y-138080986D01*
X32698735Y-138087501D01*
X32732868Y-138082616D01*
X32765596Y-138077670D01*
X32781360Y-138081411D01*
X32792768Y-138092579D01*
X32800462Y-138113941D01*
X32802028Y-138146547D01*
X32803210Y-138171154D01*
X32803210Y-138557424D01*
X32799500Y-138607664D01*
X32790823Y-138635082D01*
X32779539Y-138648259D01*
X32765596Y-138652313D01*
X32733539Y-138647367D01*
X32698735Y-138642421D01*
X32669485Y-138648987D01*
X32645001Y-138669166D01*
X32629027Y-138698444D01*
X32623447Y-138735233D01*
X32628033Y-138774090D01*
X32640317Y-138801652D01*
X32659549Y-138820931D01*
X32687002Y-138833228D01*
X32725662Y-138837815D01*
X32825130Y-138830732D01*
X32928872Y-138823649D01*
X33028279Y-138830732D01*
X33119382Y-138837815D01*
X33156150Y-138833318D01*
X33182430Y-138821201D01*
X33201001Y-138802046D01*
X33212958Y-138774425D01*
X33217445Y-138735233D01*
X33212110Y-138698366D01*
X33196929Y-138669166D01*
X33173755Y-138648880D01*
X33146859Y-138642421D01*
X33114986Y-138647367D01*
X33084699Y-138652313D01*
X33071789Y-138648416D01*
X33061191Y-138635566D01*
X33052949Y-138608451D01*
X33049406Y-138558340D01*
X33049406Y-138526650D01*
X33051534Y-138492345D01*
X33056245Y-138475542D01*
X33071351Y-138460821D01*
X33104422Y-138454842D01*
X33167818Y-138458824D01*
X33209535Y-138468826D01*
X33235703Y-138482686D01*
X33254726Y-138504110D01*
X33267334Y-138536169D01*
X33272156Y-138582948D01*
X33272156Y-138592718D01*
X33272156Y-138673440D01*
X33272156Y-138683271D01*
X33276036Y-138728708D01*
X33286823Y-138765503D01*
X33303785Y-138795378D01*
X33327426Y-138819171D01*
X33354844Y-138833053D01*
X33387377Y-138837815D01*
X33437264Y-138834274D01*
X33487151Y-138830732D01*
X33534900Y-138834274D01*
X33582711Y-138837815D01*
X33611576Y-138834573D01*
X33635314Y-138825384D01*
X33655068Y-138810399D01*
X33669992Y-138790580D01*
X33679210Y-138766407D01*
X33682484Y-138736638D01*
X33677430Y-138697298D01*
X33663616Y-138668433D01*
X33641686Y-138648847D01*
X33614096Y-138642421D01*
X33588267Y-138645963D01*
X33562438Y-138649504D01*
X33543429Y-138644036D01*
X33531254Y-138627258D01*
X33526168Y-138592657D01*
X33526168Y-138575987D01*
X33526168Y-138527444D01*
X33522014Y-138484396D01*
X33709839Y-138484396D01*
X33716597Y-138567306D01*
X33735819Y-138638362D01*
X33766663Y-138699674D01*
X33809307Y-138752819D01*
X33862005Y-138796017D01*
X33922811Y-138827205D01*
X33993297Y-138846622D01*
X34075593Y-138853447D01*
X34159016Y-138846709D01*
X34230482Y-138827555D01*
X34292114Y-138796844D01*
X34333381Y-138764776D01*
X34360467Y-138731586D01*
X34375982Y-138696750D01*
X34381140Y-138659152D01*
X34374585Y-138625844D01*
X34355129Y-138599068D01*
X34325918Y-138581486D01*
X34287046Y-138575254D01*
X34255226Y-138579990D01*
X34224680Y-138594511D01*
X34194417Y-138620439D01*
X34150290Y-138658821D01*
X34110615Y-138679137D01*
X34073700Y-138685408D01*
X34037038Y-138680890D01*
X34005648Y-138667807D01*
X33978262Y-138645901D01*
X33957368Y-138617583D01*
X33944772Y-138585047D01*
X33940404Y-138547044D01*
X33942410Y-138529495D01*
X33946755Y-138522315D01*
X33955560Y-138519004D01*
X33978323Y-138517369D01*
X34320751Y-138517369D01*
X34359295Y-138511680D01*
X34378942Y-138497829D01*
X34385956Y-138480671D01*
X34473831Y-138480671D01*
X34479456Y-138560829D01*
X34495545Y-138631054D01*
X34521366Y-138692903D01*
X34556812Y-138747629D01*
X34602191Y-138794806D01*
X34651789Y-138827318D01*
X34706575Y-138846781D01*
X34768143Y-138853447D01*
X34824537Y-138848239D01*
X34873241Y-138833317D01*
X34915753Y-138809052D01*
X34953106Y-138774895D01*
X34985764Y-138729433D01*
X34985764Y-138780357D01*
X34991164Y-138809136D01*
X35005172Y-138824486D01*
X35029422Y-138830000D01*
X35067463Y-138825298D01*
X35128096Y-138822184D01*
X35176029Y-138825115D01*
X35225366Y-138833907D01*
X35233853Y-138833907D01*
X35265113Y-138827102D01*
X35289296Y-138806796D01*
X35304602Y-138776744D01*
X35307982Y-138752208D01*
X35730216Y-138752208D01*
X35736415Y-138792714D01*
X35752952Y-138819171D01*
X35780015Y-138835537D01*
X35821868Y-138841723D01*
X35858581Y-138836323D01*
X35882287Y-138822052D01*
X35896748Y-138799021D01*
X35902163Y-138763810D01*
X35962666Y-138804227D01*
X36022513Y-138831903D01*
X36082387Y-138848091D01*
X36143108Y-138853447D01*
X36217421Y-138847417D01*
X36282508Y-138830108D01*
X36339987Y-138802084D01*
X36391076Y-138763077D01*
X36433569Y-138714783D01*
X36463622Y-138660879D01*
X36481983Y-138600222D01*
X36488346Y-138531168D01*
X36482995Y-138472166D01*
X36467745Y-138421765D01*
X36443097Y-138378312D01*
X36408600Y-138340659D01*
X36367826Y-138310890D01*
X36313578Y-138283061D01*
X36242959Y-138257681D01*
X36152634Y-138235573D01*
X36057753Y-138213130D01*
X36021781Y-138199120D01*
X36008096Y-138186679D01*
X35999288Y-138167904D01*
X35995952Y-138140319D01*
X36000463Y-138110913D01*
X36013136Y-138088782D01*
X36034519Y-138072069D01*
X36067410Y-138060665D01*
X36116303Y-138056238D01*
X36167762Y-138060746D01*
X36205655Y-138072793D01*
X36233214Y-138091033D01*
X36252631Y-138115421D01*
X36264741Y-138147219D01*
X36271702Y-138176650D01*
X36283435Y-138206014D01*
X36302193Y-138226273D01*
X36329050Y-138239063D01*
X36366957Y-138243817D01*
X36411449Y-138237816D01*
X36439486Y-138222267D01*
X36450844Y-138205593D01*
X36545987Y-138205593D01*
X36550423Y-138235759D01*
X36562840Y-138258532D01*
X36582131Y-138273865D01*
X36606376Y-138278988D01*
X36628846Y-138278988D01*
X36649847Y-138281771D01*
X36659010Y-138288086D01*
X36663262Y-138300437D01*
X36665361Y-138331988D01*
X36665361Y-138376563D01*
X36661819Y-138493738D01*
X36658339Y-138610853D01*
X36663911Y-138680264D01*
X36679117Y-138734402D01*
X36702504Y-138776451D01*
X36733808Y-138808750D01*
X36773985Y-138832555D01*
X36825081Y-138847870D01*
X36890003Y-138853447D01*
X36948916Y-138849093D01*
X36998150Y-138836878D01*
X37039398Y-138817627D01*
X37073979Y-138791531D01*
X37102179Y-138758549D01*
X37122633Y-138719738D01*
X37135450Y-138673943D01*
X37139986Y-138619584D01*
X37135123Y-138561372D01*
X37122723Y-138522786D01*
X37104876Y-138498226D01*
X37081770Y-138484006D01*
X37051631Y-138479023D01*
X37017163Y-138484194D01*
X36994778Y-138497926D01*
X36981028Y-138520241D01*
X36975854Y-138554555D01*
X36977259Y-138568538D01*
X36977259Y-138586673D01*
X36976099Y-138603464D01*
X36972026Y-138639608D01*
X36961851Y-138661322D01*
X36946849Y-138673377D01*
X36925662Y-138677592D01*
X36903583Y-138673027D01*
X36887750Y-138659821D01*
X36876868Y-138635689D01*
X36872479Y-138595099D01*
X36873883Y-138557302D01*
X36876692Y-138463574D01*
X36878096Y-138376868D01*
X36878096Y-138319532D01*
X36879726Y-138300125D01*
X36883653Y-138288818D01*
X36892978Y-138282150D01*
X36918702Y-138278988D01*
X37033312Y-138278988D01*
X37067646Y-138273855D01*
X37089920Y-138260238D01*
X37103586Y-138238137D01*
X37106671Y-138217744D01*
X37173203Y-138217744D01*
X37178072Y-138253653D01*
X37190708Y-138276316D01*
X37210530Y-138289749D01*
X37240125Y-138294680D01*
X37264549Y-138290101D01*
X37286226Y-138285521D01*
X37296888Y-138290850D01*
X37305712Y-138312179D01*
X37309979Y-138365816D01*
X37309979Y-138593939D01*
X37305733Y-138646501D01*
X37296929Y-138667489D01*
X37286226Y-138672768D01*
X37265282Y-138667334D01*
X37240186Y-138661899D01*
X37210662Y-138666877D01*
X37190816Y-138680481D01*
X37178112Y-138703532D01*
X37173203Y-138740179D01*
X37179345Y-138783419D01*
X37195447Y-138811065D01*
X37221118Y-138827723D01*
X37259970Y-138833907D01*
X37342585Y-138826580D01*
X37436435Y-138822184D01*
X37524668Y-138826580D01*
X37603070Y-138833907D01*
X37639375Y-138827097D01*
X37669565Y-138806796D01*
X37689956Y-138776599D01*
X37696859Y-138739446D01*
X37691400Y-138711189D01*
X37675000Y-138687423D01*
X37650894Y-138671269D01*
X37622182Y-138665868D01*
X37588293Y-138671425D01*
X37553061Y-138676920D01*
X37540676Y-138674623D01*
X37533339Y-138668494D01*
X37527676Y-138649836D01*
X37524912Y-138603953D01*
X37524912Y-138550647D01*
X37531629Y-138450301D01*
X37550375Y-138366854D01*
X37571744Y-138321492D01*
X37599482Y-138291442D01*
X37634098Y-138273557D01*
X37677869Y-138267264D01*
X37686418Y-138267264D01*
X37672999Y-138300509D01*
X37669504Y-138321303D01*
X37676225Y-138354427D01*
X37696554Y-138382241D01*
X37726376Y-138400888D01*
X37762500Y-138407215D01*
X37795083Y-138402994D01*
X37822920Y-138390742D01*
X37847191Y-138370090D01*
X37865428Y-138343639D01*
X37876607Y-138312534D01*
X37880530Y-138275507D01*
X37874577Y-138229172D01*
X37870703Y-138220186D01*
X37890300Y-138220186D01*
X37895190Y-138256917D01*
X37907830Y-138279981D01*
X37927534Y-138293564D01*
X37956795Y-138298527D01*
X37979021Y-138295657D01*
X38003995Y-138288513D01*
X38014309Y-138293747D01*
X38022906Y-138314858D01*
X38027076Y-138368197D01*
X38027076Y-138594549D01*
X38022745Y-138646505D01*
X38013711Y-138667431D01*
X38002590Y-138672768D01*
X37993065Y-138672768D01*
X37956917Y-138661899D01*
X37927693Y-138666911D01*
X37907947Y-138680667D01*
X37895232Y-138704119D01*
X37890300Y-138741584D01*
X37896487Y-138779065D01*
X37914174Y-138808018D01*
X37941263Y-138827310D01*
X37975968Y-138833907D01*
X38048996Y-138828046D01*
X38123429Y-138822184D01*
X38213311Y-138826580D01*
X38292018Y-138833907D01*
X38328614Y-138827782D01*
X38353160Y-138811074D01*
X38368831Y-138782839D01*
X38374877Y-138738042D01*
X38370408Y-138704114D01*
X38358884Y-138682872D01*
X38340984Y-138670409D01*
X38314488Y-138665868D01*
X38289331Y-138669349D01*
X38268510Y-138672768D01*
X38256035Y-138667478D01*
X38246469Y-138647981D01*
X38242009Y-138601510D01*
X38242009Y-138220247D01*
X38368039Y-138220247D01*
X38372922Y-138256996D01*
X38385536Y-138280059D01*
X38405187Y-138293632D01*
X38434351Y-138298588D01*
X38456454Y-138295413D01*
X38481306Y-138287536D01*
X38491846Y-138292826D01*
X38500586Y-138314042D01*
X38504815Y-138367465D01*
X38504815Y-138473649D01*
X38504815Y-138831404D01*
X38500412Y-138884487D01*
X38491236Y-138905838D01*
X38479963Y-138911271D01*
X38456454Y-138905043D01*
X38435755Y-138900280D01*
X38405894Y-138905307D01*
X38385831Y-138919037D01*
X38372997Y-138942286D01*
X38368039Y-138979232D01*
X38374220Y-139017066D01*
X38391852Y-139046215D01*
X38418684Y-139065722D01*
X38451997Y-139072288D01*
X38477215Y-139071006D01*
X38596161Y-139060565D01*
X38723473Y-139067037D01*
X38800409Y-139072288D01*
X38840125Y-139066471D01*
X38865739Y-139051113D01*
X38881341Y-139026365D01*
X38887177Y-138988574D01*
X38882535Y-138954801D01*
X38870455Y-138933407D01*
X38851417Y-138920665D01*
X38822880Y-138915973D01*
X38786549Y-138918782D01*
X38754431Y-138922934D01*
X38736230Y-138918348D01*
X38725240Y-138905044D01*
X38720847Y-138879031D01*
X38720847Y-138769733D01*
X38772330Y-138805563D01*
X38801753Y-138822306D01*
X38845368Y-138836735D01*
X38895115Y-138841723D01*
X38957736Y-138835212D01*
X39011918Y-138816451D01*
X39059467Y-138785569D01*
X39101500Y-138741339D01*
X39133537Y-138689780D01*
X39157468Y-138628549D01*
X39172744Y-138555846D01*
X39177252Y-138484396D01*
X39256106Y-138484396D01*
X39262864Y-138567306D01*
X39282086Y-138638362D01*
X39312930Y-138699674D01*
X39355573Y-138752819D01*
X39408272Y-138796017D01*
X39469077Y-138827205D01*
X39539564Y-138846622D01*
X39621859Y-138853447D01*
X39705283Y-138846709D01*
X39776748Y-138827555D01*
X39838381Y-138796844D01*
X39879648Y-138764776D01*
X39906734Y-138731586D01*
X39922248Y-138696750D01*
X39927407Y-138659152D01*
X39920852Y-138625844D01*
X39901395Y-138599068D01*
X39872184Y-138581486D01*
X39833312Y-138575254D01*
X39801493Y-138579990D01*
X39770947Y-138594511D01*
X39740683Y-138620439D01*
X39696557Y-138658821D01*
X39656882Y-138679137D01*
X39619966Y-138685408D01*
X39583304Y-138680890D01*
X39551914Y-138667807D01*
X39524528Y-138645901D01*
X39503634Y-138617583D01*
X39491039Y-138585047D01*
X39486671Y-138547044D01*
X39488676Y-138529495D01*
X39493021Y-138522315D01*
X39501827Y-138519004D01*
X39524590Y-138517369D01*
X39867018Y-138517369D01*
X39905562Y-138511680D01*
X39925209Y-138497829D01*
X39935378Y-138472949D01*
X39939986Y-138419672D01*
X39933986Y-138349628D01*
X39916882Y-138289505D01*
X39889316Y-138237477D01*
X39850959Y-138192220D01*
X39804148Y-138155816D01*
X39749981Y-138129381D01*
X39687049Y-138112859D01*
X39613494Y-138107041D01*
X39535160Y-138113963D01*
X39467150Y-138133814D01*
X39407524Y-138166040D01*
X39354902Y-138211210D01*
X39312513Y-138265976D01*
X39281862Y-138328675D01*
X39276418Y-138349269D01*
X39262793Y-138400815D01*
X39256106Y-138484396D01*
X39177252Y-138484396D01*
X39178192Y-138469497D01*
X39172865Y-138386058D01*
X39157899Y-138315525D01*
X39134394Y-138255853D01*
X39102843Y-138205348D01*
X39061593Y-138162017D01*
X39014993Y-138131774D01*
X38961958Y-138113410D01*
X38900732Y-138107041D01*
X38838801Y-138113975D01*
X38783079Y-138134344D01*
X38731984Y-138168634D01*
X38684577Y-138218782D01*
X38684577Y-138177016D01*
X38679872Y-138147890D01*
X38668268Y-138133249D01*
X38649406Y-138128290D01*
X38622662Y-138131648D01*
X38546702Y-138138304D01*
X38505914Y-138134945D01*
X38456699Y-138126580D01*
X38446807Y-138126580D01*
X38415360Y-138133221D01*
X38390143Y-138153142D01*
X38373793Y-138182515D01*
X38368039Y-138220247D01*
X38242009Y-138220247D01*
X38242009Y-138180985D01*
X38236769Y-138148399D01*
X38223864Y-138132047D01*
X38202930Y-138126519D01*
X38161043Y-138130488D01*
X38099616Y-138134396D01*
X38021458Y-138129511D01*
X37976823Y-138126519D01*
X37941140Y-138133173D01*
X37913991Y-138152409D01*
X37896500Y-138181483D01*
X37890300Y-138220186D01*
X37870703Y-138220186D01*
X37857180Y-138188815D01*
X37827712Y-138152897D01*
X37790039Y-138125377D01*
X37747186Y-138108844D01*
X37697592Y-138103133D01*
X37643310Y-138108308D01*
X37597384Y-138123029D01*
X37558145Y-138146842D01*
X37524485Y-138180314D01*
X37501192Y-138219668D01*
X37478018Y-138285521D01*
X37478018Y-138166209D01*
X37472936Y-138141458D01*
X37459321Y-138127761D01*
X37434848Y-138122672D01*
X37387526Y-138128351D01*
X37338799Y-138134030D01*
X37291477Y-138128351D01*
X37252520Y-138122672D01*
X37220883Y-138129316D01*
X37195490Y-138149234D01*
X37179050Y-138178807D01*
X37173203Y-138217744D01*
X37106671Y-138217744D01*
X37108722Y-138204188D01*
X37103240Y-138169322D01*
X37088520Y-138146368D01*
X37064198Y-138132033D01*
X37026290Y-138126580D01*
X36925662Y-138126580D01*
X36897159Y-138123459D01*
X36885851Y-138116810D01*
X36880719Y-138103011D01*
X36878157Y-138066496D01*
X36878157Y-137990964D01*
X36872856Y-137948786D01*
X36870390Y-137944863D01*
X37995812Y-137944863D01*
X37999999Y-137977724D01*
X38012367Y-138007177D01*
X38033487Y-138034195D01*
X38060470Y-138055307D01*
X38089941Y-138067678D01*
X38122880Y-138071870D01*
X38156686Y-138067692D01*
X38186313Y-138055480D01*
X38212822Y-138034867D01*
X38233438Y-138008320D01*
X38245648Y-137978671D01*
X38249825Y-137944863D01*
X38245645Y-137911017D01*
X38233432Y-137881370D01*
X38212822Y-137854860D01*
X38186313Y-137834246D01*
X38156686Y-137822035D01*
X38122880Y-137817857D01*
X38088991Y-137822037D01*
X38059303Y-137834251D01*
X38032754Y-137854860D01*
X38012181Y-137881366D01*
X37999986Y-137911013D01*
X37995812Y-137944863D01*
X36870390Y-137944863D01*
X36860755Y-137929537D01*
X36838910Y-137919823D01*
X36794626Y-137915554D01*
X36732344Y-137921091D01*
X36700715Y-137933750D01*
X36687228Y-137947932D01*
X36678343Y-137969339D01*
X36674947Y-138000795D01*
X36674947Y-138069305D01*
X36670734Y-138106980D01*
X36659575Y-138120916D01*
X36631472Y-138126580D01*
X36604849Y-138126580D01*
X36583172Y-138132098D01*
X36563511Y-138149905D01*
X36550487Y-138175083D01*
X36545987Y-138205593D01*
X36450844Y-138205593D01*
X36456071Y-138197920D01*
X36462151Y-138161629D01*
X36462151Y-138154668D01*
X36459342Y-138118459D01*
X36456594Y-138082189D01*
X36460746Y-138020884D01*
X36464898Y-137959579D01*
X36459248Y-137926520D01*
X36443753Y-137904206D01*
X36417369Y-137889854D01*
X36375261Y-137884291D01*
X36336102Y-137889485D01*
X36314323Y-137902304D01*
X36302042Y-137925032D01*
X36296859Y-137968860D01*
X36251415Y-137925358D01*
X36199014Y-137894424D01*
X36138274Y-137875345D01*
X36067149Y-137868660D01*
X35999348Y-137874088D01*
X35940485Y-137889604D01*
X35889004Y-137914609D01*
X35843728Y-137949260D01*
X35806252Y-137992274D01*
X35779615Y-138040746D01*
X35763261Y-138095767D01*
X35757571Y-138158881D01*
X35764052Y-138220402D01*
X35782754Y-138273729D01*
X35813602Y-138320638D01*
X35857894Y-138362213D01*
X35911835Y-138395661D01*
X35969330Y-138416863D01*
X36061287Y-138439333D01*
X36165872Y-138468961D01*
X36207588Y-138487754D01*
X36224025Y-138503620D01*
X36234399Y-138525972D01*
X36238241Y-138557119D01*
X36234293Y-138585370D01*
X36222806Y-138609303D01*
X36203253Y-138630026D01*
X36178528Y-138645063D01*
X36147824Y-138654612D01*
X36109586Y-138658053D01*
X36051552Y-138652781D01*
X36009958Y-138638832D01*
X35980657Y-138617848D01*
X35960965Y-138589743D01*
X35950095Y-138552723D01*
X35935440Y-138495675D01*
X35917184Y-138466322D01*
X35900247Y-138454279D01*
X35875751Y-138446198D01*
X35841041Y-138443119D01*
X35796664Y-138449231D01*
X35763311Y-138466200D01*
X35746416Y-138483341D01*
X35736611Y-138502851D01*
X35733269Y-138525612D01*
X35737055Y-138573178D01*
X35740901Y-138620744D01*
X35734795Y-138689316D01*
X35730216Y-138752208D01*
X35307982Y-138752208D01*
X35310118Y-138736699D01*
X35305715Y-138703442D01*
X35294352Y-138682593D01*
X35276671Y-138670339D01*
X35250462Y-138665868D01*
X35228297Y-138669166D01*
X35207475Y-138674234D01*
X35195116Y-138668949D01*
X35185601Y-138649398D01*
X35181158Y-138602670D01*
X35181158Y-137963975D01*
X35177122Y-137924416D01*
X35167786Y-137904319D01*
X35150658Y-137892816D01*
X35119303Y-137888199D01*
X35067280Y-137892107D01*
X35013852Y-137896015D01*
X34937953Y-137889787D01*
X34892890Y-137888199D01*
X34848909Y-137894505D01*
X34820716Y-137911071D01*
X34803672Y-137937567D01*
X34797330Y-137977775D01*
X34802059Y-138009157D01*
X34815526Y-138033829D01*
X34836119Y-138050757D01*
X34860406Y-138056238D01*
X34896859Y-138050682D01*
X34930565Y-138047873D01*
X34949117Y-138052869D01*
X34960654Y-138067769D01*
X34965369Y-138097698D01*
X34965369Y-138197227D01*
X34917999Y-138160122D01*
X34870085Y-138134736D01*
X34820986Y-138119828D01*
X34769853Y-138114856D01*
X34705719Y-138121378D01*
X34649662Y-138140231D01*
X34599963Y-138171311D01*
X34555530Y-138215790D01*
X34520943Y-138267989D01*
X34495504Y-138328471D01*
X34479485Y-138398744D01*
X34474273Y-138474260D01*
X34473831Y-138480671D01*
X34385956Y-138480671D01*
X34389112Y-138472949D01*
X34393719Y-138419672D01*
X34387719Y-138349628D01*
X34370616Y-138289505D01*
X34343049Y-138237477D01*
X34304692Y-138192220D01*
X34257881Y-138155816D01*
X34203714Y-138129381D01*
X34140782Y-138112859D01*
X34067227Y-138107041D01*
X33988893Y-138113963D01*
X33920883Y-138133814D01*
X33861258Y-138166040D01*
X33808635Y-138211210D01*
X33766247Y-138265976D01*
X33735596Y-138328675D01*
X33730152Y-138349269D01*
X33716527Y-138400815D01*
X33709839Y-138484396D01*
X33522014Y-138484396D01*
X33520955Y-138473427D01*
X33506809Y-138432611D01*
X33484891Y-138401903D01*
X33454579Y-138378594D01*
X33409454Y-138358578D01*
X33344818Y-138342979D01*
X33425241Y-138319400D01*
X33472679Y-138295352D01*
X33504076Y-138267995D01*
X33526560Y-138234216D01*
X33540662Y-138192695D01*
X33545708Y-138141357D01*
X33540502Y-138085188D01*
X33525651Y-138037223D01*
X33501606Y-137995860D01*
X33467855Y-137960006D01*
X33427425Y-137931965D01*
X33379743Y-137911244D01*
X33323431Y-137898115D01*
X33256769Y-137893450D01*
X33132021Y-137899068D01*
X32922950Y-137907433D01*
X32833190Y-137903281D01*
X32733600Y-137893450D01*
X32721022Y-137892107D01*
X32693482Y-137895495D01*
X32670361Y-137905228D01*
X32650619Y-137921416D01*
X32630438Y-137953990D01*
X32623447Y-137995361D01*
X32512336Y-137995361D01*
X32512336Y-137706746D01*
X40051097Y-137706746D01*
X40051097Y-139183399D01*
G37*
D11*
X45933333Y-52984819D02*
X45600000Y-52508628D01*
X45361905Y-52984819D02*
X45361905Y-51984819D01*
X45361905Y-51984819D02*
X45742857Y-51984819D01*
X45742857Y-51984819D02*
X45838095Y-52032438D01*
X45838095Y-52032438D02*
X45885714Y-52080057D01*
X45885714Y-52080057D02*
X45933333Y-52175295D01*
X45933333Y-52175295D02*
X45933333Y-52318152D01*
X45933333Y-52318152D02*
X45885714Y-52413390D01*
X45885714Y-52413390D02*
X45838095Y-52461009D01*
X45838095Y-52461009D02*
X45742857Y-52508628D01*
X45742857Y-52508628D02*
X45361905Y-52508628D01*
X46504762Y-52413390D02*
X46409524Y-52365771D01*
X46409524Y-52365771D02*
X46361905Y-52318152D01*
X46361905Y-52318152D02*
X46314286Y-52222914D01*
X46314286Y-52222914D02*
X46314286Y-52175295D01*
X46314286Y-52175295D02*
X46361905Y-52080057D01*
X46361905Y-52080057D02*
X46409524Y-52032438D01*
X46409524Y-52032438D02*
X46504762Y-51984819D01*
X46504762Y-51984819D02*
X46695238Y-51984819D01*
X46695238Y-51984819D02*
X46790476Y-52032438D01*
X46790476Y-52032438D02*
X46838095Y-52080057D01*
X46838095Y-52080057D02*
X46885714Y-52175295D01*
X46885714Y-52175295D02*
X46885714Y-52222914D01*
X46885714Y-52222914D02*
X46838095Y-52318152D01*
X46838095Y-52318152D02*
X46790476Y-52365771D01*
X46790476Y-52365771D02*
X46695238Y-52413390D01*
X46695238Y-52413390D02*
X46504762Y-52413390D01*
X46504762Y-52413390D02*
X46409524Y-52461009D01*
X46409524Y-52461009D02*
X46361905Y-52508628D01*
X46361905Y-52508628D02*
X46314286Y-52603866D01*
X46314286Y-52603866D02*
X46314286Y-52794342D01*
X46314286Y-52794342D02*
X46361905Y-52889580D01*
X46361905Y-52889580D02*
X46409524Y-52937200D01*
X46409524Y-52937200D02*
X46504762Y-52984819D01*
X46504762Y-52984819D02*
X46695238Y-52984819D01*
X46695238Y-52984819D02*
X46790476Y-52937200D01*
X46790476Y-52937200D02*
X46838095Y-52889580D01*
X46838095Y-52889580D02*
X46885714Y-52794342D01*
X46885714Y-52794342D02*
X46885714Y-52603866D01*
X46885714Y-52603866D02*
X46838095Y-52508628D01*
X46838095Y-52508628D02*
X46790476Y-52461009D01*
X46790476Y-52461009D02*
X46695238Y-52413390D01*
X43997080Y-96729166D02*
X44044700Y-96776785D01*
X44044700Y-96776785D02*
X44092319Y-96919642D01*
X44092319Y-96919642D02*
X44092319Y-97014880D01*
X44092319Y-97014880D02*
X44044700Y-97157737D01*
X44044700Y-97157737D02*
X43949461Y-97252975D01*
X43949461Y-97252975D02*
X43854223Y-97300594D01*
X43854223Y-97300594D02*
X43663747Y-97348213D01*
X43663747Y-97348213D02*
X43520890Y-97348213D01*
X43520890Y-97348213D02*
X43330414Y-97300594D01*
X43330414Y-97300594D02*
X43235176Y-97252975D01*
X43235176Y-97252975D02*
X43139938Y-97157737D01*
X43139938Y-97157737D02*
X43092319Y-97014880D01*
X43092319Y-97014880D02*
X43092319Y-96919642D01*
X43092319Y-96919642D02*
X43139938Y-96776785D01*
X43139938Y-96776785D02*
X43187557Y-96729166D01*
X43092319Y-95872023D02*
X43092319Y-96062499D01*
X43092319Y-96062499D02*
X43139938Y-96157737D01*
X43139938Y-96157737D02*
X43187557Y-96205356D01*
X43187557Y-96205356D02*
X43330414Y-96300594D01*
X43330414Y-96300594D02*
X43520890Y-96348213D01*
X43520890Y-96348213D02*
X43901842Y-96348213D01*
X43901842Y-96348213D02*
X43997080Y-96300594D01*
X43997080Y-96300594D02*
X44044700Y-96252975D01*
X44044700Y-96252975D02*
X44092319Y-96157737D01*
X44092319Y-96157737D02*
X44092319Y-95967261D01*
X44092319Y-95967261D02*
X44044700Y-95872023D01*
X44044700Y-95872023D02*
X43997080Y-95824404D01*
X43997080Y-95824404D02*
X43901842Y-95776785D01*
X43901842Y-95776785D02*
X43663747Y-95776785D01*
X43663747Y-95776785D02*
X43568509Y-95824404D01*
X43568509Y-95824404D02*
X43520890Y-95872023D01*
X43520890Y-95872023D02*
X43473271Y-95967261D01*
X43473271Y-95967261D02*
X43473271Y-96157737D01*
X43473271Y-96157737D02*
X43520890Y-96252975D01*
X43520890Y-96252975D02*
X43568509Y-96300594D01*
X43568509Y-96300594D02*
X43663747Y-96348213D01*
X34159580Y-40266666D02*
X34207200Y-40314285D01*
X34207200Y-40314285D02*
X34254819Y-40457142D01*
X34254819Y-40457142D02*
X34254819Y-40552380D01*
X34254819Y-40552380D02*
X34207200Y-40695237D01*
X34207200Y-40695237D02*
X34111961Y-40790475D01*
X34111961Y-40790475D02*
X34016723Y-40838094D01*
X34016723Y-40838094D02*
X33826247Y-40885713D01*
X33826247Y-40885713D02*
X33683390Y-40885713D01*
X33683390Y-40885713D02*
X33492914Y-40838094D01*
X33492914Y-40838094D02*
X33397676Y-40790475D01*
X33397676Y-40790475D02*
X33302438Y-40695237D01*
X33302438Y-40695237D02*
X33254819Y-40552380D01*
X33254819Y-40552380D02*
X33254819Y-40457142D01*
X33254819Y-40457142D02*
X33302438Y-40314285D01*
X33302438Y-40314285D02*
X33350057Y-40266666D01*
X34254819Y-39314285D02*
X34254819Y-39885713D01*
X34254819Y-39599999D02*
X33254819Y-39599999D01*
X33254819Y-39599999D02*
X33397676Y-39695237D01*
X33397676Y-39695237D02*
X33492914Y-39790475D01*
X33492914Y-39790475D02*
X33540533Y-39885713D01*
X45754819Y-96766666D02*
X45278628Y-97099999D01*
X45754819Y-97338094D02*
X44754819Y-97338094D01*
X44754819Y-97338094D02*
X44754819Y-96957142D01*
X44754819Y-96957142D02*
X44802438Y-96861904D01*
X44802438Y-96861904D02*
X44850057Y-96814285D01*
X44850057Y-96814285D02*
X44945295Y-96766666D01*
X44945295Y-96766666D02*
X45088152Y-96766666D01*
X45088152Y-96766666D02*
X45183390Y-96814285D01*
X45183390Y-96814285D02*
X45231009Y-96861904D01*
X45231009Y-96861904D02*
X45278628Y-96957142D01*
X45278628Y-96957142D02*
X45278628Y-97338094D01*
X44754819Y-95909523D02*
X44754819Y-96099999D01*
X44754819Y-96099999D02*
X44802438Y-96195237D01*
X44802438Y-96195237D02*
X44850057Y-96242856D01*
X44850057Y-96242856D02*
X44992914Y-96338094D01*
X44992914Y-96338094D02*
X45183390Y-96385713D01*
X45183390Y-96385713D02*
X45564342Y-96385713D01*
X45564342Y-96385713D02*
X45659580Y-96338094D01*
X45659580Y-96338094D02*
X45707200Y-96290475D01*
X45707200Y-96290475D02*
X45754819Y-96195237D01*
X45754819Y-96195237D02*
X45754819Y-96004761D01*
X45754819Y-96004761D02*
X45707200Y-95909523D01*
X45707200Y-95909523D02*
X45659580Y-95861904D01*
X45659580Y-95861904D02*
X45564342Y-95814285D01*
X45564342Y-95814285D02*
X45326247Y-95814285D01*
X45326247Y-95814285D02*
X45231009Y-95861904D01*
X45231009Y-95861904D02*
X45183390Y-95909523D01*
X45183390Y-95909523D02*
X45135771Y-96004761D01*
X45135771Y-96004761D02*
X45135771Y-96195237D01*
X45135771Y-96195237D02*
X45183390Y-96290475D01*
X45183390Y-96290475D02*
X45231009Y-96338094D01*
X45231009Y-96338094D02*
X45326247Y-96385713D01*
X59059580Y-121966666D02*
X59107200Y-122014285D01*
X59107200Y-122014285D02*
X59154819Y-122157142D01*
X59154819Y-122157142D02*
X59154819Y-122252380D01*
X59154819Y-122252380D02*
X59107200Y-122395237D01*
X59107200Y-122395237D02*
X59011961Y-122490475D01*
X59011961Y-122490475D02*
X58916723Y-122538094D01*
X58916723Y-122538094D02*
X58726247Y-122585713D01*
X58726247Y-122585713D02*
X58583390Y-122585713D01*
X58583390Y-122585713D02*
X58392914Y-122538094D01*
X58392914Y-122538094D02*
X58297676Y-122490475D01*
X58297676Y-122490475D02*
X58202438Y-122395237D01*
X58202438Y-122395237D02*
X58154819Y-122252380D01*
X58154819Y-122252380D02*
X58154819Y-122157142D01*
X58154819Y-122157142D02*
X58202438Y-122014285D01*
X58202438Y-122014285D02*
X58250057Y-121966666D01*
X58154819Y-121633332D02*
X58154819Y-120966666D01*
X58154819Y-120966666D02*
X59154819Y-121395237D01*
X51754819Y-124776190D02*
X51754819Y-125347618D01*
X51754819Y-125061904D02*
X50754819Y-125061904D01*
X50754819Y-125061904D02*
X50897676Y-125157142D01*
X50897676Y-125157142D02*
X50992914Y-125252380D01*
X50992914Y-125252380D02*
X51040533Y-125347618D01*
X50754819Y-124157142D02*
X50754819Y-124061904D01*
X50754819Y-124061904D02*
X50802438Y-123966666D01*
X50802438Y-123966666D02*
X50850057Y-123919047D01*
X50850057Y-123919047D02*
X50945295Y-123871428D01*
X50945295Y-123871428D02*
X51135771Y-123823809D01*
X51135771Y-123823809D02*
X51373866Y-123823809D01*
X51373866Y-123823809D02*
X51564342Y-123871428D01*
X51564342Y-123871428D02*
X51659580Y-123919047D01*
X51659580Y-123919047D02*
X51707200Y-123966666D01*
X51707200Y-123966666D02*
X51754819Y-124061904D01*
X51754819Y-124061904D02*
X51754819Y-124157142D01*
X51754819Y-124157142D02*
X51707200Y-124252380D01*
X51707200Y-124252380D02*
X51659580Y-124299999D01*
X51659580Y-124299999D02*
X51564342Y-124347618D01*
X51564342Y-124347618D02*
X51373866Y-124395237D01*
X51373866Y-124395237D02*
X51135771Y-124395237D01*
X51135771Y-124395237D02*
X50945295Y-124347618D01*
X50945295Y-124347618D02*
X50850057Y-124299999D01*
X50850057Y-124299999D02*
X50802438Y-124252380D01*
X50802438Y-124252380D02*
X50754819Y-124157142D01*
X51088152Y-122966666D02*
X51754819Y-122966666D01*
X51088152Y-123395237D02*
X51611961Y-123395237D01*
X51611961Y-123395237D02*
X51707200Y-123347618D01*
X51707200Y-123347618D02*
X51754819Y-123252380D01*
X51754819Y-123252380D02*
X51754819Y-123109523D01*
X51754819Y-123109523D02*
X51707200Y-123014285D01*
X51707200Y-123014285D02*
X51659580Y-122966666D01*
X51231009Y-122157142D02*
X51231009Y-122490475D01*
X51754819Y-122490475D02*
X50754819Y-122490475D01*
X50754819Y-122490475D02*
X50754819Y-122014285D01*
X50707200Y-120919047D02*
X51992914Y-121776189D01*
X50850057Y-120633332D02*
X50802438Y-120585713D01*
X50802438Y-120585713D02*
X50754819Y-120490475D01*
X50754819Y-120490475D02*
X50754819Y-120252380D01*
X50754819Y-120252380D02*
X50802438Y-120157142D01*
X50802438Y-120157142D02*
X50850057Y-120109523D01*
X50850057Y-120109523D02*
X50945295Y-120061904D01*
X50945295Y-120061904D02*
X51040533Y-120061904D01*
X51040533Y-120061904D02*
X51183390Y-120109523D01*
X51183390Y-120109523D02*
X51754819Y-120680951D01*
X51754819Y-120680951D02*
X51754819Y-120061904D01*
X50754819Y-119157142D02*
X50754819Y-119633332D01*
X50754819Y-119633332D02*
X51231009Y-119680951D01*
X51231009Y-119680951D02*
X51183390Y-119633332D01*
X51183390Y-119633332D02*
X51135771Y-119538094D01*
X51135771Y-119538094D02*
X51135771Y-119299999D01*
X51135771Y-119299999D02*
X51183390Y-119204761D01*
X51183390Y-119204761D02*
X51231009Y-119157142D01*
X51231009Y-119157142D02*
X51326247Y-119109523D01*
X51326247Y-119109523D02*
X51564342Y-119109523D01*
X51564342Y-119109523D02*
X51659580Y-119157142D01*
X51659580Y-119157142D02*
X51707200Y-119204761D01*
X51707200Y-119204761D02*
X51754819Y-119299999D01*
X51754819Y-119299999D02*
X51754819Y-119538094D01*
X51754819Y-119538094D02*
X51707200Y-119633332D01*
X51707200Y-119633332D02*
X51659580Y-119680951D01*
X50754819Y-118823808D02*
X51754819Y-118490475D01*
X51754819Y-118490475D02*
X50754819Y-118157142D01*
X42333333Y-52984819D02*
X42000000Y-52508628D01*
X41761905Y-52984819D02*
X41761905Y-51984819D01*
X41761905Y-51984819D02*
X42142857Y-51984819D01*
X42142857Y-51984819D02*
X42238095Y-52032438D01*
X42238095Y-52032438D02*
X42285714Y-52080057D01*
X42285714Y-52080057D02*
X42333333Y-52175295D01*
X42333333Y-52175295D02*
X42333333Y-52318152D01*
X42333333Y-52318152D02*
X42285714Y-52413390D01*
X42285714Y-52413390D02*
X42238095Y-52461009D01*
X42238095Y-52461009D02*
X42142857Y-52508628D01*
X42142857Y-52508628D02*
X41761905Y-52508628D01*
X42809524Y-52984819D02*
X43000000Y-52984819D01*
X43000000Y-52984819D02*
X43095238Y-52937200D01*
X43095238Y-52937200D02*
X43142857Y-52889580D01*
X43142857Y-52889580D02*
X43238095Y-52746723D01*
X43238095Y-52746723D02*
X43285714Y-52556247D01*
X43285714Y-52556247D02*
X43285714Y-52175295D01*
X43285714Y-52175295D02*
X43238095Y-52080057D01*
X43238095Y-52080057D02*
X43190476Y-52032438D01*
X43190476Y-52032438D02*
X43095238Y-51984819D01*
X43095238Y-51984819D02*
X42904762Y-51984819D01*
X42904762Y-51984819D02*
X42809524Y-52032438D01*
X42809524Y-52032438D02*
X42761905Y-52080057D01*
X42761905Y-52080057D02*
X42714286Y-52175295D01*
X42714286Y-52175295D02*
X42714286Y-52413390D01*
X42714286Y-52413390D02*
X42761905Y-52508628D01*
X42761905Y-52508628D02*
X42809524Y-52556247D01*
X42809524Y-52556247D02*
X42904762Y-52603866D01*
X42904762Y-52603866D02*
X43095238Y-52603866D01*
X43095238Y-52603866D02*
X43190476Y-52556247D01*
X43190476Y-52556247D02*
X43238095Y-52508628D01*
X43238095Y-52508628D02*
X43285714Y-52413390D01*
X38238095Y-30674819D02*
X38238095Y-31484342D01*
X38238095Y-31484342D02*
X38285714Y-31579580D01*
X38285714Y-31579580D02*
X38333333Y-31627200D01*
X38333333Y-31627200D02*
X38428571Y-31674819D01*
X38428571Y-31674819D02*
X38619047Y-31674819D01*
X38619047Y-31674819D02*
X38714285Y-31627200D01*
X38714285Y-31627200D02*
X38761904Y-31579580D01*
X38761904Y-31579580D02*
X38809523Y-31484342D01*
X38809523Y-31484342D02*
X38809523Y-30674819D01*
X39809523Y-31674819D02*
X39238095Y-31674819D01*
X39523809Y-31674819D02*
X39523809Y-30674819D01*
X39523809Y-30674819D02*
X39428571Y-30817676D01*
X39428571Y-30817676D02*
X39333333Y-30912914D01*
X39333333Y-30912914D02*
X39238095Y-30960533D01*
X36880952Y-41234819D02*
X37452380Y-41234819D01*
X37166666Y-42234819D02*
X37166666Y-41234819D01*
X38261904Y-42234819D02*
X37785714Y-42234819D01*
X37785714Y-42234819D02*
X37785714Y-41234819D01*
X38785714Y-41234819D02*
X38880952Y-41234819D01*
X38880952Y-41234819D02*
X38976190Y-41282438D01*
X38976190Y-41282438D02*
X39023809Y-41330057D01*
X39023809Y-41330057D02*
X39071428Y-41425295D01*
X39071428Y-41425295D02*
X39119047Y-41615771D01*
X39119047Y-41615771D02*
X39119047Y-41853866D01*
X39119047Y-41853866D02*
X39071428Y-42044342D01*
X39071428Y-42044342D02*
X39023809Y-42139580D01*
X39023809Y-42139580D02*
X38976190Y-42187200D01*
X38976190Y-42187200D02*
X38880952Y-42234819D01*
X38880952Y-42234819D02*
X38785714Y-42234819D01*
X38785714Y-42234819D02*
X38690476Y-42187200D01*
X38690476Y-42187200D02*
X38642857Y-42139580D01*
X38642857Y-42139580D02*
X38595238Y-42044342D01*
X38595238Y-42044342D02*
X38547619Y-41853866D01*
X38547619Y-41853866D02*
X38547619Y-41615771D01*
X38547619Y-41615771D02*
X38595238Y-41425295D01*
X38595238Y-41425295D02*
X38642857Y-41330057D01*
X38642857Y-41330057D02*
X38690476Y-41282438D01*
X38690476Y-41282438D02*
X38785714Y-41234819D01*
X39452381Y-41234819D02*
X40119047Y-41234819D01*
X40119047Y-41234819D02*
X39690476Y-42234819D01*
X40928571Y-41568152D02*
X40928571Y-42234819D01*
X40690476Y-41187200D02*
X40452381Y-41901485D01*
X40452381Y-41901485D02*
X41071428Y-41901485D01*
X48954819Y-122560594D02*
X47954819Y-122560594D01*
X47954819Y-122560594D02*
X47954819Y-122322499D01*
X47954819Y-122322499D02*
X48002438Y-122179642D01*
X48002438Y-122179642D02*
X48097676Y-122084404D01*
X48097676Y-122084404D02*
X48192914Y-122036785D01*
X48192914Y-122036785D02*
X48383390Y-121989166D01*
X48383390Y-121989166D02*
X48526247Y-121989166D01*
X48526247Y-121989166D02*
X48716723Y-122036785D01*
X48716723Y-122036785D02*
X48811961Y-122084404D01*
X48811961Y-122084404D02*
X48907200Y-122179642D01*
X48907200Y-122179642D02*
X48954819Y-122322499D01*
X48954819Y-122322499D02*
X48954819Y-122560594D01*
X47954819Y-121655832D02*
X47954819Y-120989166D01*
X47954819Y-120989166D02*
X48954819Y-121417737D01*
X45820833Y-107654819D02*
X45487500Y-107178628D01*
X45249405Y-107654819D02*
X45249405Y-106654819D01*
X45249405Y-106654819D02*
X45630357Y-106654819D01*
X45630357Y-106654819D02*
X45725595Y-106702438D01*
X45725595Y-106702438D02*
X45773214Y-106750057D01*
X45773214Y-106750057D02*
X45820833Y-106845295D01*
X45820833Y-106845295D02*
X45820833Y-106988152D01*
X45820833Y-106988152D02*
X45773214Y-107083390D01*
X45773214Y-107083390D02*
X45725595Y-107131009D01*
X45725595Y-107131009D02*
X45630357Y-107178628D01*
X45630357Y-107178628D02*
X45249405Y-107178628D01*
X46154167Y-106654819D02*
X46773214Y-106654819D01*
X46773214Y-106654819D02*
X46439881Y-107035771D01*
X46439881Y-107035771D02*
X46582738Y-107035771D01*
X46582738Y-107035771D02*
X46677976Y-107083390D01*
X46677976Y-107083390D02*
X46725595Y-107131009D01*
X46725595Y-107131009D02*
X46773214Y-107226247D01*
X46773214Y-107226247D02*
X46773214Y-107464342D01*
X46773214Y-107464342D02*
X46725595Y-107559580D01*
X46725595Y-107559580D02*
X46677976Y-107607200D01*
X46677976Y-107607200D02*
X46582738Y-107654819D01*
X46582738Y-107654819D02*
X46297024Y-107654819D01*
X46297024Y-107654819D02*
X46201786Y-107607200D01*
X46201786Y-107607200D02*
X46154167Y-107559580D01*
X38238095Y-58174819D02*
X38238095Y-58984342D01*
X38238095Y-58984342D02*
X38285714Y-59079580D01*
X38285714Y-59079580D02*
X38333333Y-59127200D01*
X38333333Y-59127200D02*
X38428571Y-59174819D01*
X38428571Y-59174819D02*
X38619047Y-59174819D01*
X38619047Y-59174819D02*
X38714285Y-59127200D01*
X38714285Y-59127200D02*
X38761904Y-59079580D01*
X38761904Y-59079580D02*
X38809523Y-58984342D01*
X38809523Y-58984342D02*
X38809523Y-58174819D01*
X39238095Y-58270057D02*
X39285714Y-58222438D01*
X39285714Y-58222438D02*
X39380952Y-58174819D01*
X39380952Y-58174819D02*
X39619047Y-58174819D01*
X39619047Y-58174819D02*
X39714285Y-58222438D01*
X39714285Y-58222438D02*
X39761904Y-58270057D01*
X39761904Y-58270057D02*
X39809523Y-58365295D01*
X39809523Y-58365295D02*
X39809523Y-58460533D01*
X39809523Y-58460533D02*
X39761904Y-58603390D01*
X39761904Y-58603390D02*
X39190476Y-59174819D01*
X39190476Y-59174819D02*
X39809523Y-59174819D01*
X36880952Y-68734819D02*
X37452380Y-68734819D01*
X37166666Y-69734819D02*
X37166666Y-68734819D01*
X38261904Y-69734819D02*
X37785714Y-69734819D01*
X37785714Y-69734819D02*
X37785714Y-68734819D01*
X38785714Y-68734819D02*
X38880952Y-68734819D01*
X38880952Y-68734819D02*
X38976190Y-68782438D01*
X38976190Y-68782438D02*
X39023809Y-68830057D01*
X39023809Y-68830057D02*
X39071428Y-68925295D01*
X39071428Y-68925295D02*
X39119047Y-69115771D01*
X39119047Y-69115771D02*
X39119047Y-69353866D01*
X39119047Y-69353866D02*
X39071428Y-69544342D01*
X39071428Y-69544342D02*
X39023809Y-69639580D01*
X39023809Y-69639580D02*
X38976190Y-69687200D01*
X38976190Y-69687200D02*
X38880952Y-69734819D01*
X38880952Y-69734819D02*
X38785714Y-69734819D01*
X38785714Y-69734819D02*
X38690476Y-69687200D01*
X38690476Y-69687200D02*
X38642857Y-69639580D01*
X38642857Y-69639580D02*
X38595238Y-69544342D01*
X38595238Y-69544342D02*
X38547619Y-69353866D01*
X38547619Y-69353866D02*
X38547619Y-69115771D01*
X38547619Y-69115771D02*
X38595238Y-68925295D01*
X38595238Y-68925295D02*
X38642857Y-68830057D01*
X38642857Y-68830057D02*
X38690476Y-68782438D01*
X38690476Y-68782438D02*
X38785714Y-68734819D01*
X39452381Y-68734819D02*
X40119047Y-68734819D01*
X40119047Y-68734819D02*
X39690476Y-69734819D01*
X40928571Y-69068152D02*
X40928571Y-69734819D01*
X40690476Y-68687200D02*
X40452381Y-69401485D01*
X40452381Y-69401485D02*
X41071428Y-69401485D01*
X48857142Y-111089580D02*
X48809523Y-111137200D01*
X48809523Y-111137200D02*
X48666666Y-111184819D01*
X48666666Y-111184819D02*
X48571428Y-111184819D01*
X48571428Y-111184819D02*
X48428571Y-111137200D01*
X48428571Y-111137200D02*
X48333333Y-111041961D01*
X48333333Y-111041961D02*
X48285714Y-110946723D01*
X48285714Y-110946723D02*
X48238095Y-110756247D01*
X48238095Y-110756247D02*
X48238095Y-110613390D01*
X48238095Y-110613390D02*
X48285714Y-110422914D01*
X48285714Y-110422914D02*
X48333333Y-110327676D01*
X48333333Y-110327676D02*
X48428571Y-110232438D01*
X48428571Y-110232438D02*
X48571428Y-110184819D01*
X48571428Y-110184819D02*
X48666666Y-110184819D01*
X48666666Y-110184819D02*
X48809523Y-110232438D01*
X48809523Y-110232438D02*
X48857142Y-110280057D01*
X49809523Y-111184819D02*
X49238095Y-111184819D01*
X49523809Y-111184819D02*
X49523809Y-110184819D01*
X49523809Y-110184819D02*
X49428571Y-110327676D01*
X49428571Y-110327676D02*
X49333333Y-110422914D01*
X49333333Y-110422914D02*
X49238095Y-110470533D01*
X50761904Y-111184819D02*
X50190476Y-111184819D01*
X50476190Y-111184819D02*
X50476190Y-110184819D01*
X50476190Y-110184819D02*
X50380952Y-110327676D01*
X50380952Y-110327676D02*
X50285714Y-110422914D01*
X50285714Y-110422914D02*
X50190476Y-110470533D01*
X41844642Y-78584819D02*
X41511309Y-78108628D01*
X41273214Y-78584819D02*
X41273214Y-77584819D01*
X41273214Y-77584819D02*
X41654166Y-77584819D01*
X41654166Y-77584819D02*
X41749404Y-77632438D01*
X41749404Y-77632438D02*
X41797023Y-77680057D01*
X41797023Y-77680057D02*
X41844642Y-77775295D01*
X41844642Y-77775295D02*
X41844642Y-77918152D01*
X41844642Y-77918152D02*
X41797023Y-78013390D01*
X41797023Y-78013390D02*
X41749404Y-78061009D01*
X41749404Y-78061009D02*
X41654166Y-78108628D01*
X41654166Y-78108628D02*
X41273214Y-78108628D01*
X42797023Y-78584819D02*
X42225595Y-78584819D01*
X42511309Y-78584819D02*
X42511309Y-77584819D01*
X42511309Y-77584819D02*
X42416071Y-77727676D01*
X42416071Y-77727676D02*
X42320833Y-77822914D01*
X42320833Y-77822914D02*
X42225595Y-77870533D01*
X43416071Y-77584819D02*
X43511309Y-77584819D01*
X43511309Y-77584819D02*
X43606547Y-77632438D01*
X43606547Y-77632438D02*
X43654166Y-77680057D01*
X43654166Y-77680057D02*
X43701785Y-77775295D01*
X43701785Y-77775295D02*
X43749404Y-77965771D01*
X43749404Y-77965771D02*
X43749404Y-78203866D01*
X43749404Y-78203866D02*
X43701785Y-78394342D01*
X43701785Y-78394342D02*
X43654166Y-78489580D01*
X43654166Y-78489580D02*
X43606547Y-78537200D01*
X43606547Y-78537200D02*
X43511309Y-78584819D01*
X43511309Y-78584819D02*
X43416071Y-78584819D01*
X43416071Y-78584819D02*
X43320833Y-78537200D01*
X43320833Y-78537200D02*
X43273214Y-78489580D01*
X43273214Y-78489580D02*
X43225595Y-78394342D01*
X43225595Y-78394342D02*
X43177976Y-78203866D01*
X43177976Y-78203866D02*
X43177976Y-77965771D01*
X43177976Y-77965771D02*
X43225595Y-77775295D01*
X43225595Y-77775295D02*
X43273214Y-77680057D01*
X43273214Y-77680057D02*
X43320833Y-77632438D01*
X43320833Y-77632438D02*
X43416071Y-77584819D01*
X48894642Y-81989580D02*
X48847023Y-82037200D01*
X48847023Y-82037200D02*
X48704166Y-82084819D01*
X48704166Y-82084819D02*
X48608928Y-82084819D01*
X48608928Y-82084819D02*
X48466071Y-82037200D01*
X48466071Y-82037200D02*
X48370833Y-81941961D01*
X48370833Y-81941961D02*
X48323214Y-81846723D01*
X48323214Y-81846723D02*
X48275595Y-81656247D01*
X48275595Y-81656247D02*
X48275595Y-81513390D01*
X48275595Y-81513390D02*
X48323214Y-81322914D01*
X48323214Y-81322914D02*
X48370833Y-81227676D01*
X48370833Y-81227676D02*
X48466071Y-81132438D01*
X48466071Y-81132438D02*
X48608928Y-81084819D01*
X48608928Y-81084819D02*
X48704166Y-81084819D01*
X48704166Y-81084819D02*
X48847023Y-81132438D01*
X48847023Y-81132438D02*
X48894642Y-81180057D01*
X49847023Y-82084819D02*
X49275595Y-82084819D01*
X49561309Y-82084819D02*
X49561309Y-81084819D01*
X49561309Y-81084819D02*
X49466071Y-81227676D01*
X49466071Y-81227676D02*
X49370833Y-81322914D01*
X49370833Y-81322914D02*
X49275595Y-81370533D01*
X50466071Y-81084819D02*
X50561309Y-81084819D01*
X50561309Y-81084819D02*
X50656547Y-81132438D01*
X50656547Y-81132438D02*
X50704166Y-81180057D01*
X50704166Y-81180057D02*
X50751785Y-81275295D01*
X50751785Y-81275295D02*
X50799404Y-81465771D01*
X50799404Y-81465771D02*
X50799404Y-81703866D01*
X50799404Y-81703866D02*
X50751785Y-81894342D01*
X50751785Y-81894342D02*
X50704166Y-81989580D01*
X50704166Y-81989580D02*
X50656547Y-82037200D01*
X50656547Y-82037200D02*
X50561309Y-82084819D01*
X50561309Y-82084819D02*
X50466071Y-82084819D01*
X50466071Y-82084819D02*
X50370833Y-82037200D01*
X50370833Y-82037200D02*
X50323214Y-81989580D01*
X50323214Y-81989580D02*
X50275595Y-81894342D01*
X50275595Y-81894342D02*
X50227976Y-81703866D01*
X50227976Y-81703866D02*
X50227976Y-81465771D01*
X50227976Y-81465771D02*
X50275595Y-81275295D01*
X50275595Y-81275295D02*
X50323214Y-81180057D01*
X50323214Y-81180057D02*
X50370833Y-81132438D01*
X50370833Y-81132438D02*
X50466071Y-81084819D01*
X34559580Y-67866666D02*
X34607200Y-67914285D01*
X34607200Y-67914285D02*
X34654819Y-68057142D01*
X34654819Y-68057142D02*
X34654819Y-68152380D01*
X34654819Y-68152380D02*
X34607200Y-68295237D01*
X34607200Y-68295237D02*
X34511961Y-68390475D01*
X34511961Y-68390475D02*
X34416723Y-68438094D01*
X34416723Y-68438094D02*
X34226247Y-68485713D01*
X34226247Y-68485713D02*
X34083390Y-68485713D01*
X34083390Y-68485713D02*
X33892914Y-68438094D01*
X33892914Y-68438094D02*
X33797676Y-68390475D01*
X33797676Y-68390475D02*
X33702438Y-68295237D01*
X33702438Y-68295237D02*
X33654819Y-68152380D01*
X33654819Y-68152380D02*
X33654819Y-68057142D01*
X33654819Y-68057142D02*
X33702438Y-67914285D01*
X33702438Y-67914285D02*
X33750057Y-67866666D01*
X33654819Y-67533332D02*
X33654819Y-66914285D01*
X33654819Y-66914285D02*
X34035771Y-67247618D01*
X34035771Y-67247618D02*
X34035771Y-67104761D01*
X34035771Y-67104761D02*
X34083390Y-67009523D01*
X34083390Y-67009523D02*
X34131009Y-66961904D01*
X34131009Y-66961904D02*
X34226247Y-66914285D01*
X34226247Y-66914285D02*
X34464342Y-66914285D01*
X34464342Y-66914285D02*
X34559580Y-66961904D01*
X34559580Y-66961904D02*
X34607200Y-67009523D01*
X34607200Y-67009523D02*
X34654819Y-67104761D01*
X34654819Y-67104761D02*
X34654819Y-67390475D01*
X34654819Y-67390475D02*
X34607200Y-67485713D01*
X34607200Y-67485713D02*
X34559580Y-67533332D01*
X41857142Y-107654819D02*
X41523809Y-107178628D01*
X41285714Y-107654819D02*
X41285714Y-106654819D01*
X41285714Y-106654819D02*
X41666666Y-106654819D01*
X41666666Y-106654819D02*
X41761904Y-106702438D01*
X41761904Y-106702438D02*
X41809523Y-106750057D01*
X41809523Y-106750057D02*
X41857142Y-106845295D01*
X41857142Y-106845295D02*
X41857142Y-106988152D01*
X41857142Y-106988152D02*
X41809523Y-107083390D01*
X41809523Y-107083390D02*
X41761904Y-107131009D01*
X41761904Y-107131009D02*
X41666666Y-107178628D01*
X41666666Y-107178628D02*
X41285714Y-107178628D01*
X42809523Y-107654819D02*
X42238095Y-107654819D01*
X42523809Y-107654819D02*
X42523809Y-106654819D01*
X42523809Y-106654819D02*
X42428571Y-106797676D01*
X42428571Y-106797676D02*
X42333333Y-106892914D01*
X42333333Y-106892914D02*
X42238095Y-106940533D01*
X43142857Y-106654819D02*
X43761904Y-106654819D01*
X43761904Y-106654819D02*
X43428571Y-107035771D01*
X43428571Y-107035771D02*
X43571428Y-107035771D01*
X43571428Y-107035771D02*
X43666666Y-107083390D01*
X43666666Y-107083390D02*
X43714285Y-107131009D01*
X43714285Y-107131009D02*
X43761904Y-107226247D01*
X43761904Y-107226247D02*
X43761904Y-107464342D01*
X43761904Y-107464342D02*
X43714285Y-107559580D01*
X43714285Y-107559580D02*
X43666666Y-107607200D01*
X43666666Y-107607200D02*
X43571428Y-107654819D01*
X43571428Y-107654819D02*
X43285714Y-107654819D01*
X43285714Y-107654819D02*
X43190476Y-107607200D01*
X43190476Y-107607200D02*
X43142857Y-107559580D01*
X48954819Y-132160594D02*
X47954819Y-132160594D01*
X47954819Y-132160594D02*
X47954819Y-131922499D01*
X47954819Y-131922499D02*
X48002438Y-131779642D01*
X48002438Y-131779642D02*
X48097676Y-131684404D01*
X48097676Y-131684404D02*
X48192914Y-131636785D01*
X48192914Y-131636785D02*
X48383390Y-131589166D01*
X48383390Y-131589166D02*
X48526247Y-131589166D01*
X48526247Y-131589166D02*
X48716723Y-131636785D01*
X48716723Y-131636785D02*
X48811961Y-131684404D01*
X48811961Y-131684404D02*
X48907200Y-131779642D01*
X48907200Y-131779642D02*
X48954819Y-131922499D01*
X48954819Y-131922499D02*
X48954819Y-132160594D01*
X48383390Y-131017737D02*
X48335771Y-131112975D01*
X48335771Y-131112975D02*
X48288152Y-131160594D01*
X48288152Y-131160594D02*
X48192914Y-131208213D01*
X48192914Y-131208213D02*
X48145295Y-131208213D01*
X48145295Y-131208213D02*
X48050057Y-131160594D01*
X48050057Y-131160594D02*
X48002438Y-131112975D01*
X48002438Y-131112975D02*
X47954819Y-131017737D01*
X47954819Y-131017737D02*
X47954819Y-130827261D01*
X47954819Y-130827261D02*
X48002438Y-130732023D01*
X48002438Y-130732023D02*
X48050057Y-130684404D01*
X48050057Y-130684404D02*
X48145295Y-130636785D01*
X48145295Y-130636785D02*
X48192914Y-130636785D01*
X48192914Y-130636785D02*
X48288152Y-130684404D01*
X48288152Y-130684404D02*
X48335771Y-130732023D01*
X48335771Y-130732023D02*
X48383390Y-130827261D01*
X48383390Y-130827261D02*
X48383390Y-131017737D01*
X48383390Y-131017737D02*
X48431009Y-131112975D01*
X48431009Y-131112975D02*
X48478628Y-131160594D01*
X48478628Y-131160594D02*
X48573866Y-131208213D01*
X48573866Y-131208213D02*
X48764342Y-131208213D01*
X48764342Y-131208213D02*
X48859580Y-131160594D01*
X48859580Y-131160594D02*
X48907200Y-131112975D01*
X48907200Y-131112975D02*
X48954819Y-131017737D01*
X48954819Y-131017737D02*
X48954819Y-130827261D01*
X48954819Y-130827261D02*
X48907200Y-130732023D01*
X48907200Y-130732023D02*
X48859580Y-130684404D01*
X48859580Y-130684404D02*
X48764342Y-130636785D01*
X48764342Y-130636785D02*
X48573866Y-130636785D01*
X48573866Y-130636785D02*
X48478628Y-130684404D01*
X48478628Y-130684404D02*
X48431009Y-130732023D01*
X48431009Y-130732023D02*
X48383390Y-130827261D01*
X34497080Y-96729166D02*
X34544700Y-96776785D01*
X34544700Y-96776785D02*
X34592319Y-96919642D01*
X34592319Y-96919642D02*
X34592319Y-97014880D01*
X34592319Y-97014880D02*
X34544700Y-97157737D01*
X34544700Y-97157737D02*
X34449461Y-97252975D01*
X34449461Y-97252975D02*
X34354223Y-97300594D01*
X34354223Y-97300594D02*
X34163747Y-97348213D01*
X34163747Y-97348213D02*
X34020890Y-97348213D01*
X34020890Y-97348213D02*
X33830414Y-97300594D01*
X33830414Y-97300594D02*
X33735176Y-97252975D01*
X33735176Y-97252975D02*
X33639938Y-97157737D01*
X33639938Y-97157737D02*
X33592319Y-97014880D01*
X33592319Y-97014880D02*
X33592319Y-96919642D01*
X33592319Y-96919642D02*
X33639938Y-96776785D01*
X33639938Y-96776785D02*
X33687557Y-96729166D01*
X33592319Y-95824404D02*
X33592319Y-96300594D01*
X33592319Y-96300594D02*
X34068509Y-96348213D01*
X34068509Y-96348213D02*
X34020890Y-96300594D01*
X34020890Y-96300594D02*
X33973271Y-96205356D01*
X33973271Y-96205356D02*
X33973271Y-95967261D01*
X33973271Y-95967261D02*
X34020890Y-95872023D01*
X34020890Y-95872023D02*
X34068509Y-95824404D01*
X34068509Y-95824404D02*
X34163747Y-95776785D01*
X34163747Y-95776785D02*
X34401842Y-95776785D01*
X34401842Y-95776785D02*
X34497080Y-95824404D01*
X34497080Y-95824404D02*
X34544700Y-95872023D01*
X34544700Y-95872023D02*
X34592319Y-95967261D01*
X34592319Y-95967261D02*
X34592319Y-96205356D01*
X34592319Y-96205356D02*
X34544700Y-96300594D01*
X34544700Y-96300594D02*
X34497080Y-96348213D01*
X45954819Y-67616666D02*
X45478628Y-67949999D01*
X45954819Y-68188094D02*
X44954819Y-68188094D01*
X44954819Y-68188094D02*
X44954819Y-67807142D01*
X44954819Y-67807142D02*
X45002438Y-67711904D01*
X45002438Y-67711904D02*
X45050057Y-67664285D01*
X45050057Y-67664285D02*
X45145295Y-67616666D01*
X45145295Y-67616666D02*
X45288152Y-67616666D01*
X45288152Y-67616666D02*
X45383390Y-67664285D01*
X45383390Y-67664285D02*
X45431009Y-67711904D01*
X45431009Y-67711904D02*
X45478628Y-67807142D01*
X45478628Y-67807142D02*
X45478628Y-68188094D01*
X44954819Y-66711904D02*
X44954819Y-67188094D01*
X44954819Y-67188094D02*
X45431009Y-67235713D01*
X45431009Y-67235713D02*
X45383390Y-67188094D01*
X45383390Y-67188094D02*
X45335771Y-67092856D01*
X45335771Y-67092856D02*
X45335771Y-66854761D01*
X45335771Y-66854761D02*
X45383390Y-66759523D01*
X45383390Y-66759523D02*
X45431009Y-66711904D01*
X45431009Y-66711904D02*
X45526247Y-66664285D01*
X45526247Y-66664285D02*
X45764342Y-66664285D01*
X45764342Y-66664285D02*
X45859580Y-66711904D01*
X45859580Y-66711904D02*
X45907200Y-66759523D01*
X45907200Y-66759523D02*
X45954819Y-66854761D01*
X45954819Y-66854761D02*
X45954819Y-67092856D01*
X45954819Y-67092856D02*
X45907200Y-67188094D01*
X45907200Y-67188094D02*
X45859580Y-67235713D01*
X41844642Y-111184819D02*
X41511309Y-110708628D01*
X41273214Y-111184819D02*
X41273214Y-110184819D01*
X41273214Y-110184819D02*
X41654166Y-110184819D01*
X41654166Y-110184819D02*
X41749404Y-110232438D01*
X41749404Y-110232438D02*
X41797023Y-110280057D01*
X41797023Y-110280057D02*
X41844642Y-110375295D01*
X41844642Y-110375295D02*
X41844642Y-110518152D01*
X41844642Y-110518152D02*
X41797023Y-110613390D01*
X41797023Y-110613390D02*
X41749404Y-110661009D01*
X41749404Y-110661009D02*
X41654166Y-110708628D01*
X41654166Y-110708628D02*
X41273214Y-110708628D01*
X42797023Y-111184819D02*
X42225595Y-111184819D01*
X42511309Y-111184819D02*
X42511309Y-110184819D01*
X42511309Y-110184819D02*
X42416071Y-110327676D01*
X42416071Y-110327676D02*
X42320833Y-110422914D01*
X42320833Y-110422914D02*
X42225595Y-110470533D01*
X43701785Y-110184819D02*
X43225595Y-110184819D01*
X43225595Y-110184819D02*
X43177976Y-110661009D01*
X43177976Y-110661009D02*
X43225595Y-110613390D01*
X43225595Y-110613390D02*
X43320833Y-110565771D01*
X43320833Y-110565771D02*
X43558928Y-110565771D01*
X43558928Y-110565771D02*
X43654166Y-110613390D01*
X43654166Y-110613390D02*
X43701785Y-110661009D01*
X43701785Y-110661009D02*
X43749404Y-110756247D01*
X43749404Y-110756247D02*
X43749404Y-110994342D01*
X43749404Y-110994342D02*
X43701785Y-111089580D01*
X43701785Y-111089580D02*
X43654166Y-111137200D01*
X43654166Y-111137200D02*
X43558928Y-111184819D01*
X43558928Y-111184819D02*
X43320833Y-111184819D01*
X43320833Y-111184819D02*
X43225595Y-111137200D01*
X43225595Y-111137200D02*
X43177976Y-111089580D01*
X49057142Y-50054819D02*
X48723809Y-49578628D01*
X48485714Y-50054819D02*
X48485714Y-49054819D01*
X48485714Y-49054819D02*
X48866666Y-49054819D01*
X48866666Y-49054819D02*
X48961904Y-49102438D01*
X48961904Y-49102438D02*
X49009523Y-49150057D01*
X49009523Y-49150057D02*
X49057142Y-49245295D01*
X49057142Y-49245295D02*
X49057142Y-49388152D01*
X49057142Y-49388152D02*
X49009523Y-49483390D01*
X49009523Y-49483390D02*
X48961904Y-49531009D01*
X48961904Y-49531009D02*
X48866666Y-49578628D01*
X48866666Y-49578628D02*
X48485714Y-49578628D01*
X50009523Y-50054819D02*
X49438095Y-50054819D01*
X49723809Y-50054819D02*
X49723809Y-49054819D01*
X49723809Y-49054819D02*
X49628571Y-49197676D01*
X49628571Y-49197676D02*
X49533333Y-49292914D01*
X49533333Y-49292914D02*
X49438095Y-49340533D01*
X50866666Y-49054819D02*
X50676190Y-49054819D01*
X50676190Y-49054819D02*
X50580952Y-49102438D01*
X50580952Y-49102438D02*
X50533333Y-49150057D01*
X50533333Y-49150057D02*
X50438095Y-49292914D01*
X50438095Y-49292914D02*
X50390476Y-49483390D01*
X50390476Y-49483390D02*
X50390476Y-49864342D01*
X50390476Y-49864342D02*
X50438095Y-49959580D01*
X50438095Y-49959580D02*
X50485714Y-50007200D01*
X50485714Y-50007200D02*
X50580952Y-50054819D01*
X50580952Y-50054819D02*
X50771428Y-50054819D01*
X50771428Y-50054819D02*
X50866666Y-50007200D01*
X50866666Y-50007200D02*
X50914285Y-49959580D01*
X50914285Y-49959580D02*
X50961904Y-49864342D01*
X50961904Y-49864342D02*
X50961904Y-49626247D01*
X50961904Y-49626247D02*
X50914285Y-49531009D01*
X50914285Y-49531009D02*
X50866666Y-49483390D01*
X50866666Y-49483390D02*
X50771428Y-49435771D01*
X50771428Y-49435771D02*
X50580952Y-49435771D01*
X50580952Y-49435771D02*
X50485714Y-49483390D01*
X50485714Y-49483390D02*
X50438095Y-49531009D01*
X50438095Y-49531009D02*
X50390476Y-49626247D01*
X49470833Y-52889580D02*
X49423214Y-52937200D01*
X49423214Y-52937200D02*
X49280357Y-52984819D01*
X49280357Y-52984819D02*
X49185119Y-52984819D01*
X49185119Y-52984819D02*
X49042262Y-52937200D01*
X49042262Y-52937200D02*
X48947024Y-52841961D01*
X48947024Y-52841961D02*
X48899405Y-52746723D01*
X48899405Y-52746723D02*
X48851786Y-52556247D01*
X48851786Y-52556247D02*
X48851786Y-52413390D01*
X48851786Y-52413390D02*
X48899405Y-52222914D01*
X48899405Y-52222914D02*
X48947024Y-52127676D01*
X48947024Y-52127676D02*
X49042262Y-52032438D01*
X49042262Y-52032438D02*
X49185119Y-51984819D01*
X49185119Y-51984819D02*
X49280357Y-51984819D01*
X49280357Y-51984819D02*
X49423214Y-52032438D01*
X49423214Y-52032438D02*
X49470833Y-52080057D01*
X49947024Y-52984819D02*
X50137500Y-52984819D01*
X50137500Y-52984819D02*
X50232738Y-52937200D01*
X50232738Y-52937200D02*
X50280357Y-52889580D01*
X50280357Y-52889580D02*
X50375595Y-52746723D01*
X50375595Y-52746723D02*
X50423214Y-52556247D01*
X50423214Y-52556247D02*
X50423214Y-52175295D01*
X50423214Y-52175295D02*
X50375595Y-52080057D01*
X50375595Y-52080057D02*
X50327976Y-52032438D01*
X50327976Y-52032438D02*
X50232738Y-51984819D01*
X50232738Y-51984819D02*
X50042262Y-51984819D01*
X50042262Y-51984819D02*
X49947024Y-52032438D01*
X49947024Y-52032438D02*
X49899405Y-52080057D01*
X49899405Y-52080057D02*
X49851786Y-52175295D01*
X49851786Y-52175295D02*
X49851786Y-52413390D01*
X49851786Y-52413390D02*
X49899405Y-52508628D01*
X49899405Y-52508628D02*
X49947024Y-52556247D01*
X49947024Y-52556247D02*
X50042262Y-52603866D01*
X50042262Y-52603866D02*
X50232738Y-52603866D01*
X50232738Y-52603866D02*
X50327976Y-52556247D01*
X50327976Y-52556247D02*
X50375595Y-52508628D01*
X50375595Y-52508628D02*
X50423214Y-52413390D01*
X41744642Y-82084819D02*
X41411309Y-81608628D01*
X41173214Y-82084819D02*
X41173214Y-81084819D01*
X41173214Y-81084819D02*
X41554166Y-81084819D01*
X41554166Y-81084819D02*
X41649404Y-81132438D01*
X41649404Y-81132438D02*
X41697023Y-81180057D01*
X41697023Y-81180057D02*
X41744642Y-81275295D01*
X41744642Y-81275295D02*
X41744642Y-81418152D01*
X41744642Y-81418152D02*
X41697023Y-81513390D01*
X41697023Y-81513390D02*
X41649404Y-81561009D01*
X41649404Y-81561009D02*
X41554166Y-81608628D01*
X41554166Y-81608628D02*
X41173214Y-81608628D01*
X42697023Y-82084819D02*
X42125595Y-82084819D01*
X42411309Y-82084819D02*
X42411309Y-81084819D01*
X42411309Y-81084819D02*
X42316071Y-81227676D01*
X42316071Y-81227676D02*
X42220833Y-81322914D01*
X42220833Y-81322914D02*
X42125595Y-81370533D01*
X43077976Y-81180057D02*
X43125595Y-81132438D01*
X43125595Y-81132438D02*
X43220833Y-81084819D01*
X43220833Y-81084819D02*
X43458928Y-81084819D01*
X43458928Y-81084819D02*
X43554166Y-81132438D01*
X43554166Y-81132438D02*
X43601785Y-81180057D01*
X43601785Y-81180057D02*
X43649404Y-81275295D01*
X43649404Y-81275295D02*
X43649404Y-81370533D01*
X43649404Y-81370533D02*
X43601785Y-81513390D01*
X43601785Y-81513390D02*
X43030357Y-82084819D01*
X43030357Y-82084819D02*
X43649404Y-82084819D01*
X46054819Y-40116666D02*
X45578628Y-40449999D01*
X46054819Y-40688094D02*
X45054819Y-40688094D01*
X45054819Y-40688094D02*
X45054819Y-40307142D01*
X45054819Y-40307142D02*
X45102438Y-40211904D01*
X45102438Y-40211904D02*
X45150057Y-40164285D01*
X45150057Y-40164285D02*
X45245295Y-40116666D01*
X45245295Y-40116666D02*
X45388152Y-40116666D01*
X45388152Y-40116666D02*
X45483390Y-40164285D01*
X45483390Y-40164285D02*
X45531009Y-40211904D01*
X45531009Y-40211904D02*
X45578628Y-40307142D01*
X45578628Y-40307142D02*
X45578628Y-40688094D01*
X45388152Y-39259523D02*
X46054819Y-39259523D01*
X45007200Y-39497618D02*
X45721485Y-39735713D01*
X45721485Y-39735713D02*
X45721485Y-39116666D01*
X44259580Y-40329166D02*
X44307200Y-40376785D01*
X44307200Y-40376785D02*
X44354819Y-40519642D01*
X44354819Y-40519642D02*
X44354819Y-40614880D01*
X44354819Y-40614880D02*
X44307200Y-40757737D01*
X44307200Y-40757737D02*
X44211961Y-40852975D01*
X44211961Y-40852975D02*
X44116723Y-40900594D01*
X44116723Y-40900594D02*
X43926247Y-40948213D01*
X43926247Y-40948213D02*
X43783390Y-40948213D01*
X43783390Y-40948213D02*
X43592914Y-40900594D01*
X43592914Y-40900594D02*
X43497676Y-40852975D01*
X43497676Y-40852975D02*
X43402438Y-40757737D01*
X43402438Y-40757737D02*
X43354819Y-40614880D01*
X43354819Y-40614880D02*
X43354819Y-40519642D01*
X43354819Y-40519642D02*
X43402438Y-40376785D01*
X43402438Y-40376785D02*
X43450057Y-40329166D01*
X43450057Y-39948213D02*
X43402438Y-39900594D01*
X43402438Y-39900594D02*
X43354819Y-39805356D01*
X43354819Y-39805356D02*
X43354819Y-39567261D01*
X43354819Y-39567261D02*
X43402438Y-39472023D01*
X43402438Y-39472023D02*
X43450057Y-39424404D01*
X43450057Y-39424404D02*
X43545295Y-39376785D01*
X43545295Y-39376785D02*
X43640533Y-39376785D01*
X43640533Y-39376785D02*
X43783390Y-39424404D01*
X43783390Y-39424404D02*
X44354819Y-39995832D01*
X44354819Y-39995832D02*
X44354819Y-39376785D01*
X45444642Y-111184819D02*
X45111309Y-110708628D01*
X44873214Y-111184819D02*
X44873214Y-110184819D01*
X44873214Y-110184819D02*
X45254166Y-110184819D01*
X45254166Y-110184819D02*
X45349404Y-110232438D01*
X45349404Y-110232438D02*
X45397023Y-110280057D01*
X45397023Y-110280057D02*
X45444642Y-110375295D01*
X45444642Y-110375295D02*
X45444642Y-110518152D01*
X45444642Y-110518152D02*
X45397023Y-110613390D01*
X45397023Y-110613390D02*
X45349404Y-110661009D01*
X45349404Y-110661009D02*
X45254166Y-110708628D01*
X45254166Y-110708628D02*
X44873214Y-110708628D01*
X46397023Y-111184819D02*
X45825595Y-111184819D01*
X46111309Y-111184819D02*
X46111309Y-110184819D01*
X46111309Y-110184819D02*
X46016071Y-110327676D01*
X46016071Y-110327676D02*
X45920833Y-110422914D01*
X45920833Y-110422914D02*
X45825595Y-110470533D01*
X47254166Y-110518152D02*
X47254166Y-111184819D01*
X47016071Y-110137200D02*
X46777976Y-110851485D01*
X46777976Y-110851485D02*
X47397023Y-110851485D01*
X48844642Y-107554819D02*
X48511309Y-107078628D01*
X48273214Y-107554819D02*
X48273214Y-106554819D01*
X48273214Y-106554819D02*
X48654166Y-106554819D01*
X48654166Y-106554819D02*
X48749404Y-106602438D01*
X48749404Y-106602438D02*
X48797023Y-106650057D01*
X48797023Y-106650057D02*
X48844642Y-106745295D01*
X48844642Y-106745295D02*
X48844642Y-106888152D01*
X48844642Y-106888152D02*
X48797023Y-106983390D01*
X48797023Y-106983390D02*
X48749404Y-107031009D01*
X48749404Y-107031009D02*
X48654166Y-107078628D01*
X48654166Y-107078628D02*
X48273214Y-107078628D01*
X49797023Y-107554819D02*
X49225595Y-107554819D01*
X49511309Y-107554819D02*
X49511309Y-106554819D01*
X49511309Y-106554819D02*
X49416071Y-106697676D01*
X49416071Y-106697676D02*
X49320833Y-106792914D01*
X49320833Y-106792914D02*
X49225595Y-106840533D01*
X50368452Y-106983390D02*
X50273214Y-106935771D01*
X50273214Y-106935771D02*
X50225595Y-106888152D01*
X50225595Y-106888152D02*
X50177976Y-106792914D01*
X50177976Y-106792914D02*
X50177976Y-106745295D01*
X50177976Y-106745295D02*
X50225595Y-106650057D01*
X50225595Y-106650057D02*
X50273214Y-106602438D01*
X50273214Y-106602438D02*
X50368452Y-106554819D01*
X50368452Y-106554819D02*
X50558928Y-106554819D01*
X50558928Y-106554819D02*
X50654166Y-106602438D01*
X50654166Y-106602438D02*
X50701785Y-106650057D01*
X50701785Y-106650057D02*
X50749404Y-106745295D01*
X50749404Y-106745295D02*
X50749404Y-106792914D01*
X50749404Y-106792914D02*
X50701785Y-106888152D01*
X50701785Y-106888152D02*
X50654166Y-106935771D01*
X50654166Y-106935771D02*
X50558928Y-106983390D01*
X50558928Y-106983390D02*
X50368452Y-106983390D01*
X50368452Y-106983390D02*
X50273214Y-107031009D01*
X50273214Y-107031009D02*
X50225595Y-107078628D01*
X50225595Y-107078628D02*
X50177976Y-107173866D01*
X50177976Y-107173866D02*
X50177976Y-107364342D01*
X50177976Y-107364342D02*
X50225595Y-107459580D01*
X50225595Y-107459580D02*
X50273214Y-107507200D01*
X50273214Y-107507200D02*
X50368452Y-107554819D01*
X50368452Y-107554819D02*
X50558928Y-107554819D01*
X50558928Y-107554819D02*
X50654166Y-107507200D01*
X50654166Y-107507200D02*
X50701785Y-107459580D01*
X50701785Y-107459580D02*
X50749404Y-107364342D01*
X50749404Y-107364342D02*
X50749404Y-107173866D01*
X50749404Y-107173866D02*
X50701785Y-107078628D01*
X50701785Y-107078628D02*
X50654166Y-107031009D01*
X50654166Y-107031009D02*
X50558928Y-106983390D01*
X44097080Y-67729166D02*
X44144700Y-67776785D01*
X44144700Y-67776785D02*
X44192319Y-67919642D01*
X44192319Y-67919642D02*
X44192319Y-68014880D01*
X44192319Y-68014880D02*
X44144700Y-68157737D01*
X44144700Y-68157737D02*
X44049461Y-68252975D01*
X44049461Y-68252975D02*
X43954223Y-68300594D01*
X43954223Y-68300594D02*
X43763747Y-68348213D01*
X43763747Y-68348213D02*
X43620890Y-68348213D01*
X43620890Y-68348213D02*
X43430414Y-68300594D01*
X43430414Y-68300594D02*
X43335176Y-68252975D01*
X43335176Y-68252975D02*
X43239938Y-68157737D01*
X43239938Y-68157737D02*
X43192319Y-68014880D01*
X43192319Y-68014880D02*
X43192319Y-67919642D01*
X43192319Y-67919642D02*
X43239938Y-67776785D01*
X43239938Y-67776785D02*
X43287557Y-67729166D01*
X43525652Y-66872023D02*
X44192319Y-66872023D01*
X43144700Y-67110118D02*
X43858985Y-67348213D01*
X43858985Y-67348213D02*
X43858985Y-66729166D01*
X48844642Y-78654819D02*
X48511309Y-78178628D01*
X48273214Y-78654819D02*
X48273214Y-77654819D01*
X48273214Y-77654819D02*
X48654166Y-77654819D01*
X48654166Y-77654819D02*
X48749404Y-77702438D01*
X48749404Y-77702438D02*
X48797023Y-77750057D01*
X48797023Y-77750057D02*
X48844642Y-77845295D01*
X48844642Y-77845295D02*
X48844642Y-77988152D01*
X48844642Y-77988152D02*
X48797023Y-78083390D01*
X48797023Y-78083390D02*
X48749404Y-78131009D01*
X48749404Y-78131009D02*
X48654166Y-78178628D01*
X48654166Y-78178628D02*
X48273214Y-78178628D01*
X49797023Y-78654819D02*
X49225595Y-78654819D01*
X49511309Y-78654819D02*
X49511309Y-77654819D01*
X49511309Y-77654819D02*
X49416071Y-77797676D01*
X49416071Y-77797676D02*
X49320833Y-77892914D01*
X49320833Y-77892914D02*
X49225595Y-77940533D01*
X50130357Y-77654819D02*
X50797023Y-77654819D01*
X50797023Y-77654819D02*
X50368452Y-78654819D01*
X38238095Y-87174819D02*
X38238095Y-87984342D01*
X38238095Y-87984342D02*
X38285714Y-88079580D01*
X38285714Y-88079580D02*
X38333333Y-88127200D01*
X38333333Y-88127200D02*
X38428571Y-88174819D01*
X38428571Y-88174819D02*
X38619047Y-88174819D01*
X38619047Y-88174819D02*
X38714285Y-88127200D01*
X38714285Y-88127200D02*
X38761904Y-88079580D01*
X38761904Y-88079580D02*
X38809523Y-87984342D01*
X38809523Y-87984342D02*
X38809523Y-87174819D01*
X39190476Y-87174819D02*
X39809523Y-87174819D01*
X39809523Y-87174819D02*
X39476190Y-87555771D01*
X39476190Y-87555771D02*
X39619047Y-87555771D01*
X39619047Y-87555771D02*
X39714285Y-87603390D01*
X39714285Y-87603390D02*
X39761904Y-87651009D01*
X39761904Y-87651009D02*
X39809523Y-87746247D01*
X39809523Y-87746247D02*
X39809523Y-87984342D01*
X39809523Y-87984342D02*
X39761904Y-88079580D01*
X39761904Y-88079580D02*
X39714285Y-88127200D01*
X39714285Y-88127200D02*
X39619047Y-88174819D01*
X39619047Y-88174819D02*
X39333333Y-88174819D01*
X39333333Y-88174819D02*
X39238095Y-88127200D01*
X39238095Y-88127200D02*
X39190476Y-88079580D01*
X36880952Y-97734819D02*
X37452380Y-97734819D01*
X37166666Y-98734819D02*
X37166666Y-97734819D01*
X38261904Y-98734819D02*
X37785714Y-98734819D01*
X37785714Y-98734819D02*
X37785714Y-97734819D01*
X38785714Y-97734819D02*
X38880952Y-97734819D01*
X38880952Y-97734819D02*
X38976190Y-97782438D01*
X38976190Y-97782438D02*
X39023809Y-97830057D01*
X39023809Y-97830057D02*
X39071428Y-97925295D01*
X39071428Y-97925295D02*
X39119047Y-98115771D01*
X39119047Y-98115771D02*
X39119047Y-98353866D01*
X39119047Y-98353866D02*
X39071428Y-98544342D01*
X39071428Y-98544342D02*
X39023809Y-98639580D01*
X39023809Y-98639580D02*
X38976190Y-98687200D01*
X38976190Y-98687200D02*
X38880952Y-98734819D01*
X38880952Y-98734819D02*
X38785714Y-98734819D01*
X38785714Y-98734819D02*
X38690476Y-98687200D01*
X38690476Y-98687200D02*
X38642857Y-98639580D01*
X38642857Y-98639580D02*
X38595238Y-98544342D01*
X38595238Y-98544342D02*
X38547619Y-98353866D01*
X38547619Y-98353866D02*
X38547619Y-98115771D01*
X38547619Y-98115771D02*
X38595238Y-97925295D01*
X38595238Y-97925295D02*
X38642857Y-97830057D01*
X38642857Y-97830057D02*
X38690476Y-97782438D01*
X38690476Y-97782438D02*
X38785714Y-97734819D01*
X39452381Y-97734819D02*
X40119047Y-97734819D01*
X40119047Y-97734819D02*
X39690476Y-98734819D01*
X40928571Y-98068152D02*
X40928571Y-98734819D01*
X40690476Y-97687200D02*
X40452381Y-98401485D01*
X40452381Y-98401485D02*
X41071428Y-98401485D01*
X46020833Y-49984819D02*
X45687500Y-49508628D01*
X45449405Y-49984819D02*
X45449405Y-48984819D01*
X45449405Y-48984819D02*
X45830357Y-48984819D01*
X45830357Y-48984819D02*
X45925595Y-49032438D01*
X45925595Y-49032438D02*
X45973214Y-49080057D01*
X45973214Y-49080057D02*
X46020833Y-49175295D01*
X46020833Y-49175295D02*
X46020833Y-49318152D01*
X46020833Y-49318152D02*
X45973214Y-49413390D01*
X45973214Y-49413390D02*
X45925595Y-49461009D01*
X45925595Y-49461009D02*
X45830357Y-49508628D01*
X45830357Y-49508628D02*
X45449405Y-49508628D01*
X46973214Y-49984819D02*
X46401786Y-49984819D01*
X46687500Y-49984819D02*
X46687500Y-48984819D01*
X46687500Y-48984819D02*
X46592262Y-49127676D01*
X46592262Y-49127676D02*
X46497024Y-49222914D01*
X46497024Y-49222914D02*
X46401786Y-49270533D01*
X45344642Y-82084819D02*
X45011309Y-81608628D01*
X44773214Y-82084819D02*
X44773214Y-81084819D01*
X44773214Y-81084819D02*
X45154166Y-81084819D01*
X45154166Y-81084819D02*
X45249404Y-81132438D01*
X45249404Y-81132438D02*
X45297023Y-81180057D01*
X45297023Y-81180057D02*
X45344642Y-81275295D01*
X45344642Y-81275295D02*
X45344642Y-81418152D01*
X45344642Y-81418152D02*
X45297023Y-81513390D01*
X45297023Y-81513390D02*
X45249404Y-81561009D01*
X45249404Y-81561009D02*
X45154166Y-81608628D01*
X45154166Y-81608628D02*
X44773214Y-81608628D01*
X46297023Y-82084819D02*
X45725595Y-82084819D01*
X46011309Y-82084819D02*
X46011309Y-81084819D01*
X46011309Y-81084819D02*
X45916071Y-81227676D01*
X45916071Y-81227676D02*
X45820833Y-81322914D01*
X45820833Y-81322914D02*
X45725595Y-81370533D01*
X47249404Y-82084819D02*
X46677976Y-82084819D01*
X46963690Y-82084819D02*
X46963690Y-81084819D01*
X46963690Y-81084819D02*
X46868452Y-81227676D01*
X46868452Y-81227676D02*
X46773214Y-81322914D01*
X46773214Y-81322914D02*
X46677976Y-81370533D01*
X59059580Y-131566666D02*
X59107200Y-131614285D01*
X59107200Y-131614285D02*
X59154819Y-131757142D01*
X59154819Y-131757142D02*
X59154819Y-131852380D01*
X59154819Y-131852380D02*
X59107200Y-131995237D01*
X59107200Y-131995237D02*
X59011961Y-132090475D01*
X59011961Y-132090475D02*
X58916723Y-132138094D01*
X58916723Y-132138094D02*
X58726247Y-132185713D01*
X58726247Y-132185713D02*
X58583390Y-132185713D01*
X58583390Y-132185713D02*
X58392914Y-132138094D01*
X58392914Y-132138094D02*
X58297676Y-132090475D01*
X58297676Y-132090475D02*
X58202438Y-131995237D01*
X58202438Y-131995237D02*
X58154819Y-131852380D01*
X58154819Y-131852380D02*
X58154819Y-131757142D01*
X58154819Y-131757142D02*
X58202438Y-131614285D01*
X58202438Y-131614285D02*
X58250057Y-131566666D01*
X58583390Y-130995237D02*
X58535771Y-131090475D01*
X58535771Y-131090475D02*
X58488152Y-131138094D01*
X58488152Y-131138094D02*
X58392914Y-131185713D01*
X58392914Y-131185713D02*
X58345295Y-131185713D01*
X58345295Y-131185713D02*
X58250057Y-131138094D01*
X58250057Y-131138094D02*
X58202438Y-131090475D01*
X58202438Y-131090475D02*
X58154819Y-130995237D01*
X58154819Y-130995237D02*
X58154819Y-130804761D01*
X58154819Y-130804761D02*
X58202438Y-130709523D01*
X58202438Y-130709523D02*
X58250057Y-130661904D01*
X58250057Y-130661904D02*
X58345295Y-130614285D01*
X58345295Y-130614285D02*
X58392914Y-130614285D01*
X58392914Y-130614285D02*
X58488152Y-130661904D01*
X58488152Y-130661904D02*
X58535771Y-130709523D01*
X58535771Y-130709523D02*
X58583390Y-130804761D01*
X58583390Y-130804761D02*
X58583390Y-130995237D01*
X58583390Y-130995237D02*
X58631009Y-131090475D01*
X58631009Y-131090475D02*
X58678628Y-131138094D01*
X58678628Y-131138094D02*
X58773866Y-131185713D01*
X58773866Y-131185713D02*
X58964342Y-131185713D01*
X58964342Y-131185713D02*
X59059580Y-131138094D01*
X59059580Y-131138094D02*
X59107200Y-131090475D01*
X59107200Y-131090475D02*
X59154819Y-130995237D01*
X59154819Y-130995237D02*
X59154819Y-130804761D01*
X59154819Y-130804761D02*
X59107200Y-130709523D01*
X59107200Y-130709523D02*
X59059580Y-130661904D01*
X59059580Y-130661904D02*
X58964342Y-130614285D01*
X58964342Y-130614285D02*
X58773866Y-130614285D01*
X58773866Y-130614285D02*
X58678628Y-130661904D01*
X58678628Y-130661904D02*
X58631009Y-130709523D01*
X58631009Y-130709523D02*
X58583390Y-130804761D01*
X51754819Y-134376190D02*
X51754819Y-134947618D01*
X51754819Y-134661904D02*
X50754819Y-134661904D01*
X50754819Y-134661904D02*
X50897676Y-134757142D01*
X50897676Y-134757142D02*
X50992914Y-134852380D01*
X50992914Y-134852380D02*
X51040533Y-134947618D01*
X50754819Y-133757142D02*
X50754819Y-133661904D01*
X50754819Y-133661904D02*
X50802438Y-133566666D01*
X50802438Y-133566666D02*
X50850057Y-133519047D01*
X50850057Y-133519047D02*
X50945295Y-133471428D01*
X50945295Y-133471428D02*
X51135771Y-133423809D01*
X51135771Y-133423809D02*
X51373866Y-133423809D01*
X51373866Y-133423809D02*
X51564342Y-133471428D01*
X51564342Y-133471428D02*
X51659580Y-133519047D01*
X51659580Y-133519047D02*
X51707200Y-133566666D01*
X51707200Y-133566666D02*
X51754819Y-133661904D01*
X51754819Y-133661904D02*
X51754819Y-133757142D01*
X51754819Y-133757142D02*
X51707200Y-133852380D01*
X51707200Y-133852380D02*
X51659580Y-133899999D01*
X51659580Y-133899999D02*
X51564342Y-133947618D01*
X51564342Y-133947618D02*
X51373866Y-133995237D01*
X51373866Y-133995237D02*
X51135771Y-133995237D01*
X51135771Y-133995237D02*
X50945295Y-133947618D01*
X50945295Y-133947618D02*
X50850057Y-133899999D01*
X50850057Y-133899999D02*
X50802438Y-133852380D01*
X50802438Y-133852380D02*
X50754819Y-133757142D01*
X51088152Y-132566666D02*
X51754819Y-132566666D01*
X51088152Y-132995237D02*
X51611961Y-132995237D01*
X51611961Y-132995237D02*
X51707200Y-132947618D01*
X51707200Y-132947618D02*
X51754819Y-132852380D01*
X51754819Y-132852380D02*
X51754819Y-132709523D01*
X51754819Y-132709523D02*
X51707200Y-132614285D01*
X51707200Y-132614285D02*
X51659580Y-132566666D01*
X51231009Y-131757142D02*
X51231009Y-132090475D01*
X51754819Y-132090475D02*
X50754819Y-132090475D01*
X50754819Y-132090475D02*
X50754819Y-131614285D01*
X50707200Y-130519047D02*
X51992914Y-131376189D01*
X50850057Y-130233332D02*
X50802438Y-130185713D01*
X50802438Y-130185713D02*
X50754819Y-130090475D01*
X50754819Y-130090475D02*
X50754819Y-129852380D01*
X50754819Y-129852380D02*
X50802438Y-129757142D01*
X50802438Y-129757142D02*
X50850057Y-129709523D01*
X50850057Y-129709523D02*
X50945295Y-129661904D01*
X50945295Y-129661904D02*
X51040533Y-129661904D01*
X51040533Y-129661904D02*
X51183390Y-129709523D01*
X51183390Y-129709523D02*
X51754819Y-130280951D01*
X51754819Y-130280951D02*
X51754819Y-129661904D01*
X50754819Y-128757142D02*
X50754819Y-129233332D01*
X50754819Y-129233332D02*
X51231009Y-129280951D01*
X51231009Y-129280951D02*
X51183390Y-129233332D01*
X51183390Y-129233332D02*
X51135771Y-129138094D01*
X51135771Y-129138094D02*
X51135771Y-128899999D01*
X51135771Y-128899999D02*
X51183390Y-128804761D01*
X51183390Y-128804761D02*
X51231009Y-128757142D01*
X51231009Y-128757142D02*
X51326247Y-128709523D01*
X51326247Y-128709523D02*
X51564342Y-128709523D01*
X51564342Y-128709523D02*
X51659580Y-128757142D01*
X51659580Y-128757142D02*
X51707200Y-128804761D01*
X51707200Y-128804761D02*
X51754819Y-128899999D01*
X51754819Y-128899999D02*
X51754819Y-129138094D01*
X51754819Y-129138094D02*
X51707200Y-129233332D01*
X51707200Y-129233332D02*
X51659580Y-129280951D01*
X50754819Y-128423808D02*
X51754819Y-128090475D01*
X51754819Y-128090475D02*
X50754819Y-127757142D01*
X42433333Y-49984819D02*
X42100000Y-49508628D01*
X41861905Y-49984819D02*
X41861905Y-48984819D01*
X41861905Y-48984819D02*
X42242857Y-48984819D01*
X42242857Y-48984819D02*
X42338095Y-49032438D01*
X42338095Y-49032438D02*
X42385714Y-49080057D01*
X42385714Y-49080057D02*
X42433333Y-49175295D01*
X42433333Y-49175295D02*
X42433333Y-49318152D01*
X42433333Y-49318152D02*
X42385714Y-49413390D01*
X42385714Y-49413390D02*
X42338095Y-49461009D01*
X42338095Y-49461009D02*
X42242857Y-49508628D01*
X42242857Y-49508628D02*
X41861905Y-49508628D01*
X42766667Y-48984819D02*
X43433333Y-48984819D01*
X43433333Y-48984819D02*
X43004762Y-49984819D01*
X45820833Y-78584819D02*
X45487500Y-78108628D01*
X45249405Y-78584819D02*
X45249405Y-77584819D01*
X45249405Y-77584819D02*
X45630357Y-77584819D01*
X45630357Y-77584819D02*
X45725595Y-77632438D01*
X45725595Y-77632438D02*
X45773214Y-77680057D01*
X45773214Y-77680057D02*
X45820833Y-77775295D01*
X45820833Y-77775295D02*
X45820833Y-77918152D01*
X45820833Y-77918152D02*
X45773214Y-78013390D01*
X45773214Y-78013390D02*
X45725595Y-78061009D01*
X45725595Y-78061009D02*
X45630357Y-78108628D01*
X45630357Y-78108628D02*
X45249405Y-78108628D01*
X46201786Y-77680057D02*
X46249405Y-77632438D01*
X46249405Y-77632438D02*
X46344643Y-77584819D01*
X46344643Y-77584819D02*
X46582738Y-77584819D01*
X46582738Y-77584819D02*
X46677976Y-77632438D01*
X46677976Y-77632438D02*
X46725595Y-77680057D01*
X46725595Y-77680057D02*
X46773214Y-77775295D01*
X46773214Y-77775295D02*
X46773214Y-77870533D01*
X46773214Y-77870533D02*
X46725595Y-78013390D01*
X46725595Y-78013390D02*
X46154167Y-78584819D01*
X46154167Y-78584819D02*
X46773214Y-78584819D01*
%TO.C,R8*%
D12*
X46354724Y-50577500D02*
X45845276Y-50577500D01*
X46354724Y-51622500D02*
X45845276Y-51622500D01*
%TO.C,C6*%
X43190000Y-94008767D02*
X43190000Y-93716233D01*
X44210000Y-94008767D02*
X44210000Y-93716233D01*
%TO.C,C1*%
X33290000Y-37216233D02*
X33290000Y-37508767D01*
X34310000Y-37216233D02*
X34310000Y-37508767D01*
%TO.C,R6*%
X44777500Y-93607776D02*
X44777500Y-94117224D01*
X45822500Y-93607776D02*
X45822500Y-94117224D01*
%TO.C,C7*%
X52240000Y-120104437D02*
X52240000Y-124560000D01*
X52240000Y-124560000D02*
X53940000Y-124560000D01*
X53304437Y-119040000D02*
X52240000Y-120104437D01*
X53304437Y-119040000D02*
X53940000Y-119040000D01*
X56685000Y-118175000D02*
X56685000Y-118800000D01*
X56695563Y-119040000D02*
X56060000Y-119040000D01*
X56695563Y-119040000D02*
X57760000Y-120104437D01*
X56997500Y-118487500D02*
X56372500Y-118487500D01*
X57760000Y-120104437D02*
X57760000Y-124560000D01*
X57760000Y-124560000D02*
X56060000Y-124560000D01*
%TO.C,R9*%
X42754724Y-50577500D02*
X42245276Y-50577500D01*
X42754724Y-51622500D02*
X42245276Y-51622500D01*
%TO.C,U1*%
X36940000Y-32065000D02*
X41060000Y-32065000D01*
X36940000Y-32130000D02*
X36940000Y-32065000D01*
X36940000Y-40935000D02*
X36940000Y-40870000D01*
X41060000Y-32065000D02*
X41060000Y-32130000D01*
X41060000Y-40870000D02*
X41060000Y-40935000D01*
X41060000Y-40935000D02*
X36940000Y-40935000D01*
X36400000Y-32130000D02*
X36160000Y-31800000D01*
X36640000Y-31800000D01*
X36400000Y-32130000D01*
G36*
X36400000Y-32130000D02*
G01*
X36160000Y-31800000D01*
X36640000Y-31800000D01*
X36400000Y-32130000D01*
G37*
%TO.C,D7*%
X44350000Y-117312500D02*
X44350000Y-124322500D01*
X47650000Y-117312500D02*
X44350000Y-117312500D01*
X47650000Y-117312500D02*
X47650000Y-124322500D01*
%TO.C,R3*%
X46242224Y-105077500D02*
X45732776Y-105077500D01*
X46242224Y-106122500D02*
X45732776Y-106122500D01*
%TO.C,U2*%
X36940000Y-59565000D02*
X41060000Y-59565000D01*
X36940000Y-59630000D02*
X36940000Y-59565000D01*
X36940000Y-68435000D02*
X36940000Y-68370000D01*
X41060000Y-59565000D02*
X41060000Y-59630000D01*
X41060000Y-68370000D02*
X41060000Y-68435000D01*
X41060000Y-68435000D02*
X36940000Y-68435000D01*
X36400000Y-59630000D02*
X36160000Y-59300000D01*
X36640000Y-59300000D01*
X36400000Y-59630000D01*
G36*
X36400000Y-59630000D02*
G01*
X36160000Y-59300000D01*
X36640000Y-59300000D01*
X36400000Y-59630000D01*
G37*
%TO.C,C11*%
X49646267Y-108790000D02*
X49353733Y-108790000D01*
X49646267Y-109810000D02*
X49353733Y-109810000D01*
%TO.C,R10*%
X42742224Y-76177500D02*
X42232776Y-76177500D01*
X42742224Y-77222500D02*
X42232776Y-77222500D01*
%TO.C,C10*%
X49683767Y-79690000D02*
X49391233Y-79690000D01*
X49683767Y-80710000D02*
X49391233Y-80710000D01*
%TO.C,C3*%
X33590000Y-64716233D02*
X33590000Y-65008767D01*
X34610000Y-64716233D02*
X34610000Y-65008767D01*
%TO.C,R13*%
X42232776Y-105077500D02*
X42742224Y-105077500D01*
X42232776Y-106122500D02*
X42742224Y-106122500D01*
%TO.C,J1*%
X31670000Y-116630000D02*
X40790000Y-116630000D01*
X31670000Y-137210000D02*
X31670000Y-116630000D01*
X32980000Y-117930000D02*
X39480000Y-117930000D01*
X32980000Y-135910000D02*
X32980000Y-117930000D01*
X39480000Y-117930000D02*
X39480000Y-124870000D01*
X39480000Y-124870000D02*
X40790000Y-124870000D01*
X39480000Y-128970000D02*
X39480000Y-135910000D01*
X39480000Y-135910000D02*
X32980000Y-135910000D01*
X40790000Y-116630000D02*
X40790000Y-137210000D01*
X40790000Y-128970000D02*
X39480000Y-128970000D01*
X40790000Y-137210000D02*
X31670000Y-137210000D01*
X41180000Y-132000000D02*
X42180000Y-132500000D01*
X42180000Y-131500000D02*
X41180000Y-132000000D01*
X42180000Y-132500000D02*
X42180000Y-131500000D01*
%TO.C,D8*%
X44350000Y-126912500D02*
X44350000Y-133922500D01*
X47650000Y-126912500D02*
X44350000Y-126912500D01*
X47650000Y-126912500D02*
X47650000Y-133922500D01*
%TO.C,C5*%
X33590000Y-93716233D02*
X33590000Y-94008767D01*
X34610000Y-93716233D02*
X34610000Y-94008767D01*
%TO.C,R5*%
X44877500Y-64607776D02*
X44877500Y-65117224D01*
X45922500Y-64607776D02*
X45922500Y-65117224D01*
%TO.C,R15*%
X42742224Y-108777500D02*
X42232776Y-108777500D01*
X42742224Y-109822500D02*
X42232776Y-109822500D01*
%TO.C,R16*%
X49445276Y-47577500D02*
X49954724Y-47577500D01*
X49445276Y-48622500D02*
X49954724Y-48622500D01*
%TO.C,C9*%
X49783767Y-50590000D02*
X49491233Y-50590000D01*
X49783767Y-51610000D02*
X49491233Y-51610000D01*
%TO.C,R12*%
X42642224Y-79677500D02*
X42132776Y-79677500D01*
X42642224Y-80722500D02*
X42132776Y-80722500D01*
%TO.C,R4*%
X44977500Y-37007776D02*
X44977500Y-37517224D01*
X46022500Y-37007776D02*
X46022500Y-37517224D01*
%TO.C,C2*%
X43290000Y-37408767D02*
X43290000Y-37116233D01*
X44310000Y-37408767D02*
X44310000Y-37116233D01*
%TO.C,R14*%
X46342224Y-108777500D02*
X45832776Y-108777500D01*
X46342224Y-109822500D02*
X45832776Y-109822500D01*
%TO.C,R18*%
X49232776Y-105077500D02*
X49742224Y-105077500D01*
X49232776Y-106122500D02*
X49742224Y-106122500D01*
%TO.C,C4*%
X43190000Y-65008767D02*
X43190000Y-64716233D01*
X44210000Y-65008767D02*
X44210000Y-64716233D01*
%TO.C,R17*%
X49232776Y-76177500D02*
X49742224Y-76177500D01*
X49232776Y-77222500D02*
X49742224Y-77222500D01*
%TO.C,U3*%
X36940000Y-88565000D02*
X41060000Y-88565000D01*
X36940000Y-88630000D02*
X36940000Y-88565000D01*
X36940000Y-97435000D02*
X36940000Y-97370000D01*
X41060000Y-88565000D02*
X41060000Y-88630000D01*
X41060000Y-97370000D02*
X41060000Y-97435000D01*
X41060000Y-97435000D02*
X36940000Y-97435000D01*
X36400000Y-88630000D02*
X36160000Y-88300000D01*
X36640000Y-88300000D01*
X36400000Y-88630000D01*
G36*
X36400000Y-88630000D02*
G01*
X36160000Y-88300000D01*
X36640000Y-88300000D01*
X36400000Y-88630000D01*
G37*
%TO.C,R1*%
X46442224Y-47577500D02*
X45932776Y-47577500D01*
X46442224Y-48622500D02*
X45932776Y-48622500D01*
%TO.C,R11*%
X46242224Y-79677500D02*
X45732776Y-79677500D01*
X46242224Y-80722500D02*
X45732776Y-80722500D01*
%TO.C,C8*%
X52240000Y-129704437D02*
X52240000Y-134160000D01*
X52240000Y-134160000D02*
X53940000Y-134160000D01*
X53304437Y-128640000D02*
X52240000Y-129704437D01*
X53304437Y-128640000D02*
X53940000Y-128640000D01*
X56685000Y-127775000D02*
X56685000Y-128400000D01*
X56695563Y-128640000D02*
X56060000Y-128640000D01*
X56695563Y-128640000D02*
X57760000Y-129704437D01*
X56997500Y-128087500D02*
X56372500Y-128087500D01*
X57760000Y-129704437D02*
X57760000Y-134160000D01*
X57760000Y-134160000D02*
X56060000Y-134160000D01*
%TO.C,R7*%
X42854724Y-47577500D02*
X42345276Y-47577500D01*
X42854724Y-48622500D02*
X42345276Y-48622500D01*
%TO.C,R2*%
X46242224Y-76177500D02*
X45732776Y-76177500D01*
X46242224Y-77222500D02*
X45732776Y-77222500D01*
%TD*%
%LPC*%
D13*
%TO.C,R8*%
X47012500Y-51100000D03*
X45187500Y-51100000D03*
%TD*%
D14*
%TO.C,C6*%
X43700000Y-94725000D03*
X43700000Y-93000000D03*
%TD*%
D15*
%TO.C,C1*%
X33800000Y-36500000D03*
X33800000Y-38225000D03*
%TD*%
D16*
%TO.C,R6*%
X45300000Y-92950000D03*
X45300000Y-94775000D03*
%TD*%
D17*
%TO.C,C7*%
X55000000Y-119600000D03*
X55000000Y-124000000D03*
%TD*%
D13*
%TO.C,R9*%
X43412500Y-51100000D03*
X41587500Y-51100000D03*
%TD*%
D18*
%TO.C,U1*%
X36525000Y-32690000D03*
X36525000Y-33960000D03*
X36525000Y-35230000D03*
X36525000Y-36500000D03*
X36525000Y-37770000D03*
X36525000Y-39040000D03*
X36525000Y-40310000D03*
X41475000Y-40310000D03*
X41475000Y-39040000D03*
X41475000Y-37770000D03*
X41475000Y-36500000D03*
X41475000Y-35230000D03*
X41475000Y-33960000D03*
X41475000Y-32690000D03*
%TD*%
D19*
%TO.C,D7*%
X46000000Y-119322500D03*
X46000000Y-124322500D03*
%TD*%
D13*
%TO.C,R3*%
X46900000Y-105600000D03*
X45075000Y-105600000D03*
%TD*%
D18*
%TO.C,U2*%
X36525000Y-60190000D03*
X36525000Y-61460000D03*
X36525000Y-62730000D03*
X36525000Y-64000000D03*
X36525000Y-65270000D03*
X36525000Y-66540000D03*
X36525000Y-67810000D03*
X41475000Y-67810000D03*
X41475000Y-66540000D03*
X41475000Y-65270000D03*
X41475000Y-64000000D03*
X41475000Y-62730000D03*
X41475000Y-61460000D03*
X41475000Y-60190000D03*
%TD*%
D20*
%TO.C,C11*%
X50362500Y-109300000D03*
X48637500Y-109300000D03*
%TD*%
D13*
%TO.C,R10*%
X43400000Y-76700000D03*
X41575000Y-76700000D03*
%TD*%
D20*
%TO.C,C10*%
X50400000Y-80200000D03*
X48675000Y-80200000D03*
%TD*%
D15*
%TO.C,C3*%
X34100000Y-64000000D03*
X34100000Y-65725000D03*
%TD*%
D21*
%TO.C,R13*%
X41575000Y-105600000D03*
X43400000Y-105600000D03*
%TD*%
D22*
%TO.C,J1*%
X37500000Y-132000000D03*
D23*
X34960000Y-132000000D03*
X37500000Y-129460000D03*
X34960000Y-129460000D03*
X37500000Y-126920000D03*
X34960000Y-126920000D03*
X37500000Y-124380000D03*
X34960000Y-124380000D03*
X37500000Y-121840000D03*
X34960000Y-121840000D03*
%TD*%
D19*
%TO.C,D8*%
X46000000Y-128922500D03*
X46000000Y-133922500D03*
%TD*%
D15*
%TO.C,C5*%
X34100000Y-93000000D03*
X34100000Y-94725000D03*
%TD*%
D16*
%TO.C,R5*%
X45400000Y-63950000D03*
X45400000Y-65775000D03*
%TD*%
D13*
%TO.C,R15*%
X43400000Y-109300000D03*
X41575000Y-109300000D03*
%TD*%
D21*
%TO.C,R16*%
X48787500Y-48100000D03*
X50612500Y-48100000D03*
%TD*%
D20*
%TO.C,C9*%
X50500000Y-51100000D03*
X48775000Y-51100000D03*
%TD*%
D13*
%TO.C,R12*%
X43300000Y-80200000D03*
X41475000Y-80200000D03*
%TD*%
D16*
%TO.C,R4*%
X45500000Y-36350000D03*
X45500000Y-38175000D03*
%TD*%
D14*
%TO.C,C2*%
X43800000Y-38125000D03*
X43800000Y-36400000D03*
%TD*%
D13*
%TO.C,R14*%
X47000000Y-109300000D03*
X45175000Y-109300000D03*
%TD*%
D21*
%TO.C,R18*%
X48575000Y-105600000D03*
X50400000Y-105600000D03*
%TD*%
D14*
%TO.C,C4*%
X43700000Y-65725000D03*
X43700000Y-64000000D03*
%TD*%
D21*
%TO.C,R17*%
X48575000Y-76700000D03*
X50400000Y-76700000D03*
%TD*%
D18*
%TO.C,U3*%
X36525000Y-89190000D03*
X36525000Y-90460000D03*
X36525000Y-91730000D03*
X36525000Y-93000000D03*
X36525000Y-94270000D03*
X36525000Y-95540000D03*
X36525000Y-96810000D03*
X41475000Y-96810000D03*
X41475000Y-95540000D03*
X41475000Y-94270000D03*
X41475000Y-93000000D03*
X41475000Y-91730000D03*
X41475000Y-90460000D03*
X41475000Y-89190000D03*
%TD*%
D13*
%TO.C,R1*%
X47100000Y-48100000D03*
X45275000Y-48100000D03*
%TD*%
%TO.C,R11*%
X46900000Y-80200000D03*
X45075000Y-80200000D03*
%TD*%
D17*
%TO.C,C8*%
X55000000Y-129200000D03*
X55000000Y-133600000D03*
%TD*%
D13*
%TO.C,R7*%
X43512500Y-48100000D03*
X41687500Y-48100000D03*
%TD*%
%TO.C,R2*%
X46900000Y-76700000D03*
X45075000Y-76700000D03*
%TD*%
D24*
%TO.C,D2*%
X50000000Y-37000000D03*
D25*
X47460000Y-37000000D03*
%TD*%
D24*
%TO.C,D3*%
X55500000Y-66000000D03*
D25*
X52960000Y-66000000D03*
%TD*%
D24*
%TO.C,D5*%
X55500000Y-95000000D03*
D25*
X52960000Y-95000000D03*
%TD*%
D26*
%TO.C,J3*%
X58000000Y-74000000D03*
D27*
X46600000Y-74000000D03*
X54900000Y-74000000D03*
%TD*%
D26*
%TO.C,J2*%
X58000000Y-45000000D03*
D27*
X46600000Y-45000000D03*
X54900000Y-45000000D03*
%TD*%
D26*
%TO.C,J7*%
X32000000Y-55000000D03*
D27*
X43400000Y-55000000D03*
X35100000Y-55000000D03*
%TD*%
D26*
%TO.C,J12*%
X58000000Y-113000000D03*
D27*
X46600000Y-113000000D03*
X54900000Y-113000000D03*
%TD*%
D26*
%TO.C,J9*%
X58000000Y-84000000D03*
D27*
X46600000Y-84000000D03*
X54900000Y-84000000D03*
%TD*%
D26*
%TO.C,J6*%
X58000000Y-55000000D03*
D27*
X46600000Y-55000000D03*
X54900000Y-55000000D03*
%TD*%
D26*
%TO.C,J5*%
X32000000Y-45000000D03*
D27*
X43400000Y-45000000D03*
X35100000Y-45000000D03*
%TD*%
D24*
%TO.C,D1*%
X55500000Y-37000000D03*
D25*
X52960000Y-37000000D03*
%TD*%
D24*
%TO.C,D6*%
X50000000Y-95000000D03*
D25*
X47460000Y-95000000D03*
%TD*%
D26*
%TO.C,J8*%
X32000000Y-74000000D03*
D27*
X43400000Y-74000000D03*
X35100000Y-74000000D03*
%TD*%
D26*
%TO.C,J10*%
X32000000Y-84000000D03*
D27*
X43400000Y-84000000D03*
X35100000Y-84000000D03*
%TD*%
D24*
%TO.C,D4*%
X50000000Y-66000000D03*
D25*
X47460000Y-66000000D03*
%TD*%
D26*
%TO.C,J13*%
X32000000Y-113000000D03*
D27*
X43400000Y-113000000D03*
X35100000Y-113000000D03*
%TD*%
D26*
%TO.C,J4*%
X58000000Y-103000000D03*
D27*
X46600000Y-103000000D03*
X54900000Y-103000000D03*
%TD*%
D26*
%TO.C,J11*%
X32000000Y-103000000D03*
D27*
X43400000Y-103000000D03*
X35100000Y-103000000D03*
%TD*%
%LPD*%
M02*
